<?xml version="1.0" encoding="UTF-8" standalone="no"?>
<!DOCTYPE svg PUBLIC "-//W3C//DTD SVG 1.1//EN"
 "http://www.w3.org/Graphics/SVG/1.1/DTD/svg11.dtd">
<!-- Generated by graphviz version 2.43.0 (0)
 -->
<!-- Title: PolynomialBasis&lt; spec_t, orig_poly_t, new_poly_t &gt; Pages: 1 -->
<svg width="450pt" height="273pt"
 viewBox="0.00 0.00 450.00 273.00" xmlns="http://www.w3.org/2000/svg" xmlns:xlink="http://www.w3.org/1999/xlink">
<g id="graph0" class="graph" transform="scale(1 1) rotate(0) translate(4 269)">
<title>PolynomialBasis&lt; spec_t, orig_poly_t, new_poly_t &gt;</title>
<polygon fill="white" stroke="transparent" points="-4,4 -4,-269 446,-269 446,4 -4,4"/>
<!-- Node1 -->
<g id="node1" class="node">
<title>Node1</title>
<g id="a_node1"><a xlink:title="Factory class that provides the general interface of a generating basis for a subring of a polynomial...">
<polygon fill="#bfbfbf" stroke="black" points="161.5,-0.5 161.5,-41.5 292.5,-41.5 292.5,-0.5 161.5,-0.5"/>
<text text-anchor="start" x="169.5" y="-29.5" font-family="Helvetica,sans-Serif" font-size="10.00">PolynomialBasis&lt; spec</text>
<text text-anchor="start" x="169.5" y="-18.5" font-family="Helvetica,sans-Serif" font-size="10.00">_t, orig_poly_t, new</text>
<text text-anchor="middle" x="227" y="-7.5" font-family="Helvetica,sans-Serif" font-size="10.00">_poly_t &gt;</text>
</a>
</g>
</g>
<!-- Node2 -->
<g id="node2" class="node">
<title>Node2</title>
<g id="a_node2"><a xlink:title=" ">
<polygon fill="white" stroke="#bfbfbf" points="24.5,-95 24.5,-114 143.5,-114 143.5,-95 24.5,-95"/>
<text text-anchor="middle" x="84" y="-102" font-family="Helvetica,sans-Serif" font-size="10.00">vector&lt; std::string &gt;</text>
</a>
</g>
</g>
<!-- Node2&#45;&gt;Node1 -->
<g id="edge1" class="edge">
<title>Node2&#45;&gt;Node1</title>
<path fill="none" stroke="#9a32cd" stroke-dasharray="5,2" d="M99.51,-87.62C108.88,-78.66 121.42,-67.75 134,-60 145.29,-53.05 158.07,-46.88 170.46,-41.63"/>
<polygon fill="#9a32cd" stroke="#9a32cd" points="96.83,-85.35 92.16,-94.86 101.74,-90.34 96.83,-85.35"/>
<text text-anchor="middle" x="178.5" y="-63" font-family="Helvetica,sans-Serif" font-size="10.00"> generator_names</text>
</g>
<!-- Node3 -->
<g id="node3" class="node">
<title>Node3</title>
<g id="a_node3"><a xlink:title=" ">
<polygon fill="white" stroke="#bfbfbf" points="38,-178.5 38,-197.5 82,-197.5 82,-178.5 38,-178.5"/>
<text text-anchor="middle" x="60" y="-185.5" font-family="Helvetica,sans-Serif" font-size="10.00">string</text>
</a>
</g>
</g>
<!-- Node3&#45;&gt;Node2 -->
<g id="edge2" class="edge">
<title>Node3&#45;&gt;Node2</title>
<path fill="none" stroke="#9a32cd" stroke-dasharray="5,2" d="M57.84,-168.29C57.39,-158.96 57.82,-147.65 61,-138 63.98,-128.94 70.43,-120.2 75.75,-114.07"/>
<polygon fill="#9a32cd" stroke="#9a32cd" points="54.36,-168.75 58.69,-178.42 61.34,-168.17 54.36,-168.75"/>
<text text-anchor="middle" x="85.5" y="-146.5" font-family="Helvetica,sans-Serif" font-size="10.00"> elements</text>
</g>
<!-- Node4 -->
<g id="node4" class="node">
<title>Node4</title>
<g id="a_node4"><a xlink:title=" ">
<polygon fill="white" stroke="#bfbfbf" points="0,-245.5 0,-264.5 120,-264.5 120,-245.5 0,-245.5"/>
<text text-anchor="middle" x="60" y="-252.5" font-family="Helvetica,sans-Serif" font-size="10.00">basic_string&lt; Char &gt;</text>
</a>
</g>
</g>
<!-- Node4&#45;&gt;Node3 -->
<g id="edge3" class="edge">
<title>Node4&#45;&gt;Node3</title>
<path fill="none" stroke="midnightblue" d="M60,-235.04C60,-222.67 60,-207.12 60,-197.63"/>
<polygon fill="midnightblue" stroke="midnightblue" points="56.5,-235.23 60,-245.23 63.5,-235.23 56.5,-235.23"/>
</g>
<!-- Node5 -->
<g id="node5" class="node">
<title>Node5</title>
<g id="a_node5"><a xlink:title=" ">
<polygon fill="white" stroke="#bfbfbf" points="192,-178.5 192,-197.5 268,-197.5 268,-178.5 192,-178.5"/>
<text text-anchor="middle" x="230" y="-185.5" font-family="Helvetica,sans-Serif" font-size="10.00">vector&lt; T &gt;</text>
</a>
</g>
</g>
<!-- Node5&#45;&gt;Node2 -->
<g id="edge4" class="edge">
<title>Node5&#45;&gt;Node2</title>
<path fill="none" stroke="orange" stroke-dasharray="5,2" d="M185.89,-175.3C173.87,-171.27 161.11,-166.18 150,-160 126.89,-147.14 104.01,-125.81 92.21,-114.01"/>
<polygon fill="orange" stroke="orange" points="185.17,-178.75 195.76,-178.44 187.29,-172.08 185.17,-178.75"/>
<text text-anchor="middle" x="187.5" y="-146.5" font-family="Helvetica,sans-Serif" font-size="10.00"> &lt; std::string &gt;</text>
</g>
<!-- Node7 -->
<g id="node7" class="node">
<title>Node7</title>
<g id="a_node7"><a xlink:title=" ">
<polygon fill="white" stroke="#bfbfbf" points="161.5,-89.5 161.5,-119.5 292.5,-119.5 292.5,-89.5 161.5,-89.5"/>
<text text-anchor="start" x="169.5" y="-107.5" font-family="Helvetica,sans-Serif" font-size="10.00">vector&lt; typename new</text>
<text text-anchor="middle" x="227" y="-96.5" font-family="Helvetica,sans-Serif" font-size="10.00">_poly_t::deg_t &gt;</text>
</a>
</g>
</g>
<!-- Node5&#45;&gt;Node7 -->
<g id="edge7" class="edge">
<title>Node5&#45;&gt;Node7</title>
<path fill="none" stroke="orange" stroke-dasharray="5,2" d="M229.31,-168.23C228.76,-153.41 228.01,-133.05 227.52,-119.6"/>
<polygon fill="orange" stroke="orange" points="225.81,-168.41 229.68,-178.28 232.81,-168.16 225.81,-168.41"/>
<text text-anchor="start" x="229" y="-152" font-family="Helvetica,sans-Serif" font-size="10.00"> &lt; typename new_poly</text>
<text text-anchor="middle" x="286" y="-141" font-family="Helvetica,sans-Serif" font-size="10.00">_t::deg_t &gt;</text>
</g>
<!-- Node8 -->
<g id="node8" class="node">
<title>Node8</title>
<g id="a_node8"><a xlink:title=" ">
<polygon fill="white" stroke="#bfbfbf" points="311,-95 311,-114 435,-114 435,-95 311,-95"/>
<text text-anchor="middle" x="373" y="-102" font-family="Helvetica,sans-Serif" font-size="10.00">vector&lt; orig_poly_t &gt;</text>
</a>
</g>
</g>
<!-- Node5&#45;&gt;Node8 -->
<g id="edge9" class="edge">
<title>Node5&#45;&gt;Node8</title>
<path fill="none" stroke="orange" stroke-dasharray="5,2" d="M278.4,-185.37C301.29,-182.38 327.75,-175.44 347,-160 361.55,-148.32 368.44,-126.53 371.28,-114.34"/>
<polygon fill="orange" stroke="orange" points="277.74,-181.92 268.17,-186.48 278.49,-188.88 277.74,-181.92"/>
<text text-anchor="middle" x="402" y="-146.5" font-family="Helvetica,sans-Serif" font-size="10.00"> &lt; orig_poly_t &gt;</text>
</g>
<!-- Node6 -->
<g id="node6" class="node">
<title>Node6</title>
<g id="a_node6"><a xlink:title=" ">
<polygon fill="white" stroke="#bfbfbf" points="215.5,-245.5 215.5,-264.5 244.5,-264.5 244.5,-245.5 215.5,-245.5"/>
<text text-anchor="middle" x="230" y="-252.5" font-family="Helvetica,sans-Serif" font-size="10.00">T</text>
</a>
</g>
</g>
<!-- Node6&#45;&gt;Node5 -->
<g id="edge5" class="edge">
<title>Node6&#45;&gt;Node5</title>
<path fill="none" stroke="#9a32cd" stroke-dasharray="5,2" d="M230,-235.04C230,-222.67 230,-207.12 230,-197.63"/>
<polygon fill="#9a32cd" stroke="#9a32cd" points="226.5,-235.23 230,-245.23 233.5,-235.23 226.5,-235.23"/>
<text text-anchor="middle" x="254.5" y="-219" font-family="Helvetica,sans-Serif" font-size="10.00"> elements</text>
</g>
<!-- Node7&#45;&gt;Node1 -->
<g id="edge6" class="edge">
<title>Node7&#45;&gt;Node1</title>
<path fill="none" stroke="#9a32cd" stroke-dasharray="5,2" d="M227,-79.07C227,-67.06 227,-52.79 227,-41.53"/>
<polygon fill="#9a32cd" stroke="#9a32cd" points="223.5,-79.3 227,-89.3 230.5,-79.3 223.5,-79.3"/>
<text text-anchor="middle" x="283" y="-63" font-family="Helvetica,sans-Serif" font-size="10.00"> generator_dimensions</text>
</g>
<!-- Node8&#45;&gt;Node1 -->
<g id="edge8" class="edge">
<title>Node8&#45;&gt;Node1</title>
<path fill="none" stroke="#9a32cd" stroke-dasharray="5,2" d="M364.49,-86.03C359.36,-77.12 352.07,-66.78 343,-60 328.23,-48.96 310.1,-41.04 292.61,-35.39"/>
<polygon fill="#9a32cd" stroke="#9a32cd" points="361.4,-87.69 369.18,-94.88 367.59,-84.41 361.4,-87.69"/>
<text text-anchor="middle" x="383.5" y="-63" font-family="Helvetica,sans-Serif" font-size="10.00"> _generators</text>
</g>
</g>
</svg>
