<?xml version="1.0" encoding="UTF-8" standalone="no"?>
<!DOCTYPE svg PUBLIC "-//W3C//DTD SVG 1.1//EN"
 "http://www.w3.org/Graphics/SVG/1.1/DTD/svg11.dtd">
<!-- Generated by graphviz version 2.43.0 (0)
 -->
<!-- Title: TwistedChernBasis&lt; xy_poly_t, chern_poly_t &gt; Pages: 1 -->
<svg width="622pt" height="79pt"
 viewBox="0.00 0.00 622.00 78.50" xmlns="http://www.w3.org/2000/svg" xmlns:xlink="http://www.w3.org/1999/xlink">
<g id="graph0" class="graph" transform="scale(1 1) rotate(0) translate(4 74.5)">
<title>TwistedChernBasis&lt; xy_poly_t, chern_poly_t &gt;</title>
<polygon fill="white" stroke="transparent" points="-4,4 -4,-74.5 618,-74.5 618,4 -4,4"/>
<!-- Node1 -->
<g id="node1" class="node">
<title>Node1</title>
<g id="a_node1"><a xlink:title="Class for half&#45;idempotent symmetric polynomials.">
<polygon fill="#bfbfbf" stroke="black" points="468,-11.5 468,-41.5 614,-41.5 614,-11.5 468,-11.5"/>
<text text-anchor="start" x="476" y="-29.5" font-family="Helvetica,sans-Serif" font-size="10.00">TwistedChernBasis&lt;</text>
<text text-anchor="middle" x="541" y="-18.5" font-family="Helvetica,sans-Serif" font-size="10.00"> xy_poly_t, chern_poly_t &gt;</text>
</a>
</g>
</g>
<!-- Node2 -->
<g id="node2" class="node">
<title>Node2</title>
<g id="a_node2"><a xlink:href="classsymmp_1_1PolynomialBasis.html" target="_top" xlink:title=" ">
<polygon fill="white" stroke="black" points="285,-0.5 285,-52.5 431,-52.5 431,-0.5 285,-0.5"/>
<text text-anchor="start" x="293" y="-40.5" font-family="Helvetica,sans-Serif" font-size="10.00">PolynomialBasis&lt; Twisted</text>
<text text-anchor="start" x="293" y="-29.5" font-family="Helvetica,sans-Serif" font-size="10.00">ChernBasis&lt; xy_poly_t,</text>
<text text-anchor="start" x="293" y="-18.5" font-family="Helvetica,sans-Serif" font-size="10.00"> chern_poly_t &gt;, xy_poly</text>
<text text-anchor="middle" x="358" y="-7.5" font-family="Helvetica,sans-Serif" font-size="10.00">_t, chern_poly_t &gt;</text>
</a>
</g>
</g>
<!-- Node2&#45;&gt;Node1 -->
<g id="edge1" class="edge">
<title>Node2&#45;&gt;Node1</title>
<path fill="none" stroke="midnightblue" d="M441.09,-26.5C450.03,-26.5 459.09,-26.5 467.9,-26.5"/>
<polygon fill="midnightblue" stroke="midnightblue" points="441.06,-23 431.06,-26.5 441.06,-30 441.06,-23"/>
</g>
<!-- Node3 -->
<g id="node3" class="node">
<title>Node3</title>
<g id="a_node3"><a xlink:href="classsymmp_1_1PolynomialBasis.html" target="_top" xlink:title="Factory class that provides the general interface of a generating basis for a subring of a polynomial...">
<polygon fill="white" stroke="black" points="0,-6 0,-47 131,-47 131,-6 0,-6"/>
<text text-anchor="start" x="8" y="-35" font-family="Helvetica,sans-Serif" font-size="10.00">PolynomialBasis&lt; spec</text>
<text text-anchor="start" x="8" y="-24" font-family="Helvetica,sans-Serif" font-size="10.00">_t, orig_poly_t, new</text>
<text text-anchor="middle" x="65.5" y="-13" font-family="Helvetica,sans-Serif" font-size="10.00">_poly_t &gt;</text>
</a>
</g>
</g>
<!-- Node3&#45;&gt;Node2 -->
<g id="edge2" class="edge">
<title>Node3&#45;&gt;Node2</title>
<path fill="none" stroke="orange" stroke-dasharray="5,2" d="M141.44,-26.5C185.64,-26.5 241.29,-26.5 284.97,-26.5"/>
<polygon fill="orange" stroke="orange" points="141.33,-23 131.33,-26.5 141.33,-30 141.33,-23"/>
<text text-anchor="start" x="149" y="-62.5" font-family="Helvetica,sans-Serif" font-size="10.00"> &lt; TwistedChernBasis</text>
<text text-anchor="start" x="149" y="-51.5" font-family="Helvetica,sans-Serif" font-size="10.00">&lt; xy_poly_t, chern_poly</text>
<text text-anchor="start" x="149" y="-40.5" font-family="Helvetica,sans-Serif" font-size="10.00">_t &gt;, xy_poly_t, chern</text>
<text text-anchor="middle" x="208" y="-29.5" font-family="Helvetica,sans-Serif" font-size="10.00">_poly_t &gt;</text>
</g>
</g>
</svg>
