<?xml version="1.0" encoding="UTF-8" standalone="no"?>
<!DOCTYPE svg PUBLIC "-//W3C//DTD SVG 1.1//EN"
 "http://www.w3.org/Graphics/SVG/1.1/DTD/svg11.dtd">
<!-- Generated by graphviz version 2.43.0 (0)
 -->
<!-- Title: DefaultContainer&lt; _scl, _exp, _cnt, _ord, _arg &gt; Pages: 1 -->
<svg width="278pt" height="196pt"
 viewBox="0.00 0.00 277.50 196.00" xmlns="http://www.w3.org/2000/svg" xmlns:xlink="http://www.w3.org/1999/xlink">
<g id="graph0" class="graph" transform="scale(1 1) rotate(0) translate(4 192)">
<title>DefaultContainer&lt; _scl, _exp, _cnt, _ord, _arg &gt;</title>
<polygon fill="white" stroke="transparent" points="-4,4 -4,-192 273.5,-192 273.5,4 -4,4"/>
<!-- Node1 -->
<g id="node1" class="node">
<title>Node1</title>
<g id="a_node1"><a xlink:title="The default ordered/unordered monomial container.">
<polygon fill="#bfbfbf" stroke="black" points="115,-0.5 115,-41.5 236,-41.5 236,-0.5 115,-0.5"/>
<text text-anchor="start" x="123" y="-29.5" font-family="Helvetica,sans-Serif" font-size="10.00">DefaultContainer&lt; </text>
<text text-anchor="start" x="123" y="-18.5" font-family="Helvetica,sans-Serif" font-size="10.00">_scl, _exp, _cnt, _ord,</text>
<text text-anchor="middle" x="175.5" y="-7.5" font-family="Helvetica,sans-Serif" font-size="10.00"> _arg &gt;</text>
</a>
</g>
</g>
<!-- Node2 -->
<g id="node2" class="node">
<title>Node2</title>
<g id="a_node2"><a xlink:href="classsymmp_1_1BaseContainer.html" target="_top" xlink:title=" ">
<polygon fill="white" stroke="black" points="1.5,-90.5 1.5,-109.5 135.5,-109.5 135.5,-90.5 1.5,-90.5"/>
<text text-anchor="middle" x="68.5" y="-97.5" font-family="Helvetica,sans-Serif" font-size="10.00">BaseContainer&lt; _exp &gt;</text>
</a>
</g>
</g>
<!-- Node2&#45;&gt;Node1 -->
<g id="edge1" class="edge">
<title>Node2&#45;&gt;Node1</title>
<path fill="none" stroke="midnightblue" d="M88.86,-84.35C105.63,-72.28 129.56,-55.06 148.03,-41.77"/>
<polygon fill="midnightblue" stroke="midnightblue" points="86.43,-81.78 80.36,-90.47 90.52,-87.47 86.43,-81.78"/>
</g>
<!-- Node3 -->
<g id="node3" class="node">
<title>Node3</title>
<g id="a_node3"><a xlink:href="classsymmp_1_1BaseContainer.html" target="_top" xlink:title="The base of all monomial containers.">
<polygon fill="white" stroke="black" points="0,-168.5 0,-187.5 137,-187.5 137,-168.5 0,-168.5"/>
<text text-anchor="middle" x="68.5" y="-175.5" font-family="Helvetica,sans-Serif" font-size="10.00">BaseContainer&lt; exp_t &gt;</text>
</a>
</g>
</g>
<!-- Node3&#45;&gt;Node2 -->
<g id="edge2" class="edge">
<title>Node3&#45;&gt;Node2</title>
<path fill="none" stroke="orange" stroke-dasharray="5,2" d="M68.5,-158.22C68.5,-142.7 68.5,-121.36 68.5,-109.62"/>
<polygon fill="orange" stroke="orange" points="65,-158.28 68.5,-168.28 72,-158.28 65,-158.28"/>
<text text-anchor="middle" x="93" y="-142" font-family="Helvetica,sans-Serif" font-size="10.00"> &lt; _exp &gt;</text>
</g>
<!-- Node4 -->
<g id="node4" class="node">
<title>Node4</title>
<g id="a_node4"><a xlink:title=" ">
<polygon fill="white" stroke="#bfbfbf" points="153.5,-79.5 153.5,-120.5 269.5,-120.5 269.5,-79.5 153.5,-79.5"/>
<text text-anchor="start" x="161.5" y="-108.5" font-family="Helvetica,sans-Serif" font-size="10.00">container_wrapper&lt;</text>
<text text-anchor="start" x="161.5" y="-97.5" font-family="Helvetica,sans-Serif" font-size="10.00"> _scl, _exp, _cnt, </text>
<text text-anchor="middle" x="211.5" y="-86.5" font-family="Helvetica,sans-Serif" font-size="10.00">_ord, _arg... &gt;</text>
</a>
</g>
</g>
<!-- Node4&#45;&gt;Node1 -->
<g id="edge3" class="edge">
<title>Node4&#45;&gt;Node1</title>
<path fill="none" stroke="#8b1a1a" d="M197.98,-70.09C193.57,-60.64 188.77,-50.38 184.74,-41.76"/>
<polygon fill="#8b1a1a" stroke="#8b1a1a" points="194.82,-71.59 202.23,-79.17 201.16,-68.63 194.82,-71.59"/>
</g>
</g>
</svg>
