<?xml version="1.0" encoding="UTF-8" standalone="no"?>
<!DOCTYPE svg PUBLIC "-//W3C//DTD SVG 1.1//EN"
 "http://www.w3.org/Graphics/SVG/1.1/DTD/svg11.dtd">
<!-- Generated by graphviz version 2.43.0 (0)
 -->
<!-- Title: SymmetricBasis&lt; x_poly_t, e_poly_t &gt; Pages: 1 -->
<svg width="201pt" height="229pt"
 viewBox="0.00 0.00 201.00 229.00" xmlns="http://www.w3.org/2000/svg" xmlns:xlink="http://www.w3.org/1999/xlink">
<g id="graph0" class="graph" transform="scale(1 1) rotate(0) translate(4 225)">
<title>SymmetricBasis&lt; x_poly_t, e_poly_t &gt;</title>
<polygon fill="white" stroke="transparent" points="-4,4 -4,-225 197,-225 197,4 -4,4"/>
<!-- Node1 -->
<g id="node1" class="node">
<title>Node1</title>
<g id="a_node1"><a xlink:title="Class for symmetric polynomials with no relations, allowing transformation from &#160;variables to &#160;variab...">
<polygon fill="#bfbfbf" stroke="black" points="11,-0.5 11,-30.5 151,-30.5 151,-0.5 11,-0.5"/>
<text text-anchor="start" x="19" y="-18.5" font-family="Helvetica,sans-Serif" font-size="10.00">SymmetricBasis&lt; x_poly</text>
<text text-anchor="middle" x="81" y="-7.5" font-family="Helvetica,sans-Serif" font-size="10.00">_t, e_poly_t &gt;</text>
</a>
</g>
</g>
<!-- Node2 -->
<g id="node2" class="node">
<title>Node2</title>
<g id="a_node2"><a xlink:href="classsymmp_1_1PolynomialBasis.html" target="_top" xlink:title=" ">
<polygon fill="white" stroke="black" points="0,-68.5 0,-109.5 162,-109.5 162,-68.5 0,-68.5"/>
<text text-anchor="start" x="8" y="-97.5" font-family="Helvetica,sans-Serif" font-size="10.00">PolynomialBasis&lt; Symmetric</text>
<text text-anchor="start" x="8" y="-86.5" font-family="Helvetica,sans-Serif" font-size="10.00">Basis&lt; x_poly_t, e_poly</text>
<text text-anchor="middle" x="81" y="-75.5" font-family="Helvetica,sans-Serif" font-size="10.00">_t &gt;, x_poly_t, e_poly_t &gt;</text>
</a>
</g>
</g>
<!-- Node2&#45;&gt;Node1 -->
<g id="edge1" class="edge">
<title>Node2&#45;&gt;Node1</title>
<path fill="none" stroke="midnightblue" d="M81,-58.16C81,-48.69 81,-38.65 81,-30.8"/>
<polygon fill="midnightblue" stroke="midnightblue" points="77.5,-58.46 81,-68.46 84.5,-58.46 77.5,-58.46"/>
</g>
<!-- Node3 -->
<g id="node3" class="node">
<title>Node3</title>
<g id="a_node3"><a xlink:href="classsymmp_1_1PolynomialBasis.html" target="_top" xlink:title="Factory class that provides the general interface of a generating basis for a subring of a polynomial...">
<polygon fill="white" stroke="black" points="15.5,-179.5 15.5,-220.5 146.5,-220.5 146.5,-179.5 15.5,-179.5"/>
<text text-anchor="start" x="23.5" y="-208.5" font-family="Helvetica,sans-Serif" font-size="10.00">PolynomialBasis&lt; spec</text>
<text text-anchor="start" x="23.5" y="-197.5" font-family="Helvetica,sans-Serif" font-size="10.00">_t, orig_poly_t, new</text>
<text text-anchor="middle" x="81" y="-186.5" font-family="Helvetica,sans-Serif" font-size="10.00">_poly_t &gt;</text>
</a>
</g>
</g>
<!-- Node3&#45;&gt;Node2 -->
<g id="edge2" class="edge">
<title>Node3&#45;&gt;Node2</title>
<path fill="none" stroke="orange" stroke-dasharray="5,2" d="M81,-169.05C81,-150.1 81,-126.14 81,-109.59"/>
<polygon fill="orange" stroke="orange" points="77.5,-169.26 81,-179.26 84.5,-169.26 77.5,-169.26"/>
<text text-anchor="start" x="81" y="-153" font-family="Helvetica,sans-Serif" font-size="10.00"> &lt; SymmetricBasis&lt; x</text>
<text text-anchor="start" x="81" y="-142" font-family="Helvetica,sans-Serif" font-size="10.00">_poly_t, e_poly_t &gt;,</text>
<text text-anchor="middle" x="137" y="-131" font-family="Helvetica,sans-Serif" font-size="10.00"> x_poly_t, e_poly_t &gt;</text>
</g>
</g>
</svg>
