<?xml version="1.0" encoding="UTF-8" standalone="no"?>
<!DOCTYPE svg PUBLIC "-//W3C//DTD SVG 1.1//EN"
 "http://www.w3.org/Graphics/SVG/1.1/DTD/svg11.dtd">
<!-- Generated by graphviz version 2.43.0 (0)
 -->
<!-- Title: TwistedChernBasis&lt; _xy_poly_t, _chern_poly_t &gt; Pages: 1 -->
<svg width="1304pt" height="188pt"
 viewBox="0.00 0.00 1304.00 187.50" xmlns="http://www.w3.org/2000/svg" xmlns:xlink="http://www.w3.org/1999/xlink">
<g id="graph0" class="graph" transform="scale(1 1) rotate(0) translate(4 183.5)">
<title>TwistedChernBasis&lt; _xy_poly_t, _chern_poly_t &gt;</title>
<polygon fill="white" stroke="transparent" points="-4,4 -4,-183.5 1300,-183.5 1300,4 -4,4"/>
<!-- Node1 -->
<g id="node1" class="node">
<title>Node1</title>
<g id="a_node1"><a xlink:title="Class for half&#45;idempotent symmetric polynomials, allowing transformation from &#160;variables to &#160;variable...">
<polygon fill="#bfbfbf" stroke="black" points="1180,-64 1180,-105 1296,-105 1296,-64 1180,-64"/>
<text text-anchor="start" x="1188" y="-93" font-family="Helvetica,sans-Serif" font-size="10.00">TwistedChernBasis&lt;</text>
<text text-anchor="start" x="1188" y="-82" font-family="Helvetica,sans-Serif" font-size="10.00"> _xy_poly_t, _chern</text>
<text text-anchor="middle" x="1238" y="-71" font-family="Helvetica,sans-Serif" font-size="10.00">_poly_t &gt;</text>
</a>
</g>
</g>
<!-- Node2 -->
<g id="node2" class="node">
<title>Node2</title>
<g id="a_node2"><a xlink:href="classsymmp_1_1PolynomialBasis.html" target="_top" xlink:title=" ">
<polygon fill="white" stroke="black" points="995,-58.5 995,-110.5 1143,-110.5 1143,-58.5 995,-58.5"/>
<text text-anchor="start" x="1003" y="-98.5" font-family="Helvetica,sans-Serif" font-size="10.00">PolynomialBasis&lt; Twisted</text>
<text text-anchor="start" x="1003" y="-87.5" font-family="Helvetica,sans-Serif" font-size="10.00">ChernBasis&lt; _xy_poly_t,</text>
<text text-anchor="start" x="1003" y="-76.5" font-family="Helvetica,sans-Serif" font-size="10.00"> _chern_poly_t &gt;, _xy_poly</text>
<text text-anchor="middle" x="1069" y="-65.5" font-family="Helvetica,sans-Serif" font-size="10.00">_t, _chern_poly_t &gt;</text>
</a>
</g>
</g>
<!-- Node2&#45;&gt;Node1 -->
<g id="edge1" class="edge">
<title>Node2&#45;&gt;Node1</title>
<path fill="none" stroke="midnightblue" d="M1153.36,-84.5C1162.33,-84.5 1171.31,-84.5 1179.87,-84.5"/>
<polygon fill="midnightblue" stroke="midnightblue" points="1153.25,-81 1143.25,-84.5 1153.25,-88 1153.25,-81"/>
</g>
<!-- Node3 -->
<g id="node3" class="node">
<title>Node3</title>
<g id="a_node3"><a xlink:title=" ">
<polygon fill="white" stroke="#bfbfbf" points="579,-141 579,-160 701,-160 701,-141 579,-141"/>
<text text-anchor="middle" x="640" y="-148" font-family="Helvetica,sans-Serif" font-size="10.00">vector&lt; _xy_poly_t &gt;</text>
</a>
</g>
</g>
<!-- Node3&#45;&gt;Node2 -->
<g id="edge2" class="edge">
<title>Node3&#45;&gt;Node2</title>
<path fill="none" stroke="#9a32cd" stroke-dasharray="5,2" d="M711.58,-153.65C780.45,-154.92 887.62,-152.08 977,-128.5 992.44,-124.43 1008.4,-117.69 1022.56,-110.7"/>
<polygon fill="#9a32cd" stroke="#9a32cd" points="711.36,-150.14 701.29,-153.42 711.21,-157.14 711.36,-150.14"/>
<text text-anchor="middle" x="784.5" y="-156.5" font-family="Helvetica,sans-Serif" font-size="10.00"> _generators</text>
</g>
<!-- Node4 -->
<g id="node4" class="node">
<title>Node4</title>
<g id="a_node4"><a xlink:title="STL class.">
<polygon fill="white" stroke="#bfbfbf" points="204,-70 204,-89 280,-89 280,-70 204,-70"/>
<text text-anchor="middle" x="242" y="-77" font-family="Helvetica,sans-Serif" font-size="10.00">vector&lt; T &gt;</text>
</a>
</g>
</g>
<!-- Node4&#45;&gt;Node3 -->
<g id="edge3" class="edge">
<title>Node4&#45;&gt;Node3</title>
<path fill="none" stroke="orange" stroke-dasharray="5,2" d="M268.18,-94.02C277.31,-98.7 287.87,-103.45 298,-106.5 393.6,-135.27 509.83,-145.23 578.93,-148.68"/>
<polygon fill="orange" stroke="orange" points="269.74,-90.88 259.27,-89.25 266.44,-97.06 269.74,-90.88"/>
<text text-anchor="middle" x="355" y="-133.5" font-family="Helvetica,sans-Serif" font-size="10.00"> &lt; _xy_poly_t &gt;</text>
</g>
<!-- Node6 -->
<g id="node6" class="node">
<title>Node6</title>
<g id="a_node6"><a xlink:title=" ">
<polygon fill="white" stroke="#bfbfbf" points="436,-88 436,-107 555,-107 555,-88 436,-88"/>
<text text-anchor="middle" x="495.5" y="-95" font-family="Helvetica,sans-Serif" font-size="10.00">vector&lt; std::string &gt;</text>
</a>
</g>
</g>
<!-- Node4&#45;&gt;Node6 -->
<g id="edge8" class="edge">
<title>Node4&#45;&gt;Node6</title>
<path fill="none" stroke="orange" stroke-dasharray="5,2" d="M290.16,-82.88C331.39,-85.83 391.42,-90.12 435.75,-93.3"/>
<polygon fill="orange" stroke="orange" points="290.33,-79.38 280.11,-82.16 289.83,-86.36 290.33,-79.38"/>
<text text-anchor="middle" x="355" y="-94.5" font-family="Helvetica,sans-Serif" font-size="10.00"> &lt; std::string &gt;</text>
</g>
<!-- Node9 -->
<g id="node9" class="node">
<title>Node9</title>
<g id="a_node9"><a xlink:title=" ">
<polygon fill="white" stroke="#bfbfbf" points="430,-0.5 430,-30.5 561,-30.5 561,-0.5 430,-0.5"/>
<text text-anchor="start" x="438" y="-18.5" font-family="Helvetica,sans-Serif" font-size="10.00">vector&lt; typename new</text>
<text text-anchor="middle" x="495.5" y="-7.5" font-family="Helvetica,sans-Serif" font-size="10.00">_poly_t::deg_t &gt;</text>
</a>
</g>
</g>
<!-- Node4&#45;&gt;Node9 -->
<g id="edge10" class="edge">
<title>Node4&#45;&gt;Node9</title>
<path fill="none" stroke="orange" stroke-dasharray="5,2" d="M258.93,-62.61C269.12,-52.94 283.17,-41.56 298,-35.5 339.74,-18.44 390.45,-13.63 429.89,-12.98"/>
<polygon fill="orange" stroke="orange" points="256.26,-60.32 251.65,-69.86 261.2,-65.28 256.26,-60.32"/>
<text text-anchor="start" x="298" y="-49.5" font-family="Helvetica,sans-Serif" font-size="10.00"> &lt; typename new_poly</text>
<text text-anchor="middle" x="355" y="-38.5" font-family="Helvetica,sans-Serif" font-size="10.00">_t::deg_t &gt;</text>
</g>
<!-- Node11 -->
<g id="node11" class="node">
<title>Node11</title>
<g id="a_node11"><a xlink:title=" ">
<polygon fill="white" stroke="#bfbfbf" points="433.5,-50 433.5,-69 557.5,-69 557.5,-50 433.5,-50"/>
<text text-anchor="middle" x="495.5" y="-57" font-family="Helvetica,sans-Serif" font-size="10.00">vector&lt; orig_poly_t &gt;</text>
</a>
</g>
</g>
<!-- Node4&#45;&gt;Node11 -->
<g id="edge15" class="edge">
<title>Node4&#45;&gt;Node11</title>
<path fill="none" stroke="orange" stroke-dasharray="5,2" d="M290.27,-70.5C292.88,-70.13 295.47,-69.79 298,-69.5 343.13,-64.27 394.4,-61.78 433.26,-60.59"/>
<polygon fill="orange" stroke="orange" points="289.52,-67.08 280.18,-72.07 290.6,-73.99 289.52,-67.08"/>
<text text-anchor="middle" x="355" y="-72.5" font-family="Helvetica,sans-Serif" font-size="10.00"> &lt; orig_poly_t &gt;</text>
</g>
<!-- Node5 -->
<g id="node5" class="node">
<title>Node5</title>
<g id="a_node5"><a xlink:title=" ">
<polygon fill="white" stroke="#bfbfbf" points="45,-70 45,-89 74,-89 74,-70 45,-70"/>
<text text-anchor="middle" x="59.5" y="-77" font-family="Helvetica,sans-Serif" font-size="10.00">T</text>
</a>
</g>
</g>
<!-- Node5&#45;&gt;Node4 -->
<g id="edge4" class="edge">
<title>Node5&#45;&gt;Node4</title>
<path fill="none" stroke="#9a32cd" stroke-dasharray="5,2" d="M84.18,-79.5C114.61,-79.5 167.8,-79.5 203.7,-79.5"/>
<polygon fill="#9a32cd" stroke="#9a32cd" points="84.07,-76 74.07,-79.5 84.07,-83 84.07,-76"/>
<text text-anchor="middle" x="161.5" y="-82.5" font-family="Helvetica,sans-Serif" font-size="10.00"> elements</text>
</g>
<!-- Node6&#45;&gt;Node2 -->
<g id="edge5" class="edge">
<title>Node6&#45;&gt;Node2</title>
<path fill="none" stroke="#9a32cd" stroke-dasharray="5,2" d="M565.24,-101.94C658.66,-107.06 830.81,-113.25 977,-100.5 982.75,-100 988.69,-99.32 994.64,-98.53"/>
<polygon fill="#9a32cd" stroke="#9a32cd" points="565.25,-98.44 555.07,-101.37 564.86,-105.43 565.25,-98.44"/>
<text text-anchor="middle" x="784.5" y="-110.5" font-family="Helvetica,sans-Serif" font-size="10.00"> generator_names</text>
</g>
<!-- Node10 -->
<g id="node10" class="node">
<title>Node10</title>
<g id="a_node10"><a xlink:href="classsymmp_1_1PolynomialBasis.html" target="_top" xlink:title="Factory class that provides the general interface of a generating basis for a subring of a polynomial...">
<polygon fill="white" stroke="black" points="719,-34 719,-75 850,-75 850,-34 719,-34"/>
<text text-anchor="start" x="727" y="-63" font-family="Helvetica,sans-Serif" font-size="10.00">PolynomialBasis&lt; spec</text>
<text text-anchor="start" x="727" y="-52" font-family="Helvetica,sans-Serif" font-size="10.00">_t, orig_poly_t, new</text>
<text text-anchor="middle" x="784.5" y="-41" font-family="Helvetica,sans-Serif" font-size="10.00">_poly_t &gt;</text>
</a>
</g>
</g>
<!-- Node6&#45;&gt;Node10 -->
<g id="edge12" class="edge">
<title>Node6&#45;&gt;Node10</title>
<path fill="none" stroke="#9a32cd" stroke-dasharray="5,2" d="M565.28,-87.19C611.89,-80.21 673.09,-71.04 718.81,-64.19"/>
<polygon fill="#9a32cd" stroke="#9a32cd" points="564.64,-83.75 555.27,-88.69 565.68,-90.67 564.64,-83.75"/>
<text text-anchor="middle" x="640" y="-88.5" font-family="Helvetica,sans-Serif" font-size="10.00"> generator_names</text>
</g>
<!-- Node7 -->
<g id="node7" class="node">
<title>Node7</title>
<g id="a_node7"><a xlink:title="STL class.">
<polygon fill="white" stroke="#bfbfbf" points="220,-160 220,-179 264,-179 264,-160 220,-160"/>
<text text-anchor="middle" x="242" y="-167" font-family="Helvetica,sans-Serif" font-size="10.00">string</text>
</a>
</g>
</g>
<!-- Node7&#45;&gt;Node6 -->
<g id="edge6" class="edge">
<title>Node7&#45;&gt;Node6</title>
<path fill="none" stroke="#9a32cd" stroke-dasharray="5,2" d="M274.62,-169.25C309.26,-168.1 366.02,-163.62 412,-147.5 439.18,-137.97 467.08,-118.68 482.46,-107.04"/>
<polygon fill="#9a32cd" stroke="#9a32cd" points="274.1,-165.76 264.19,-169.52 274.28,-172.76 274.1,-165.76"/>
<text text-anchor="middle" x="355" y="-170.5" font-family="Helvetica,sans-Serif" font-size="10.00"> elements</text>
</g>
<!-- Node8 -->
<g id="node8" class="node">
<title>Node8</title>
<g id="a_node8"><a xlink:title="STL class.">
<polygon fill="white" stroke="#bfbfbf" points="0,-160 0,-179 119,-179 119,-160 0,-160"/>
<text text-anchor="middle" x="59.5" y="-167" font-family="Helvetica,sans-Serif" font-size="10.00">basic_string&lt; char &gt;</text>
</a>
</g>
</g>
<!-- Node8&#45;&gt;Node7 -->
<g id="edge7" class="edge">
<title>Node8&#45;&gt;Node7</title>
<path fill="none" stroke="midnightblue" d="M129.42,-169.5C161.67,-169.5 197.78,-169.5 219.95,-169.5"/>
<polygon fill="midnightblue" stroke="midnightblue" points="129.1,-166 119.1,-169.5 129.1,-173 129.1,-166"/>
</g>
<!-- Node9&#45;&gt;Node2 -->
<g id="edge9" class="edge">
<title>Node9&#45;&gt;Node2</title>
<path fill="none" stroke="#9a32cd" stroke-dasharray="5,2" d="M571.38,-14.66C614.54,-14.22 669.83,-13.72 719,-13.5 777.22,-13.24 792.25,-6.12 850,-13.5 907.85,-20.89 921.73,-27.88 977,-46.5 987.38,-50 998.26,-54.12 1008.74,-58.34"/>
<polygon fill="#9a32cd" stroke="#9a32cd" points="571.21,-11.16 561.24,-14.76 571.28,-18.16 571.21,-11.16"/>
<text text-anchor="middle" x="784.5" y="-16.5" font-family="Helvetica,sans-Serif" font-size="10.00"> generator_dimensions</text>
</g>
<!-- Node9&#45;&gt;Node10 -->
<g id="edge13" class="edge">
<title>Node9&#45;&gt;Node10</title>
<path fill="none" stroke="#9a32cd" stroke-dasharray="5,2" d="M571.27,-23.13C610.06,-27.38 658.16,-33.1 701,-39.5 706.76,-40.36 712.73,-41.32 718.71,-42.32"/>
<polygon fill="#9a32cd" stroke="#9a32cd" points="571.43,-19.63 561.11,-22.03 570.67,-26.59 571.43,-19.63"/>
<text text-anchor="middle" x="640" y="-42.5" font-family="Helvetica,sans-Serif" font-size="10.00"> generator_dimensions</text>
</g>
<!-- Node10&#45;&gt;Node2 -->
<g id="edge11" class="edge">
<title>Node10&#45;&gt;Node2</title>
<path fill="none" stroke="orange" stroke-dasharray="5,2" d="M860.44,-50.32C895.97,-49.6 938.88,-50.56 977,-56.5 982.88,-57.42 988.91,-58.63 994.92,-60.03"/>
<polygon fill="orange" stroke="orange" points="860.06,-46.83 850.15,-50.58 860.23,-53.82 860.06,-46.83"/>
<text text-anchor="start" x="868" y="-92.5" font-family="Helvetica,sans-Serif" font-size="10.00"> &lt; TwistedChernBasis</text>
<text text-anchor="start" x="868" y="-81.5" font-family="Helvetica,sans-Serif" font-size="10.00">&lt; _xy_poly_t, _chern</text>
<text text-anchor="start" x="868" y="-70.5" font-family="Helvetica,sans-Serif" font-size="10.00">_poly_t &gt;, _xy_poly_t,</text>
<text text-anchor="middle" x="922.5" y="-59.5" font-family="Helvetica,sans-Serif" font-size="10.00"> _chern_poly_t &gt;</text>
</g>
<!-- Node11&#45;&gt;Node10 -->
<g id="edge14" class="edge">
<title>Node11&#45;&gt;Node10</title>
<path fill="none" stroke="#9a32cd" stroke-dasharray="5,2" d="M567.82,-55.85C571.6,-55.72 575.34,-55.6 579,-55.5 625.67,-54.26 678.35,-54.03 718.56,-54.1"/>
<polygon fill="#9a32cd" stroke="#9a32cd" points="567.62,-52.35 557.76,-56.23 567.89,-59.35 567.62,-52.35"/>
<text text-anchor="middle" x="640" y="-58.5" font-family="Helvetica,sans-Serif" font-size="10.00"> _generators</text>
</g>
</g>
</svg>
