<?xml version="1.0" encoding="UTF-8" standalone="no"?>
<!DOCTYPE svg PUBLIC "-//W3C//DTD SVG 1.1//EN"
 "http://www.w3.org/Graphics/SVG/1.1/DTD/svg11.dtd">
<!-- Generated by graphviz version 2.43.0 (0)
 -->
<!-- Title: highest_term Pages: 1 -->
<svg width="169pt" height="66pt"
 viewBox="0.00 0.00 169.00 66.00" xmlns="http://www.w3.org/2000/svg" xmlns:xlink="http://www.w3.org/1999/xlink">
<g id="graph0" class="graph" transform="scale(1 1) rotate(0) translate(4 62)">
<title>highest_term</title>
<polygon fill="white" stroke="transparent" points="-4,4 -4,-62 165,-62 165,4 -4,4"/>
<!-- Node1 -->
<g id="node1" class="node">
<title>Node1</title>
<g id="a_node1"><a xlink:title="constIterator to the highest term monomial">
<polygon fill="#bfbfbf" stroke="black" points="0,-19.5 0,-38.5 81,-38.5 81,-19.5 0,-19.5"/>
<text text-anchor="middle" x="40.5" y="-26.5" font-family="Helvetica,sans-Serif" font-size="10.00">highest_term</text>
</a>
</g>
</g>
<!-- Node2 -->
<g id="node2" class="node">
<title>Node2</title>
<g id="a_node2"><a xlink:href="classsymmp_1_1Polynomial.html#ad5c959a538216a09ab28c5283585956c" target="_top" xlink:title="constIterator to the beginning">
<polygon fill="white" stroke="black" points="117,-38.5 117,-57.5 161,-57.5 161,-38.5 117,-38.5"/>
<text text-anchor="middle" x="139" y="-45.5" font-family="Helvetica,sans-Serif" font-size="10.00">begin</text>
</a>
</g>
</g>
<!-- Node1&#45;&gt;Node2 -->
<g id="edge1" class="edge">
<title>Node1&#45;&gt;Node2</title>
<path fill="none" stroke="midnightblue" d="M81.03,-36.78C89.67,-38.48 98.69,-40.26 106.94,-41.88"/>
<polygon fill="midnightblue" stroke="midnightblue" points="106.4,-45.35 116.89,-43.84 107.76,-38.48 106.4,-45.35"/>
</g>
<!-- Node3 -->
<g id="node3" class="node">
<title>Node3</title>
<g id="a_node3"><a xlink:href="classsymmp_1_1Polynomial.html#ae11e60e117300685401961e36f196f7a" target="_top" xlink:title="constIterator to the end">
<polygon fill="white" stroke="black" points="121.5,-0.5 121.5,-19.5 156.5,-19.5 156.5,-0.5 121.5,-0.5"/>
<text text-anchor="middle" x="139" y="-7.5" font-family="Helvetica,sans-Serif" font-size="10.00">end</text>
</a>
</g>
</g>
<!-- Node1&#45;&gt;Node3 -->
<g id="edge2" class="edge">
<title>Node1&#45;&gt;Node3</title>
<path fill="none" stroke="midnightblue" d="M81.03,-21.22C91.16,-19.22 101.83,-17.12 111.16,-15.29"/>
<polygon fill="midnightblue" stroke="midnightblue" points="111.88,-18.71 121.02,-13.34 110.53,-11.84 111.88,-18.71"/>
</g>
</g>
</svg>
