<?xml version="1.0" encoding="UTF-8" standalone="no"?>
<!DOCTYPE svg PUBLIC "-//W3C//DTD SVG 1.1//EN"
 "http://www.w3.org/Graphics/SVG/1.1/DTD/svg11.dtd">
<!-- Generated by graphviz version 2.43.0 (0)
 -->
<!-- Title: TwistedChernBasis&lt; xy_poly_t, chern_poly_t &gt; Pages: 1 -->
<!--zoomable 188 -->
<svg id="main" version="1.1" xmlns="http://www.w3.org/2000/svg" xmlns:xlink="http://www.w3.org/1999/xlink" xml:space="preserve" onload="init(evt)">
<style type="text/css"><![CDATA[
.edge:hover path { stroke: red; }
.edge:hover polygon { stroke: red; fill: red; }
]]></style>
<script type="text/javascript"><![CDATA[
var edges = document.getElementsByTagName('g');
if (edges && edges.length) {
  for (var i=0;i<edges.length;i++) {
    if (edges[i].id.substr(0,4)=='edge') {
      edges[i].setAttribute('class','edge');
    }
  }
}
]]></script>
        <defs>
                <circle id="rim" cx="0" cy="0" r="7"/>
                <circle id="rim2" cx="0" cy="0" r="3.5"/>
                <g id="zoomPlus">
                        <use xlink:href="#rim" fill="#404040">
                                <set attributeName="fill" to="#808080" begin="zoomplus.mouseover" end="zoomplus.mouseout"/>
                        </use>
                        <path d="M-4,0h8M0,-4v8" fill="none" stroke="white" stroke-width="1.5" pointer-events="none"/>
                </g>
                <g id="zoomMin">
                        <use xlink:href="#rim" fill="#404040">
                                <set attributeName="fill" to="#808080" begin="zoomminus.mouseover" end="zoomminus.mouseout"/>
                        </use>
                        <path d="M-4,0h8" fill="none" stroke="white" stroke-width="1.5" pointer-events="none"/>
                </g>
                <g id="dirArrow">
                        <path fill="none" stroke="white" stroke-width="1.5" d="M0,-3.0v7 M-2.5,-0.5L0,-3.0L2.5,-0.5"/>
                </g>
               <g id="resetDef">
                       <use xlink:href="#rim2" fill="#404040">
                               <set attributeName="fill" to="#808080" begin="reset.mouseover" end="reset.mouseout"/>
                       </use>
               </g>
        </defs>

<script type="text/javascript">
var viewWidth = 1336;
var viewHeight = 188;
var sectionId = 'dynsection-1';
</script>
<script xlink:href="svgpan.js"/>
<svg id="graph" class="graph">
<g id="viewport">
<title>TwistedChernBasis&lt; xy_poly_t, chern_poly_t &gt;</title>
<polygon fill="white" stroke="transparent" points="-4,4 -4,-183.5 1332,-183.5 1332,4 -4,4"/>
<!-- Node1 -->
<g id="node1" class="node">
<title>Node1</title>
<g id="a_node1"><a xlink:title="Class for half&#45;idempotent symmetric polynomials.">
<polygon fill="#bfbfbf" stroke="black" points="1182,-69.5 1182,-99.5 1328,-99.5 1328,-69.5 1182,-69.5"/>
<text text-anchor="start" x="1190" y="-87.5" font-family="Helvetica,sans-Serif" font-size="10.00">TwistedChernBasis&lt;</text>
<text text-anchor="middle" x="1255" y="-76.5" font-family="Helvetica,sans-Serif" font-size="10.00"> xy_poly_t, chern_poly_t &gt;</text>
</a>
</g>
</g>
<!-- Node2 -->
<g id="node2" class="node">
<title>Node2</title>
<g id="a_node2"><a xlink:href="classsymmp_1_1PolynomialBasis.html" target="_top" xlink:title=" ">
<polygon fill="white" stroke="black" points="999,-58.5 999,-110.5 1145,-110.5 1145,-58.5 999,-58.5"/>
<text text-anchor="start" x="1007" y="-98.5" font-family="Helvetica,sans-Serif" font-size="10.00">PolynomialBasis&lt; Twisted</text>
<text text-anchor="start" x="1007" y="-87.5" font-family="Helvetica,sans-Serif" font-size="10.00">ChernBasis&lt; xy_poly_t,</text>
<text text-anchor="start" x="1007" y="-76.5" font-family="Helvetica,sans-Serif" font-size="10.00"> chern_poly_t &gt;, xy_poly</text>
<text text-anchor="middle" x="1072" y="-65.5" font-family="Helvetica,sans-Serif" font-size="10.00">_t, chern_poly_t &gt;</text>
</a>
</g>
</g>
<!-- Node2&#45;&gt;Node1 -->
<g id="edge1" class="edge">
<title>Node2&#45;&gt;Node1</title>
<path fill="none" stroke="midnightblue" d="M1155.09,-84.5C1164.03,-84.5 1173.09,-84.5 1181.9,-84.5"/>
<polygon fill="midnightblue" stroke="midnightblue" points="1155.06,-81 1145.06,-84.5 1155.06,-88 1155.06,-81"/>
</g>
<!-- Node3 -->
<g id="node3" class="node">
<title>Node3</title>
<g id="a_node3"><a xlink:title=" ">
<polygon fill="white" stroke="#bfbfbf" points="579,-141 579,-160 696,-160 696,-141 579,-141"/>
<text text-anchor="middle" x="637.5" y="-148" font-family="Helvetica,sans-Serif" font-size="10.00">vector&lt; xy_poly_t &gt;</text>
</a>
</g>
</g>
<!-- Node3&#45;&gt;Node2 -->
<g id="edge2" class="edge">
<title>Node3&#45;&gt;Node2</title>
<path fill="none" stroke="#9a32cd" stroke-dasharray="5,2" d="M706.27,-153.82C776.28,-155.48 888.1,-153.16 981,-128.5 996.3,-124.44 1012.09,-117.71 1026.1,-110.71"/>
<polygon fill="#9a32cd" stroke="#9a32cd" points="706.35,-150.32 696.26,-153.55 706.16,-157.32 706.35,-150.32"/>
<text text-anchor="middle" x="779.5" y="-156.5" font-family="Helvetica,sans-Serif" font-size="10.00"> _generators</text>
</g>
<!-- Node4 -->
<g id="node4" class="node">
<title>Node4</title>
<g id="a_node4"><a xlink:title="STL class.">
<polygon fill="white" stroke="#bfbfbf" points="204,-70 204,-89 280,-89 280,-70 204,-70"/>
<text text-anchor="middle" x="242" y="-77" font-family="Helvetica,sans-Serif" font-size="10.00">vector&lt; T &gt;</text>
</a>
</g>
</g>
<!-- Node4&#45;&gt;Node3 -->
<g id="edge3" class="edge">
<title>Node4&#45;&gt;Node3</title>
<path fill="none" stroke="orange" stroke-dasharray="5,2" d="M268.18,-94.02C277.31,-98.69 287.87,-103.45 298,-106.5 393.75,-135.37 510.35,-145.29 578.71,-148.71"/>
<polygon fill="orange" stroke="orange" points="269.74,-90.88 259.27,-89.25 266.44,-97.05 269.74,-90.88"/>
<text text-anchor="middle" x="355" y="-133.5" font-family="Helvetica,sans-Serif" font-size="10.00"> &lt; xy_poly_t &gt;</text>
</g>
<!-- Node6 -->
<g id="node6" class="node">
<title>Node6</title>
<g id="a_node6"><a xlink:title=" ">
<polygon fill="white" stroke="#bfbfbf" points="436,-88 436,-107 555,-107 555,-88 436,-88"/>
<text text-anchor="middle" x="495.5" y="-95" font-family="Helvetica,sans-Serif" font-size="10.00">vector&lt; std::string &gt;</text>
</a>
</g>
</g>
<!-- Node4&#45;&gt;Node6 -->
<g id="edge8" class="edge">
<title>Node4&#45;&gt;Node6</title>
<path fill="none" stroke="orange" stroke-dasharray="5,2" d="M290.16,-82.88C331.39,-85.83 391.42,-90.12 435.75,-93.3"/>
<polygon fill="orange" stroke="orange" points="290.33,-79.38 280.11,-82.16 289.83,-86.36 290.33,-79.38"/>
<text text-anchor="middle" x="355" y="-94.5" font-family="Helvetica,sans-Serif" font-size="10.00"> &lt; std::string &gt;</text>
</g>
<!-- Node9 -->
<g id="node9" class="node">
<title>Node9</title>
<g id="a_node9"><a xlink:title=" ">
<polygon fill="white" stroke="#bfbfbf" points="430,-0.5 430,-30.5 561,-30.5 561,-0.5 430,-0.5"/>
<text text-anchor="start" x="438" y="-18.5" font-family="Helvetica,sans-Serif" font-size="10.00">vector&lt; typename new</text>
<text text-anchor="middle" x="495.5" y="-7.5" font-family="Helvetica,sans-Serif" font-size="10.00">_poly_t::deg_t &gt;</text>
</a>
</g>
</g>
<!-- Node4&#45;&gt;Node9 -->
<g id="edge10" class="edge">
<title>Node4&#45;&gt;Node9</title>
<path fill="none" stroke="orange" stroke-dasharray="5,2" d="M258.93,-62.61C269.12,-52.94 283.17,-41.56 298,-35.5 339.74,-18.44 390.45,-13.63 429.89,-12.98"/>
<polygon fill="orange" stroke="orange" points="256.26,-60.32 251.65,-69.86 261.2,-65.28 256.26,-60.32"/>
<text text-anchor="start" x="298" y="-49.5" font-family="Helvetica,sans-Serif" font-size="10.00"> &lt; typename new_poly</text>
<text text-anchor="middle" x="355" y="-38.5" font-family="Helvetica,sans-Serif" font-size="10.00">_t::deg_t &gt;</text>
</g>
<!-- Node11 -->
<g id="node11" class="node">
<title>Node11</title>
<g id="a_node11"><a xlink:title=" ">
<polygon fill="white" stroke="#bfbfbf" points="433.5,-50 433.5,-69 557.5,-69 557.5,-50 433.5,-50"/>
<text text-anchor="middle" x="495.5" y="-57" font-family="Helvetica,sans-Serif" font-size="10.00">vector&lt; orig_poly_t &gt;</text>
</a>
</g>
</g>
<!-- Node4&#45;&gt;Node11 -->
<g id="edge15" class="edge">
<title>Node4&#45;&gt;Node11</title>
<path fill="none" stroke="orange" stroke-dasharray="5,2" d="M290.27,-70.5C292.88,-70.13 295.47,-69.79 298,-69.5 343.13,-64.27 394.4,-61.78 433.26,-60.59"/>
<polygon fill="orange" stroke="orange" points="289.52,-67.08 280.18,-72.07 290.6,-73.99 289.52,-67.08"/>
<text text-anchor="middle" x="355" y="-72.5" font-family="Helvetica,sans-Serif" font-size="10.00"> &lt; orig_poly_t &gt;</text>
</g>
<!-- Node5 -->
<g id="node5" class="node">
<title>Node5</title>
<g id="a_node5"><a xlink:title=" ">
<polygon fill="white" stroke="#bfbfbf" points="45,-70 45,-89 74,-89 74,-70 45,-70"/>
<text text-anchor="middle" x="59.5" y="-77" font-family="Helvetica,sans-Serif" font-size="10.00">T</text>
</a>
</g>
</g>
<!-- Node5&#45;&gt;Node4 -->
<g id="edge4" class="edge">
<title>Node5&#45;&gt;Node4</title>
<path fill="none" stroke="#9a32cd" stroke-dasharray="5,2" d="M84.18,-79.5C114.61,-79.5 167.8,-79.5 203.7,-79.5"/>
<polygon fill="#9a32cd" stroke="#9a32cd" points="84.07,-76 74.07,-79.5 84.07,-83 84.07,-76"/>
<text text-anchor="middle" x="161.5" y="-82.5" font-family="Helvetica,sans-Serif" font-size="10.00"> elements</text>
</g>
<!-- Node6&#45;&gt;Node2 -->
<g id="edge5" class="edge">
<title>Node6&#45;&gt;Node2</title>
<path fill="none" stroke="#9a32cd" stroke-dasharray="5,2" d="M565.43,-101.99C659.54,-107.2 833.41,-113.52 981,-100.5 986.85,-99.98 992.89,-99.28 998.94,-98.46"/>
<polygon fill="#9a32cd" stroke="#9a32cd" points="565.37,-98.48 555.19,-101.41 564.98,-105.47 565.37,-98.48"/>
<text text-anchor="middle" x="779.5" y="-110.5" font-family="Helvetica,sans-Serif" font-size="10.00"> generator_names</text>
</g>
<!-- Node10 -->
<g id="node10" class="node">
<title>Node10</title>
<g id="a_node10"><a xlink:href="classsymmp_1_1PolynomialBasis.html" target="_top" xlink:title="Factory class that provides the general interface of a generating basis for a subring of a polynomial...">
<polygon fill="white" stroke="black" points="714,-34 714,-75 845,-75 845,-34 714,-34"/>
<text text-anchor="start" x="722" y="-63" font-family="Helvetica,sans-Serif" font-size="10.00">PolynomialBasis&lt; spec</text>
<text text-anchor="start" x="722" y="-52" font-family="Helvetica,sans-Serif" font-size="10.00">_t, orig_poly_t, new</text>
<text text-anchor="middle" x="779.5" y="-41" font-family="Helvetica,sans-Serif" font-size="10.00">_poly_t &gt;</text>
</a>
</g>
</g>
<!-- Node6&#45;&gt;Node10 -->
<g id="edge12" class="edge">
<title>Node6&#45;&gt;Node10</title>
<path fill="none" stroke="#9a32cd" stroke-dasharray="5,2" d="M565.3,-87.01C610.59,-80.1 669.49,-71.12 713.9,-64.35"/>
<polygon fill="#9a32cd" stroke="#9a32cd" points="564.63,-83.57 555.27,-88.54 565.69,-90.49 564.63,-83.57"/>
<text text-anchor="middle" x="637.5" y="-88.5" font-family="Helvetica,sans-Serif" font-size="10.00"> generator_names</text>
</g>
<!-- Node7 -->
<g id="node7" class="node">
<title>Node7</title>
<g id="a_node7"><a xlink:title="STL class.">
<polygon fill="white" stroke="#bfbfbf" points="220,-160 220,-179 264,-179 264,-160 220,-160"/>
<text text-anchor="middle" x="242" y="-167" font-family="Helvetica,sans-Serif" font-size="10.00">string</text>
</a>
</g>
</g>
<!-- Node7&#45;&gt;Node6 -->
<g id="edge6" class="edge">
<title>Node7&#45;&gt;Node6</title>
<path fill="none" stroke="#9a32cd" stroke-dasharray="5,2" d="M274.62,-169.25C309.26,-168.1 366.02,-163.62 412,-147.5 439.18,-137.97 467.08,-118.68 482.46,-107.04"/>
<polygon fill="#9a32cd" stroke="#9a32cd" points="274.1,-165.76 264.19,-169.52 274.28,-172.76 274.1,-165.76"/>
<text text-anchor="middle" x="355" y="-170.5" font-family="Helvetica,sans-Serif" font-size="10.00"> elements</text>
</g>
<!-- Node8 -->
<g id="node8" class="node">
<title>Node8</title>
<g id="a_node8"><a xlink:title="STL class.">
<polygon fill="white" stroke="#bfbfbf" points="0,-160 0,-179 119,-179 119,-160 0,-160"/>
<text text-anchor="middle" x="59.5" y="-167" font-family="Helvetica,sans-Serif" font-size="10.00">basic_string&lt; char &gt;</text>
</a>
</g>
</g>
<!-- Node8&#45;&gt;Node7 -->
<g id="edge7" class="edge">
<title>Node8&#45;&gt;Node7</title>
<path fill="none" stroke="midnightblue" d="M129.42,-169.5C161.67,-169.5 197.78,-169.5 219.95,-169.5"/>
<polygon fill="midnightblue" stroke="midnightblue" points="129.1,-166 119.1,-169.5 129.1,-173 129.1,-166"/>
</g>
<!-- Node9&#45;&gt;Node2 -->
<g id="edge9" class="edge">
<title>Node9&#45;&gt;Node2</title>
<path fill="none" stroke="#9a32cd" stroke-dasharray="5,2" d="M571.35,-14.64C613.29,-14.2 666.56,-13.72 714,-13.5 772.22,-13.23 787.19,-6.59 845,-13.5 906.76,-20.89 921.94,-27.01 981,-46.5 991.47,-49.96 1002.42,-54.11 1012.94,-58.38"/>
<polygon fill="#9a32cd" stroke="#9a32cd" points="571.18,-11.14 561.22,-14.75 571.25,-18.14 571.18,-11.14"/>
<text text-anchor="middle" x="779.5" y="-16.5" font-family="Helvetica,sans-Serif" font-size="10.00"> generator_dimensions</text>
</g>
<!-- Node9&#45;&gt;Node10 -->
<g id="edge13" class="edge">
<title>Node9&#45;&gt;Node10</title>
<path fill="none" stroke="#9a32cd" stroke-dasharray="5,2" d="M571.65,-23.46C609.09,-27.7 655.01,-33.31 696,-39.5 701.76,-40.37 707.73,-41.33 713.71,-42.34"/>
<polygon fill="#9a32cd" stroke="#9a32cd" points="571.65,-19.94 561.32,-22.3 570.87,-26.89 571.65,-19.94"/>
<text text-anchor="middle" x="637.5" y="-42.5" font-family="Helvetica,sans-Serif" font-size="10.00"> generator_dimensions</text>
</g>
<!-- Node10&#45;&gt;Node2 -->
<g id="edge11" class="edge">
<title>Node10&#45;&gt;Node2</title>
<path fill="none" stroke="orange" stroke-dasharray="5,2" d="M855.44,-50.1C893.3,-49.18 939.82,-50.03 981,-56.5 986.82,-57.41 992.78,-58.62 998.73,-60.03"/>
<polygon fill="orange" stroke="orange" points="854.9,-46.61 845,-50.4 855.1,-53.61 854.9,-46.61"/>
<text text-anchor="start" x="863" y="-92.5" font-family="Helvetica,sans-Serif" font-size="10.00"> &lt; TwistedChernBasis</text>
<text text-anchor="start" x="863" y="-81.5" font-family="Helvetica,sans-Serif" font-size="10.00">&lt; xy_poly_t, chern_poly</text>
<text text-anchor="start" x="863" y="-70.5" font-family="Helvetica,sans-Serif" font-size="10.00">_t &gt;, xy_poly_t, chern</text>
<text text-anchor="middle" x="922" y="-59.5" font-family="Helvetica,sans-Serif" font-size="10.00">_poly_t &gt;</text>
</g>
<!-- Node11&#45;&gt;Node10 -->
<g id="edge14" class="edge">
<title>Node11&#45;&gt;Node10</title>
<path fill="none" stroke="#9a32cd" stroke-dasharray="5,2" d="M567.82,-55.85C571.6,-55.72 575.34,-55.6 579,-55.5 624.01,-54.3 674.75,-54.06 713.8,-54.11"/>
<polygon fill="#9a32cd" stroke="#9a32cd" points="567.62,-52.35 557.76,-56.23 567.89,-59.35 567.62,-52.35"/>
<text text-anchor="middle" x="637.5" y="-58.5" font-family="Helvetica,sans-Serif" font-size="10.00"> _generators</text>
</g>
</g>
</svg>
        <g id="navigator" transform="translate(0 0)" fill="#404254">
                <rect fill="#f2f5e9" fill-opacity="0.5" stroke="#606060" stroke-width=".5" x="0" y="0" width="60" height="60"/>
                <use id="zoomplus" xlink:href="#zoomPlus" x="17" y="9" onmousedown="handleZoom(evt,'in')"/>
                <use id="zoomminus" xlink:href="#zoomMin" x="42" y="9" onmousedown="handleZoom(evt,'out')"/>
                <use id="reset" xlink:href="#resetDef" x="30" y="36" onmousedown="handleReset()"/>
                <g id="arrowUp" xlink:href="#dirArrow" transform="translate(30 24)" onmousedown="handlePan(0,-1)">
                  <use xlink:href="#rim" fill="#404040">
                        <set attributeName="fill" to="#808080" begin="arrowUp.mouseover" end="arrowUp.mouseout"/>
                  </use>
                  <path fill="none" stroke="white" stroke-width="1.5" d="M0,-3.0v7 M-2.5,-0.5L0,-3.0L2.5,-0.5"/>
                </g>
                <g id="arrowRight" xlink:href="#dirArrow" transform="rotate(90) translate(36 -43)" onmousedown="handlePan(1,0)">
                  <use xlink:href="#rim" fill="#404040">
                        <set attributeName="fill" to="#808080" begin="arrowRight.mouseover" end="arrowRight.mouseout"/>
                  </use>
                  <path fill="none" stroke="white" stroke-width="1.5" d="M0,-3.0v7 M-2.5,-0.5L0,-3.0L2.5,-0.5"/>
                </g>
                <g id="arrowDown" xlink:href="#dirArrow" transform="rotate(180) translate(-30 -48)" onmousedown="handlePan(0,1)">
                  <use xlink:href="#rim" fill="#404040">
                        <set attributeName="fill" to="#808080" begin="arrowDown.mouseover" end="arrowDown.mouseout"/>
                  </use>
                  <path fill="none" stroke="white" stroke-width="1.5" d="M0,-3.0v7 M-2.5,-0.5L0,-3.0L2.5,-0.5"/>
                </g>
                <g id="arrowLeft" xlink:href="#dirArrow" transform="rotate(270) translate(-36 17)" onmousedown="handlePan(-1,0)">
                  <use xlink:href="#rim" fill="#404040">
                        <set attributeName="fill" to="#808080" begin="arrowLeft.mouseover" end="arrowLeft.mouseout"/>
                  </use>
                  <path fill="none" stroke="white" stroke-width="1.5" d="M0,-3.0v7 M-2.5,-0.5L0,-3.0L2.5,-0.5"/>
                </g>
        </g>
        <svg viewBox="0 0 15 15" width="100%" height="30px" preserveAspectRatio="xMaxYMin meet">
         <g id="arrow_out" transform="scale(0.3 0.3)">
          <a xlink:href="classsymmp_1_1TwistedChernBasis__coll__graph_org.svg" target="_base">
           <rect id="button" ry="5" rx="5" y="6" x="6" height="38" width="38"
                fill="#f2f5e9" fill-opacity="0.5" stroke="#606060" stroke-width="1.0"/>
           <path id="arrow"
             d="M 11.500037,31.436501 C 11.940474,20.09759 22.043105,11.32322 32.158766,21.979434 L 37.068811,17.246167 C 37.068811,17.246167 37.088388,32 37.088388,32 L 22.160133,31.978069 C 22.160133,31.978069 26.997745,27.140456 26.997745,27.140456 C 18.528582,18.264221 13.291696,25.230495 11.500037,31.436501 z"
             style="fill:#404040;"/>
          </a>
         </g>
        </svg>
</svg>
