<?xml version="1.0" encoding="UTF-8" standalone="no"?>
<!DOCTYPE svg PUBLIC "-//W3C//DTD SVG 1.1//EN"
 "http://www.w3.org/Graphics/SVG/1.1/DTD/svg11.dtd">
<!-- Generated by graphviz version 2.43.0 (0)
 -->
<!-- Title: PolynomialBasis&lt; spec_t, orig_poly_t, new_poly_t &gt; Pages: 1 -->
<!--zoomable 127 -->
<svg id="main" version="1.1" xmlns="http://www.w3.org/2000/svg" xmlns:xlink="http://www.w3.org/1999/xlink" xml:space="preserve" onload="init(evt)">
<style type="text/css"><![CDATA[
.edge:hover path { stroke: red; }
.edge:hover polygon { stroke: red; fill: red; }
]]></style>
<script type="text/javascript"><![CDATA[
var edges = document.getElementsByTagName('g');
if (edges && edges.length) {
  for (var i=0;i<edges.length;i++) {
    if (edges[i].id.substr(0,4)=='edge') {
      edges[i].setAttribute('class','edge');
    }
  }
}
]]></script>
        <defs>
                <circle id="rim" cx="0" cy="0" r="7"/>
                <circle id="rim2" cx="0" cy="0" r="3.5"/>
                <g id="zoomPlus">
                        <use xlink:href="#rim" fill="#404040">
                                <set attributeName="fill" to="#808080" begin="zoomplus.mouseover" end="zoomplus.mouseout"/>
                        </use>
                        <path d="M-4,0h8M0,-4v8" fill="none" stroke="white" stroke-width="1.5" pointer-events="none"/>
                </g>
                <g id="zoomMin">
                        <use xlink:href="#rim" fill="#404040">
                                <set attributeName="fill" to="#808080" begin="zoomminus.mouseover" end="zoomminus.mouseout"/>
                        </use>
                        <path d="M-4,0h8" fill="none" stroke="white" stroke-width="1.5" pointer-events="none"/>
                </g>
                <g id="dirArrow">
                        <path fill="none" stroke="white" stroke-width="1.5" d="M0,-3.0v7 M-2.5,-0.5L0,-3.0L2.5,-0.5"/>
                </g>
               <g id="resetDef">
                       <use xlink:href="#rim2" fill="#404040">
                               <set attributeName="fill" to="#808080" begin="reset.mouseover" end="reset.mouseout"/>
                       </use>
               </g>
        </defs>

<script type="text/javascript">
var viewWidth = 626;
var viewHeight = 127;
var sectionId = 'dynsection-0';
</script>
<script xlink:href="svgpan.js"/>
<svg id="graph" class="graph">
<g id="viewport">
<title>PolynomialBasis&lt; spec_t, orig_poly_t, new_poly_t &gt;</title>
<polygon fill="white" stroke="transparent" points="-4,4 -4,-123 622,-123 622,4 -4,4"/>
<!-- Node1 -->
<g id="node1" class="node">
<title>Node1</title>
<g id="a_node1"><a xlink:title="Factory class that provides the general interface of a generating basis for a subring of a polynomial...">
<polygon fill="#bfbfbf" stroke="black" points="0,-33.5 0,-74.5 131,-74.5 131,-33.5 0,-33.5"/>
<text text-anchor="start" x="8" y="-62.5" font-family="Helvetica,sans-Serif" font-size="10.00">PolynomialBasis&lt; spec</text>
<text text-anchor="start" x="8" y="-51.5" font-family="Helvetica,sans-Serif" font-size="10.00">_t, orig_poly_t, new</text>
<text text-anchor="middle" x="65.5" y="-40.5" font-family="Helvetica,sans-Serif" font-size="10.00">_poly_t &gt;</text>
</a>
</g>
</g>
<!-- Node2 -->
<g id="node2" class="node">
<title>Node2</title>
<g id="a_node2"><a xlink:href="classsymmp_1_1PolynomialBasis.html" target="_top" xlink:title=" ">
<polygon fill="white" stroke="black" points="286,-61 286,-113 434,-113 434,-61 286,-61"/>
<text text-anchor="start" x="294" y="-101" font-family="Helvetica,sans-Serif" font-size="10.00">PolynomialBasis&lt; Twisted</text>
<text text-anchor="start" x="294" y="-90" font-family="Helvetica,sans-Serif" font-size="10.00">ChernBasis&lt; _xy_poly_t,</text>
<text text-anchor="start" x="294" y="-79" font-family="Helvetica,sans-Serif" font-size="10.00"> _chern_poly_t &gt;, _xy_poly</text>
<text text-anchor="middle" x="360" y="-68" font-family="Helvetica,sans-Serif" font-size="10.00">_t, _chern_poly_t &gt;</text>
</a>
</g>
</g>
<!-- Node1&#45;&gt;Node2 -->
<g id="edge1" class="edge">
<title>Node1&#45;&gt;Node2</title>
<path fill="none" stroke="orange" stroke-dasharray="5,2" d="M141.21,-62.43C185.63,-67.44 241.72,-73.77 285.86,-78.75"/>
<polygon fill="orange" stroke="orange" points="141.38,-58.93 131.05,-61.28 140.6,-65.88 141.38,-58.93"/>
<text text-anchor="start" x="150.5" y="-111" font-family="Helvetica,sans-Serif" font-size="10.00"> &lt; TwistedChernBasis</text>
<text text-anchor="start" x="150.5" y="-100" font-family="Helvetica,sans-Serif" font-size="10.00">&lt; _xy_poly_t, _chern</text>
<text text-anchor="start" x="150.5" y="-89" font-family="Helvetica,sans-Serif" font-size="10.00">_poly_t &gt;, _xy_poly_t,</text>
<text text-anchor="middle" x="205" y="-78" font-family="Helvetica,sans-Serif" font-size="10.00"> _chern_poly_t &gt;</text>
</g>
<!-- Node4 -->
<g id="node4" class="node">
<title>Node4</title>
<g id="a_node4"><a xlink:href="classsymmp_1_1PolynomialBasis.html" target="_top" xlink:title=" ">
<polygon fill="white" stroke="black" points="279,-0.5 279,-41.5 441,-41.5 441,-0.5 279,-0.5"/>
<text text-anchor="start" x="287" y="-29.5" font-family="Helvetica,sans-Serif" font-size="10.00">PolynomialBasis&lt; Symmetric</text>
<text text-anchor="start" x="287" y="-18.5" font-family="Helvetica,sans-Serif" font-size="10.00">Basis&lt; x_poly_t, e_poly</text>
<text text-anchor="middle" x="360" y="-7.5" font-family="Helvetica,sans-Serif" font-size="10.00">_t &gt;, x_poly_t, e_poly_t &gt;</text>
</a>
</g>
</g>
<!-- Node1&#45;&gt;Node4 -->
<g id="edge3" class="edge">
<title>Node1&#45;&gt;Node4</title>
<path fill="none" stroke="orange" stroke-dasharray="5,2" d="M129.19,-30.55C135.81,-28.73 142.5,-27.15 149,-26 191.37,-18.49 239.3,-16.84 278.66,-17.24"/>
<polygon fill="orange" stroke="orange" points="128.19,-27.19 119.58,-33.37 130.16,-33.91 128.19,-27.19"/>
<text text-anchor="start" x="149" y="-51" font-family="Helvetica,sans-Serif" font-size="10.00"> &lt; SymmetricBasis&lt; x</text>
<text text-anchor="start" x="149" y="-40" font-family="Helvetica,sans-Serif" font-size="10.00">_poly_t, e_poly_t &gt;,</text>
<text text-anchor="middle" x="205" y="-29" font-family="Helvetica,sans-Serif" font-size="10.00"> x_poly_t, e_poly_t &gt;</text>
</g>
<!-- Node3 -->
<g id="node3" class="node">
<title>Node3</title>
<g id="a_node3"><a xlink:href="classsymmp_1_1TwistedChernBasis.html" target="_top" xlink:title="Class for half&#45;idempotent symmetric polynomials, facilitating transformation from &#160;variables to &#160;vari...">
<polygon fill="white" stroke="black" points="490,-66.5 490,-107.5 606,-107.5 606,-66.5 490,-66.5"/>
<text text-anchor="start" x="498" y="-95.5" font-family="Helvetica,sans-Serif" font-size="10.00">TwistedChernBasis&lt;</text>
<text text-anchor="start" x="498" y="-84.5" font-family="Helvetica,sans-Serif" font-size="10.00"> _xy_poly_t, _chern</text>
<text text-anchor="middle" x="548" y="-73.5" font-family="Helvetica,sans-Serif" font-size="10.00">_poly_t &gt;</text>
</a>
</g>
</g>
<!-- Node2&#45;&gt;Node3 -->
<g id="edge2" class="edge">
<title>Node2&#45;&gt;Node3</title>
<path fill="none" stroke="midnightblue" d="M444.31,-87C459.72,-87 475.5,-87 489.92,-87"/>
<polygon fill="midnightblue" stroke="midnightblue" points="444.25,-83.5 434.25,-87 444.25,-90.5 444.25,-83.5"/>
</g>
<!-- Node5 -->
<g id="node5" class="node">
<title>Node5</title>
<g id="a_node5"><a xlink:href="classsymmp_1_1SymmetricBasis.html" target="_top" xlink:title="Class for symmetric polynomials with no relations, allowing transformation from &#160;variables to &#160;variab...">
<polygon fill="white" stroke="black" points="478,-6 478,-36 618,-36 618,-6 478,-6"/>
<text text-anchor="start" x="486" y="-24" font-family="Helvetica,sans-Serif" font-size="10.00">SymmetricBasis&lt; x_poly</text>
<text text-anchor="middle" x="548" y="-13" font-family="Helvetica,sans-Serif" font-size="10.00">_t, e_poly_t &gt;</text>
</a>
</g>
</g>
<!-- Node4&#45;&gt;Node5 -->
<g id="edge4" class="edge">
<title>Node4&#45;&gt;Node5</title>
<path fill="none" stroke="midnightblue" d="M451.28,-21C460.21,-21 469.17,-21 477.84,-21"/>
<polygon fill="midnightblue" stroke="midnightblue" points="451.23,-17.5 441.23,-21 451.23,-24.5 451.23,-17.5"/>
</g>
</g>
</svg>
        <g id="navigator" transform="translate(0 0)" fill="#404254">
                <rect fill="#f2f5e9" fill-opacity="0.5" stroke="#606060" stroke-width=".5" x="0" y="0" width="60" height="60"/>
                <use id="zoomplus" xlink:href="#zoomPlus" x="17" y="9" onmousedown="handleZoom(evt,'in')"/>
                <use id="zoomminus" xlink:href="#zoomMin" x="42" y="9" onmousedown="handleZoom(evt,'out')"/>
                <use id="reset" xlink:href="#resetDef" x="30" y="36" onmousedown="handleReset()"/>
                <g id="arrowUp" xlink:href="#dirArrow" transform="translate(30 24)" onmousedown="handlePan(0,-1)">
                  <use xlink:href="#rim" fill="#404040">
                        <set attributeName="fill" to="#808080" begin="arrowUp.mouseover" end="arrowUp.mouseout"/>
                  </use>
                  <path fill="none" stroke="white" stroke-width="1.5" d="M0,-3.0v7 M-2.5,-0.5L0,-3.0L2.5,-0.5"/>
                </g>
                <g id="arrowRight" xlink:href="#dirArrow" transform="rotate(90) translate(36 -43)" onmousedown="handlePan(1,0)">
                  <use xlink:href="#rim" fill="#404040">
                        <set attributeName="fill" to="#808080" begin="arrowRight.mouseover" end="arrowRight.mouseout"/>
                  </use>
                  <path fill="none" stroke="white" stroke-width="1.5" d="M0,-3.0v7 M-2.5,-0.5L0,-3.0L2.5,-0.5"/>
                </g>
                <g id="arrowDown" xlink:href="#dirArrow" transform="rotate(180) translate(-30 -48)" onmousedown="handlePan(0,1)">
                  <use xlink:href="#rim" fill="#404040">
                        <set attributeName="fill" to="#808080" begin="arrowDown.mouseover" end="arrowDown.mouseout"/>
                  </use>
                  <path fill="none" stroke="white" stroke-width="1.5" d="M0,-3.0v7 M-2.5,-0.5L0,-3.0L2.5,-0.5"/>
                </g>
                <g id="arrowLeft" xlink:href="#dirArrow" transform="rotate(270) translate(-36 17)" onmousedown="handlePan(-1,0)">
                  <use xlink:href="#rim" fill="#404040">
                        <set attributeName="fill" to="#808080" begin="arrowLeft.mouseover" end="arrowLeft.mouseout"/>
                  </use>
                  <path fill="none" stroke="white" stroke-width="1.5" d="M0,-3.0v7 M-2.5,-0.5L0,-3.0L2.5,-0.5"/>
                </g>
        </g>
        <svg viewBox="0 0 15 15" width="100%" height="30px" preserveAspectRatio="xMaxYMin meet">
         <g id="arrow_out" transform="scale(0.3 0.3)">
          <a xlink:href="classsymmp_1_1PolynomialBasis__inherit__graph_org.svg" target="_base">
           <rect id="button" ry="5" rx="5" y="6" x="6" height="38" width="38"
                fill="#f2f5e9" fill-opacity="0.5" stroke="#606060" stroke-width="1.0"/>
           <path id="arrow"
             d="M 11.500037,31.436501 C 11.940474,20.09759 22.043105,11.32322 32.158766,21.979434 L 37.068811,17.246167 C 37.068811,17.246167 37.088388,32 37.088388,32 L 22.160133,31.978069 C 22.160133,31.978069 26.997745,27.140456 26.997745,27.140456 C 18.528582,18.264221 13.291696,25.230495 11.500037,31.436501 z"
             style="fill:#404040;"/>
          </a>
         </g>
        </svg>
</svg>
