<?xml version="1.0" encoding="UTF-8" standalone="no"?>
<!DOCTYPE svg PUBLIC "-//W3C//DTD SVG 1.1//EN"
 "http://www.w3.org/Graphics/SVG/1.1/DTD/svg11.dtd">
<!-- Generated by graphviz version 2.43.0 (0)
 -->
<!-- Title: TwistedChernBasis&lt; xy_poly_t, chern_poly_t &gt; Pages: 1 -->
<svg width="1332pt" height="147pt"
 viewBox="0.00 0.00 1332.00 147.00" xmlns="http://www.w3.org/2000/svg" xmlns:xlink="http://www.w3.org/1999/xlink">
<g id="graph0" class="graph" transform="scale(1 1) rotate(0) translate(4 143)">
<title>TwistedChernBasis&lt; xy_poly_t, chern_poly_t &gt;</title>
<polygon fill="white" stroke="transparent" points="-4,4 -4,-143 1328,-143 1328,4 -4,4"/>
<!-- Node1 -->
<g id="node1" class="node">
<title>Node1</title>
<g id="a_node1"><a xlink:title="Class for half&#45;idempotent symmetric polynomials.">
<polygon fill="#bfbfbf" stroke="black" points="1178,-39 1178,-69 1324,-69 1324,-39 1178,-39"/>
<text text-anchor="start" x="1186" y="-57" font-family="Helvetica,sans-Serif" font-size="10.00">TwistedChernBasis&lt;</text>
<text text-anchor="middle" x="1251" y="-46" font-family="Helvetica,sans-Serif" font-size="10.00"> xy_poly_t, chern_poly_t &gt;</text>
</a>
</g>
</g>
<!-- Node2 -->
<g id="node2" class="node">
<title>Node2</title>
<g id="a_node2"><a xlink:href="classsymmp_1_1PolynomialBasis.html" target="_top" xlink:title=" ">
<polygon fill="white" stroke="black" points="995,-28 995,-80 1141,-80 1141,-28 995,-28"/>
<text text-anchor="start" x="1003" y="-68" font-family="Helvetica,sans-Serif" font-size="10.00">PolynomialBasis&lt; Twisted</text>
<text text-anchor="start" x="1003" y="-57" font-family="Helvetica,sans-Serif" font-size="10.00">ChernBasis&lt; xy_poly_t,</text>
<text text-anchor="start" x="1003" y="-46" font-family="Helvetica,sans-Serif" font-size="10.00"> chern_poly_t &gt;, xy_poly</text>
<text text-anchor="middle" x="1068" y="-35" font-family="Helvetica,sans-Serif" font-size="10.00">_t, chern_poly_t &gt;</text>
</a>
</g>
</g>
<!-- Node2&#45;&gt;Node1 -->
<g id="edge1" class="edge">
<title>Node2&#45;&gt;Node1</title>
<path fill="none" stroke="midnightblue" d="M1151.09,-54C1160.03,-54 1169.09,-54 1177.9,-54"/>
<polygon fill="midnightblue" stroke="midnightblue" points="1151.06,-50.5 1141.06,-54 1151.06,-57.5 1151.06,-50.5"/>
</g>
<!-- Node3 -->
<g id="node3" class="node">
<title>Node3</title>
<g id="a_node3"><a xlink:href="classsymmp_1_1PolynomialBasis.html" target="_top" xlink:title="Factory class that provides the general interface of a generating basis for a subring of a polynomial...">
<polygon fill="white" stroke="black" points="710,-33.5 710,-74.5 841,-74.5 841,-33.5 710,-33.5"/>
<text text-anchor="start" x="718" y="-62.5" font-family="Helvetica,sans-Serif" font-size="10.00">PolynomialBasis&lt; spec</text>
<text text-anchor="start" x="718" y="-51.5" font-family="Helvetica,sans-Serif" font-size="10.00">_t, orig_poly_t, new</text>
<text text-anchor="middle" x="775.5" y="-40.5" font-family="Helvetica,sans-Serif" font-size="10.00">_poly_t &gt;</text>
</a>
</g>
</g>
<!-- Node3&#45;&gt;Node2 -->
<g id="edge2" class="edge">
<title>Node3&#45;&gt;Node2</title>
<path fill="none" stroke="orange" stroke-dasharray="5,2" d="M851.44,-54C895.64,-54 951.29,-54 994.97,-54"/>
<polygon fill="orange" stroke="orange" points="851.33,-50.5 841.33,-54 851.33,-57.5 851.33,-50.5"/>
<text text-anchor="start" x="859" y="-90" font-family="Helvetica,sans-Serif" font-size="10.00"> &lt; TwistedChernBasis</text>
<text text-anchor="start" x="859" y="-79" font-family="Helvetica,sans-Serif" font-size="10.00">&lt; xy_poly_t, chern_poly</text>
<text text-anchor="start" x="859" y="-68" font-family="Helvetica,sans-Serif" font-size="10.00">_t &gt;, xy_poly_t, chern</text>
<text text-anchor="middle" x="918" y="-57" font-family="Helvetica,sans-Serif" font-size="10.00">_poly_t &gt;</text>
</g>
<!-- Node4 -->
<g id="node4" class="node">
<title>Node4</title>
<g id="a_node4"><a xlink:title=" ">
<polygon fill="white" stroke="#bfbfbf" points="437,-88.5 437,-107.5 556,-107.5 556,-88.5 437,-88.5"/>
<text text-anchor="middle" x="496.5" y="-95.5" font-family="Helvetica,sans-Serif" font-size="10.00">vector&lt; std::string &gt;</text>
</a>
</g>
</g>
<!-- Node4&#45;&gt;Node3 -->
<g id="edge3" class="edge">
<title>Node4&#45;&gt;Node3</title>
<path fill="none" stroke="#9a32cd" stroke-dasharray="5,2" d="M566.54,-88.25C603.75,-82.86 650.44,-75.88 692,-69 697.75,-68.05 703.71,-67.03 709.68,-65.99"/>
<polygon fill="#9a32cd" stroke="#9a32cd" points="565.7,-84.84 556.3,-89.73 566.7,-91.76 565.7,-84.84"/>
<text text-anchor="middle" x="636" y="-89" font-family="Helvetica,sans-Serif" font-size="10.00"> generator_names</text>
</g>
<!-- Node5 -->
<g id="node5" class="node">
<title>Node5</title>
<g id="a_node5"><a xlink:title=" ">
<polygon fill="white" stroke="#bfbfbf" points="221,-119.5 221,-138.5 265,-138.5 265,-119.5 221,-119.5"/>
<text text-anchor="middle" x="243" y="-126.5" font-family="Helvetica,sans-Serif" font-size="10.00">string</text>
</a>
</g>
</g>
<!-- Node5&#45;&gt;Node4 -->
<g id="edge4" class="edge">
<title>Node5&#45;&gt;Node4</title>
<path fill="none" stroke="#9a32cd" stroke-dasharray="5,2" d="M275.03,-125.18C315.3,-120.21 386.39,-111.45 436.95,-105.22"/>
<polygon fill="#9a32cd" stroke="#9a32cd" points="274.51,-121.71 265.01,-126.41 275.36,-128.66 274.51,-121.71"/>
<text text-anchor="middle" x="356" y="-124" font-family="Helvetica,sans-Serif" font-size="10.00"> elements</text>
</g>
<!-- Node6 -->
<g id="node6" class="node">
<title>Node6</title>
<g id="a_node6"><a xlink:title=" ">
<polygon fill="white" stroke="#bfbfbf" points="0,-119.5 0,-138.5 120,-138.5 120,-119.5 0,-119.5"/>
<text text-anchor="middle" x="60" y="-126.5" font-family="Helvetica,sans-Serif" font-size="10.00">basic_string&lt; Char &gt;</text>
</a>
</g>
</g>
<!-- Node6&#45;&gt;Node5 -->
<g id="edge5" class="edge">
<title>Node6&#45;&gt;Node5</title>
<path fill="none" stroke="midnightblue" d="M130.53,-129C162.61,-129 198.41,-129 220.58,-129"/>
<polygon fill="midnightblue" stroke="midnightblue" points="130.27,-125.5 120.27,-129 130.27,-132.5 130.27,-125.5"/>
</g>
<!-- Node7 -->
<g id="node7" class="node">
<title>Node7</title>
<g id="a_node7"><a xlink:title=" ">
<polygon fill="white" stroke="#bfbfbf" points="205,-40.5 205,-59.5 281,-59.5 281,-40.5 205,-40.5"/>
<text text-anchor="middle" x="243" y="-47.5" font-family="Helvetica,sans-Serif" font-size="10.00">vector&lt; T &gt;</text>
</a>
</g>
</g>
<!-- Node7&#45;&gt;Node4 -->
<g id="edge6" class="edge">
<title>Node7&#45;&gt;Node4</title>
<path fill="none" stroke="orange" stroke-dasharray="5,2" d="M272.49,-63.63C280.87,-67.16 290.16,-70.64 299,-73 344.35,-85.13 397.2,-91.43 436.67,-94.67"/>
<polygon fill="orange" stroke="orange" points="273.71,-60.34 263.15,-59.51 270.89,-66.75 273.71,-60.34"/>
<text text-anchor="middle" x="356" y="-95" font-family="Helvetica,sans-Serif" font-size="10.00"> &lt; std::string &gt;</text>
</g>
<!-- Node9 -->
<g id="node9" class="node">
<title>Node9</title>
<g id="a_node9"><a xlink:title=" ">
<polygon fill="white" stroke="#bfbfbf" points="431,-39 431,-69 562,-69 562,-39 431,-39"/>
<text text-anchor="start" x="439" y="-57" font-family="Helvetica,sans-Serif" font-size="10.00">vector&lt; typename new</text>
<text text-anchor="middle" x="496.5" y="-46" font-family="Helvetica,sans-Serif" font-size="10.00">_poly_t::deg_t &gt;</text>
</a>
</g>
</g>
<!-- Node7&#45;&gt;Node9 -->
<g id="edge9" class="edge">
<title>Node7&#45;&gt;Node9</title>
<path fill="none" stroke="orange" stroke-dasharray="5,2" d="M291.34,-49.9C325.23,-49.91 371.93,-50.13 413,-51 418.73,-51.12 424.69,-51.28 430.65,-51.46"/>
<polygon fill="orange" stroke="orange" points="291.26,-46.4 281.26,-49.9 291.26,-53.4 291.26,-46.4"/>
<text text-anchor="start" x="299" y="-65" font-family="Helvetica,sans-Serif" font-size="10.00"> &lt; typename new_poly</text>
<text text-anchor="middle" x="356" y="-54" font-family="Helvetica,sans-Serif" font-size="10.00">_t::deg_t &gt;</text>
</g>
<!-- Node10 -->
<g id="node10" class="node">
<title>Node10</title>
<g id="a_node10"><a xlink:title=" ">
<polygon fill="white" stroke="#bfbfbf" points="434.5,-0.5 434.5,-19.5 558.5,-19.5 558.5,-0.5 434.5,-0.5"/>
<text text-anchor="middle" x="496.5" y="-7.5" font-family="Helvetica,sans-Serif" font-size="10.00">vector&lt; orig_poly_t &gt;</text>
</a>
</g>
</g>
<!-- Node7&#45;&gt;Node10 -->
<g id="edge11" class="edge">
<title>Node7&#45;&gt;Node10</title>
<path fill="none" stroke="orange" stroke-dasharray="5,2" d="M286.1,-37.88C290.44,-36.82 294.8,-35.84 299,-35 343.86,-26.07 395.14,-19.68 434.07,-15.59"/>
<polygon fill="orange" stroke="orange" points="284.92,-34.56 276.1,-40.44 286.66,-41.35 284.92,-34.56"/>
<text text-anchor="middle" x="356" y="-38" font-family="Helvetica,sans-Serif" font-size="10.00"> &lt; orig_poly_t &gt;</text>
</g>
<!-- Node8 -->
<g id="node8" class="node">
<title>Node8</title>
<g id="a_node8"><a xlink:title=" ">
<polygon fill="white" stroke="#bfbfbf" points="45.5,-40.5 45.5,-59.5 74.5,-59.5 74.5,-40.5 45.5,-40.5"/>
<text text-anchor="middle" x="60" y="-47.5" font-family="Helvetica,sans-Serif" font-size="10.00">T</text>
</a>
</g>
</g>
<!-- Node8&#45;&gt;Node7 -->
<g id="edge7" class="edge">
<title>Node8&#45;&gt;Node7</title>
<path fill="none" stroke="#9a32cd" stroke-dasharray="5,2" d="M84.78,-50C115.4,-50 168.98,-50 204.96,-50"/>
<polygon fill="#9a32cd" stroke="#9a32cd" points="84.6,-46.5 74.6,-50 84.6,-53.5 84.6,-46.5"/>
<text text-anchor="middle" x="162.5" y="-53" font-family="Helvetica,sans-Serif" font-size="10.00"> elements</text>
</g>
<!-- Node9&#45;&gt;Node3 -->
<g id="edge8" class="edge">
<title>Node9&#45;&gt;Node3</title>
<path fill="none" stroke="#9a32cd" stroke-dasharray="5,2" d="M572.22,-54C615.19,-54 668.64,-54 709.8,-54"/>
<polygon fill="#9a32cd" stroke="#9a32cd" points="572.09,-50.5 562.09,-54 572.09,-57.5 572.09,-50.5"/>
<text text-anchor="middle" x="636" y="-57" font-family="Helvetica,sans-Serif" font-size="10.00"> generator_dimensions</text>
</g>
<!-- Node10&#45;&gt;Node3 -->
<g id="edge10" class="edge">
<title>Node10&#45;&gt;Node3</title>
<path fill="none" stroke="#9a32cd" stroke-dasharray="5,2" d="M569.03,-20.11C605.82,-25.45 651.36,-32.28 692,-39 697.75,-39.95 703.71,-40.97 709.68,-42.01"/>
<polygon fill="#9a32cd" stroke="#9a32cd" points="569.3,-16.61 558.9,-18.64 568.29,-23.54 569.3,-16.61"/>
<text text-anchor="middle" x="636" y="-42" font-family="Helvetica,sans-Serif" font-size="10.00"> _generators</text>
</g>
</g>
</svg>
