<?xml version="1.0" encoding="UTF-8" standalone="no"?>
<!DOCTYPE svg PUBLIC "-//W3C//DTD SVG 1.1//EN"
 "http://www.w3.org/Graphics/SVG/1.1/DTD/svg11.dtd">
<!-- Generated by graphviz version 2.43.0 (0)
 -->
<!-- Title: PolynomialBasis&lt; spec_t, orig_poly_t, new_poly_t &gt; Pages: 1 -->
<svg width="638pt" height="125pt"
 viewBox="0.00 0.00 638.00 124.50" xmlns="http://www.w3.org/2000/svg" xmlns:xlink="http://www.w3.org/1999/xlink">
<g id="graph0" class="graph" transform="scale(1 1) rotate(0) translate(4 120.5)">
<title>PolynomialBasis&lt; spec_t, orig_poly_t, new_poly_t &gt;</title>
<polygon fill="white" stroke="transparent" points="-4,4 -4,-120.5 634,-120.5 634,4 -4,4"/>
<!-- Node1 -->
<g id="node1" class="node">
<title>Node1</title>
<g id="a_node1"><a xlink:title="Factory class that provides the general interface of a generating basis for a subring of a polynomial...">
<polygon fill="#bfbfbf" stroke="black" points="0,-39 0,-80 131,-80 131,-39 0,-39"/>
<text text-anchor="start" x="8" y="-68" font-family="Helvetica,sans-Serif" font-size="10.00">PolynomialBasis&lt; spec</text>
<text text-anchor="start" x="8" y="-57" font-family="Helvetica,sans-Serif" font-size="10.00">_t, orig_poly_t, new</text>
<text text-anchor="middle" x="65.5" y="-46" font-family="Helvetica,sans-Serif" font-size="10.00">_poly_t &gt;</text>
</a>
</g>
</g>
<!-- Node2 -->
<g id="node2" class="node">
<title>Node2</title>
<g id="a_node2"><a xlink:href="classsymmp_1_1PolynomialBasis.html" target="_top" xlink:title=" ">
<polygon fill="white" stroke="black" points="285,-73 285,-114 447,-114 447,-73 285,-73"/>
<text text-anchor="start" x="293" y="-102" font-family="Helvetica,sans-Serif" font-size="10.00">PolynomialBasis&lt; Symmetric</text>
<text text-anchor="start" x="293" y="-91" font-family="Helvetica,sans-Serif" font-size="10.00">Basis&lt; x_poly_t, e_poly</text>
<text text-anchor="middle" x="366" y="-80" font-family="Helvetica,sans-Serif" font-size="10.00">_t &gt;, x_poly_t, e_poly_t &gt;</text>
</a>
</g>
</g>
<!-- Node1&#45;&gt;Node2 -->
<g id="edge1" class="edge">
<title>Node1&#45;&gt;Node2</title>
<path fill="none" stroke="orange" stroke-dasharray="5,2" d="M141.35,-70.53C143.93,-70.87 146.49,-71.19 149,-71.5 193.89,-77.05 244.16,-82.23 284.9,-86.17"/>
<polygon fill="orange" stroke="orange" points="141.69,-67.04 131.32,-69.2 140.77,-73.98 141.69,-67.04"/>
<text text-anchor="start" x="152" y="-108.5" font-family="Helvetica,sans-Serif" font-size="10.00"> &lt; SymmetricBasis&lt; x</text>
<text text-anchor="start" x="152" y="-97.5" font-family="Helvetica,sans-Serif" font-size="10.00">_poly_t, e_poly_t &gt;,</text>
<text text-anchor="middle" x="208" y="-86.5" font-family="Helvetica,sans-Serif" font-size="10.00"> x_poly_t, e_poly_t &gt;</text>
</g>
<!-- Node4 -->
<g id="node4" class="node">
<title>Node4</title>
<g id="a_node4"><a xlink:href="classsymmp_1_1PolynomialBasis.html" target="_top" xlink:title=" ">
<polygon fill="white" stroke="black" points="293,-0.5 293,-52.5 439,-52.5 439,-0.5 293,-0.5"/>
<text text-anchor="start" x="301" y="-40.5" font-family="Helvetica,sans-Serif" font-size="10.00">PolynomialBasis&lt; Twisted</text>
<text text-anchor="start" x="301" y="-29.5" font-family="Helvetica,sans-Serif" font-size="10.00">ChernBasis&lt; xy_poly_t,</text>
<text text-anchor="start" x="301" y="-18.5" font-family="Helvetica,sans-Serif" font-size="10.00"> chern_poly_t &gt;, xy_poly</text>
<text text-anchor="middle" x="366" y="-7.5" font-family="Helvetica,sans-Serif" font-size="10.00">_t, chern_poly_t &gt;</text>
</a>
</g>
</g>
<!-- Node1&#45;&gt;Node4 -->
<g id="edge3" class="edge">
<title>Node1&#45;&gt;Node4</title>
<path fill="none" stroke="orange" stroke-dasharray="5,2" d="M120.22,-35.45C129.64,-32.16 139.48,-29.3 149,-27.5 196.35,-18.53 250.58,-18.31 292.86,-20.32"/>
<polygon fill="orange" stroke="orange" points="118.76,-32.26 110.58,-39 121.17,-38.82 118.76,-32.26"/>
<text text-anchor="start" x="149" y="-63.5" font-family="Helvetica,sans-Serif" font-size="10.00"> &lt; TwistedChernBasis</text>
<text text-anchor="start" x="149" y="-52.5" font-family="Helvetica,sans-Serif" font-size="10.00">&lt; xy_poly_t, chern_poly</text>
<text text-anchor="start" x="149" y="-41.5" font-family="Helvetica,sans-Serif" font-size="10.00">_t &gt;, xy_poly_t, chern</text>
<text text-anchor="middle" x="208" y="-30.5" font-family="Helvetica,sans-Serif" font-size="10.00">_poly_t &gt;</text>
</g>
<!-- Node3 -->
<g id="node3" class="node">
<title>Node3</title>
<g id="a_node3"><a xlink:href="classsymmp_1_1SymmetricBasis.html" target="_top" xlink:title="Class for symmetric polynomials with no relations, allowing transformation from &#160;variables to &#160;variab...">
<polygon fill="white" stroke="black" points="487,-78.5 487,-108.5 627,-108.5 627,-78.5 487,-78.5"/>
<text text-anchor="start" x="495" y="-96.5" font-family="Helvetica,sans-Serif" font-size="10.00">SymmetricBasis&lt; x_poly</text>
<text text-anchor="middle" x="557" y="-85.5" font-family="Helvetica,sans-Serif" font-size="10.00">_t, e_poly_t &gt;</text>
</a>
</g>
</g>
<!-- Node2&#45;&gt;Node3 -->
<g id="edge2" class="edge">
<title>Node2&#45;&gt;Node3</title>
<path fill="none" stroke="midnightblue" d="M457.4,-93.5C467.28,-93.5 477.22,-93.5 486.78,-93.5"/>
<polygon fill="midnightblue" stroke="midnightblue" points="457.15,-90 447.15,-93.5 457.15,-97 457.15,-90"/>
</g>
<!-- Node5 -->
<g id="node5" class="node">
<title>Node5</title>
<g id="a_node5"><a xlink:href="classsymmp_1_1TwistedChernBasis.html" target="_top" xlink:title="Class for half&#45;idempotent symmetric polynomials.">
<polygon fill="white" stroke="black" points="484,-11.5 484,-41.5 630,-41.5 630,-11.5 484,-11.5"/>
<text text-anchor="start" x="492" y="-29.5" font-family="Helvetica,sans-Serif" font-size="10.00">TwistedChernBasis&lt;</text>
<text text-anchor="middle" x="557" y="-18.5" font-family="Helvetica,sans-Serif" font-size="10.00"> xy_poly_t, chern_poly_t &gt;</text>
</a>
</g>
</g>
<!-- Node4&#45;&gt;Node5 -->
<g id="edge4" class="edge">
<title>Node4&#45;&gt;Node5</title>
<path fill="none" stroke="midnightblue" d="M449.28,-26.5C460.76,-26.5 472.5,-26.5 483.78,-26.5"/>
<polygon fill="midnightblue" stroke="midnightblue" points="449.26,-23 439.26,-26.5 449.26,-30 449.26,-23"/>
</g>
</g>
</svg>
