<?xml version="1.0" encoding="UTF-8" standalone="no"?>
<!DOCTYPE svg PUBLIC "-//W3C//DTD SVG 1.1//EN"
 "http://www.w3.org/Graphics/SVG/1.1/DTD/svg11.dtd">
<!-- Generated by graphviz version 2.43.0 (0)
 -->
<!-- Title: operator*= Pages: 1 -->
<svg width="343pt" height="28pt"
 viewBox="0.00 0.00 343.00 28.00" xmlns="http://www.w3.org/2000/svg" xmlns:xlink="http://www.w3.org/1999/xlink">
<g id="graph0" class="graph" transform="scale(1 1) rotate(0) translate(4 24)">
<title>operator*=</title>
<polygon fill="white" stroke="transparent" points="-4,4 -4,-24 339,-24 339,4 -4,4"/>
<!-- Node1 -->
<g id="node1" class="node">
<title>Node1</title>
<g id="a_node1"><a xlink:title="Multiplication assignment.">
<polygon fill="#bfbfbf" stroke="black" points="0,-0.5 0,-19.5 71,-19.5 71,-0.5 0,-0.5"/>
<text text-anchor="middle" x="35.5" y="-7.5" font-family="Helvetica,sans-Serif" font-size="10.00">operator*=</text>
</a>
</g>
</g>
<!-- Node2 -->
<g id="node2" class="node">
<title>Node2</title>
<g id="a_node2"><a xlink:href="classsymmp_1_1Polynomial.html#a51519bcf982b1819e3531297dba285a1" target="_top" xlink:title="Multiplication of polynomials.">
<polygon fill="white" stroke="black" points="107,-0.5 107,-19.5 170,-19.5 170,-0.5 107,-0.5"/>
<text text-anchor="middle" x="138.5" y="-7.5" font-family="Helvetica,sans-Serif" font-size="10.00">operator*</text>
</a>
</g>
</g>
<!-- Node1&#45;&gt;Node2 -->
<g id="edge1" class="edge">
<title>Node1&#45;&gt;Node2</title>
<path fill="none" stroke="midnightblue" d="M71.26,-10C79.45,-10 88.26,-10 96.7,-10"/>
<polygon fill="midnightblue" stroke="midnightblue" points="96.73,-13.5 106.73,-10 96.73,-6.5 96.73,-13.5"/>
</g>
<!-- Node3 -->
<g id="node3" class="node">
<title>Node3</title>
<g id="a_node3"><a xlink:href="classsymmp_1_1Polynomial.html#a5b2cb23f1a89d1c9cd17c9bbba894027" target="_top" xlink:title="Returns the number of monomials of the polynomial.">
<polygon fill="white" stroke="black" points="206,-0.5 206,-19.5 335,-19.5 335,-0.5 206,-0.5"/>
<text text-anchor="middle" x="270.5" y="-7.5" font-family="Helvetica,sans-Serif" font-size="10.00">number_of_monomials</text>
</a>
</g>
</g>
<!-- Node2&#45;&gt;Node3 -->
<g id="edge2" class="edge">
<title>Node2&#45;&gt;Node3</title>
<path fill="none" stroke="midnightblue" d="M170.31,-10C178.11,-10 186.83,-10 195.77,-10"/>
<polygon fill="midnightblue" stroke="midnightblue" points="195.93,-13.5 205.93,-10 195.93,-6.5 195.93,-13.5"/>
</g>
</g>
</svg>
