<?xml version="1.0" encoding="UTF-8" standalone="no"?>
<!DOCTYPE svg PUBLIC "-//W3C//DTD SVG 1.1//EN"
 "http://www.w3.org/Graphics/SVG/1.1/DTD/svg11.dtd">
<!-- Generated by graphviz version 2.43.0 (0)
 -->
<!-- Title: BaseContainer&lt; exp_t &gt; Pages: 1 -->
<svg width="145pt" height="174pt"
 viewBox="0.00 0.00 145.00 174.00" xmlns="http://www.w3.org/2000/svg" xmlns:xlink="http://www.w3.org/1999/xlink">
<g id="graph0" class="graph" transform="scale(1 1) rotate(0) translate(4 170)">
<title>BaseContainer&lt; exp_t &gt;</title>
<polygon fill="white" stroke="transparent" points="-4,4 -4,-170 141,-170 141,4 -4,4"/>
<!-- Node1 -->
<g id="node1" class="node">
<title>Node1</title>
<g id="a_node1"><a xlink:title="The base of all monomial containers.">
<polygon fill="#bfbfbf" stroke="black" points="0,-146.5 0,-165.5 137,-165.5 137,-146.5 0,-146.5"/>
<text text-anchor="middle" x="68.5" y="-153.5" font-family="Helvetica,sans-Serif" font-size="10.00">BaseContainer&lt; exp_t &gt;</text>
</a>
</g>
</g>
<!-- Node2 -->
<g id="node2" class="node">
<title>Node2</title>
<g id="a_node2"><a xlink:href="classsymmp_1_1BaseContainer.html" target="_top" xlink:title=" ">
<polygon fill="white" stroke="black" points="1.5,-79.5 1.5,-98.5 135.5,-98.5 135.5,-79.5 1.5,-79.5"/>
<text text-anchor="middle" x="68.5" y="-86.5" font-family="Helvetica,sans-Serif" font-size="10.00">BaseContainer&lt; _exp &gt;</text>
</a>
</g>
</g>
<!-- Node1&#45;&gt;Node2 -->
<g id="edge1" class="edge">
<title>Node1&#45;&gt;Node2</title>
<path fill="none" stroke="orange" stroke-dasharray="5,2" d="M68.5,-136.04C68.5,-123.67 68.5,-108.12 68.5,-98.63"/>
<polygon fill="orange" stroke="orange" points="65,-136.23 68.5,-146.23 72,-136.23 65,-136.23"/>
<text text-anchor="middle" x="93" y="-120" font-family="Helvetica,sans-Serif" font-size="10.00"> &lt; _exp &gt;</text>
</g>
<!-- Node3 -->
<g id="node3" class="node">
<title>Node3</title>
<g id="a_node3"><a xlink:href="classsymmp_1_1DefaultContainer.html" target="_top" xlink:title="The default ordered/unordered monomial container.">
<polygon fill="white" stroke="black" points="8,-0.5 8,-41.5 129,-41.5 129,-0.5 8,-0.5"/>
<text text-anchor="start" x="16" y="-29.5" font-family="Helvetica,sans-Serif" font-size="10.00">DefaultContainer&lt; </text>
<text text-anchor="start" x="16" y="-18.5" font-family="Helvetica,sans-Serif" font-size="10.00">_scl, _exp, _cnt, _ord,</text>
<text text-anchor="middle" x="68.5" y="-7.5" font-family="Helvetica,sans-Serif" font-size="10.00"> _arg &gt;</text>
</a>
</g>
</g>
<!-- Node2&#45;&gt;Node3 -->
<g id="edge2" class="edge">
<title>Node2&#45;&gt;Node3</title>
<path fill="none" stroke="midnightblue" d="M68.5,-69.25C68.5,-60.65 68.5,-50.45 68.5,-41.74"/>
<polygon fill="midnightblue" stroke="midnightblue" points="65,-69.37 68.5,-79.37 72,-69.37 65,-69.37"/>
</g>
</g>
</svg>
