<?xml version="1.0" encoding="UTF-8" standalone="no"?>
<!DOCTYPE svg PUBLIC "-//W3C//DTD SVG 1.1//EN"
 "http://www.w3.org/Graphics/SVG/1.1/DTD/svg11.dtd">
<!-- Generated by graphviz version 2.43.0 (0)
 -->
<!-- Title: TwistedChernBasis&lt; _xy_poly_t, _chern_poly_t &gt; Pages: 1 -->
<svg width="585pt" height="79pt"
 viewBox="0.00 0.00 585.00 78.50" xmlns="http://www.w3.org/2000/svg" xmlns:xlink="http://www.w3.org/1999/xlink">
<g id="graph0" class="graph" transform="scale(1 1) rotate(0) translate(4 74.5)">
<title>TwistedChernBasis&lt; _xy_poly_t, _chern_poly_t &gt;</title>
<polygon fill="white" stroke="transparent" points="-4,4 -4,-74.5 581,-74.5 581,4 -4,4"/>
<!-- Node1 -->
<g id="node1" class="node">
<title>Node1</title>
<g id="a_node1"><a xlink:title="Class for half&#45;idempotent symmetric polynomials, allowing transformation from &#160;variables to &#160;variable...">
<polygon fill="#bfbfbf" stroke="black" points="461,-6 461,-47 577,-47 577,-6 461,-6"/>
<text text-anchor="start" x="469" y="-35" font-family="Helvetica,sans-Serif" font-size="10.00">TwistedChernBasis&lt;</text>
<text text-anchor="start" x="469" y="-24" font-family="Helvetica,sans-Serif" font-size="10.00"> _xy_poly_t, _chern</text>
<text text-anchor="middle" x="519" y="-13" font-family="Helvetica,sans-Serif" font-size="10.00">_poly_t &gt;</text>
</a>
</g>
</g>
<!-- Node2 -->
<g id="node2" class="node">
<title>Node2</title>
<g id="a_node2"><a xlink:href="classsymmp_1_1PolynomialBasis.html" target="_top" xlink:title=" ">
<polygon fill="white" stroke="black" points="276,-0.5 276,-52.5 424,-52.5 424,-0.5 276,-0.5"/>
<text text-anchor="start" x="284" y="-40.5" font-family="Helvetica,sans-Serif" font-size="10.00">PolynomialBasis&lt; Twisted</text>
<text text-anchor="start" x="284" y="-29.5" font-family="Helvetica,sans-Serif" font-size="10.00">ChernBasis&lt; _xy_poly_t,</text>
<text text-anchor="start" x="284" y="-18.5" font-family="Helvetica,sans-Serif" font-size="10.00"> _chern_poly_t &gt;, _xy_poly</text>
<text text-anchor="middle" x="350" y="-7.5" font-family="Helvetica,sans-Serif" font-size="10.00">_t, _chern_poly_t &gt;</text>
</a>
</g>
</g>
<!-- Node2&#45;&gt;Node1 -->
<g id="edge1" class="edge">
<title>Node2&#45;&gt;Node1</title>
<path fill="none" stroke="midnightblue" d="M434.36,-26.5C443.33,-26.5 452.31,-26.5 460.87,-26.5"/>
<polygon fill="midnightblue" stroke="midnightblue" points="434.25,-23 424.25,-26.5 434.25,-30 434.25,-23"/>
</g>
<!-- Node3 -->
<g id="node3" class="node">
<title>Node3</title>
<g id="a_node3"><a xlink:href="classsymmp_1_1PolynomialBasis.html" target="_top" xlink:title="Factory class that provides the general interface of a generating basis for a subring of a polynomial...">
<polygon fill="white" stroke="black" points="0,-6 0,-47 131,-47 131,-6 0,-6"/>
<text text-anchor="start" x="8" y="-35" font-family="Helvetica,sans-Serif" font-size="10.00">PolynomialBasis&lt; spec</text>
<text text-anchor="start" x="8" y="-24" font-family="Helvetica,sans-Serif" font-size="10.00">_t, orig_poly_t, new</text>
<text text-anchor="middle" x="65.5" y="-13" font-family="Helvetica,sans-Serif" font-size="10.00">_poly_t &gt;</text>
</a>
</g>
</g>
<!-- Node3&#45;&gt;Node2 -->
<g id="edge2" class="edge">
<title>Node3&#45;&gt;Node2</title>
<path fill="none" stroke="orange" stroke-dasharray="5,2" d="M141.38,-26.5C182.96,-26.5 234.47,-26.5 275.78,-26.5"/>
<polygon fill="orange" stroke="orange" points="141.31,-23 131.31,-26.5 141.31,-30 141.31,-23"/>
<text text-anchor="start" x="149" y="-62.5" font-family="Helvetica,sans-Serif" font-size="10.00"> &lt; TwistedChernBasis</text>
<text text-anchor="start" x="149" y="-51.5" font-family="Helvetica,sans-Serif" font-size="10.00">&lt; _xy_poly_t, _chern</text>
<text text-anchor="start" x="149" y="-40.5" font-family="Helvetica,sans-Serif" font-size="10.00">_poly_t &gt;, _xy_poly_t,</text>
<text text-anchor="middle" x="203.5" y="-29.5" font-family="Helvetica,sans-Serif" font-size="10.00"> _chern_poly_t &gt;</text>
</g>
</g>
</svg>
