<?xml version="1.0" encoding="UTF-8" standalone="no"?>
<!DOCTYPE svg PUBLIC "-//W3C//DTD SVG 1.1//EN"
 "http://www.w3.org/Graphics/SVG/1.1/DTD/svg11.dtd">
<!-- Generated by graphviz version 2.43.0 (0)
 -->
<!-- Title: number_of_monomials Pages: 1 -->
<svg width="354pt" height="180pt"
 viewBox="0.00 0.00 354.00 180.00" xmlns="http://www.w3.org/2000/svg" xmlns:xlink="http://www.w3.org/1999/xlink">
<g id="graph0" class="graph" transform="scale(1 1) rotate(0) translate(4 176)">
<title>number_of_monomials</title>
<polygon fill="white" stroke="transparent" points="-4,4 -4,-176 350,-176 350,4 -4,4"/>
<!-- Node1 -->
<g id="node1" class="node">
<title>Node1</title>
<g id="a_node1"><a xlink:title="Returns the number of monomials of the polynomial.">
<polygon fill="#bfbfbf" stroke="black" points="217,-76.5 217,-95.5 346,-95.5 346,-76.5 217,-76.5"/>
<text text-anchor="middle" x="281.5" y="-83.5" font-family="Helvetica,sans-Serif" font-size="10.00">number_of_monomials</text>
</a>
</g>
</g>
<!-- Node2 -->
<g id="node2" class="node">
<title>Node2</title>
<g id="a_node2"><a xlink:href="classsymmp_1_1Polynomial.html#a51519bcf982b1819e3531297dba285a1" target="_top" xlink:title="Multiplication of polynomials.">
<polygon fill="white" stroke="black" points="112.5,-152.5 112.5,-171.5 175.5,-171.5 175.5,-152.5 112.5,-152.5"/>
<text text-anchor="middle" x="144" y="-159.5" font-family="Helvetica,sans-Serif" font-size="10.00">operator*</text>
</a>
</g>
</g>
<!-- Node1&#45;&gt;Node2 -->
<g id="edge1" class="edge">
<title>Node1&#45;&gt;Node2</title>
<path fill="none" stroke="midnightblue" d="M255.24,-100.79C235.21,-112.45 206.45,-129 181,-143 175.3,-146.13 169.05,-149.47 163.38,-152.46"/>
<polygon fill="midnightblue" stroke="midnightblue" points="257.17,-103.72 264.05,-95.66 253.65,-97.67 257.17,-103.72"/>
</g>
<!-- Node4 -->
<g id="node4" class="node">
<title>Node4</title>
<g id="a_node4"><a xlink:href="classsymmp_1_1Polynomial.html#ad8df21cbb3a13acee8aebca7d5ed672f" target="_top" xlink:title="Addition of polynomials.">
<polygon fill="white" stroke="black" points="111,-114.5 111,-133.5 177,-133.5 177,-114.5 111,-114.5"/>
<text text-anchor="middle" x="144" y="-121.5" font-family="Helvetica,sans-Serif" font-size="10.00">operator+</text>
</a>
</g>
</g>
<!-- Node1&#45;&gt;Node4 -->
<g id="edge3" class="edge">
<title>Node1&#45;&gt;Node4</title>
<path fill="none" stroke="midnightblue" d="M236.53,-98.33C217.26,-103.74 195.04,-109.97 177.32,-114.94"/>
<polygon fill="midnightblue" stroke="midnightblue" points="237.62,-101.66 246.31,-95.59 235.73,-94.92 237.62,-101.66"/>
</g>
<!-- Node5 -->
<g id="node5" class="node">
<title>Node5</title>
<g id="a_node5"><a xlink:href="classsymmp_1_1Polynomial.html#ae8bc93292a214bd7740d48a5a1f2e40d" target="_top" xlink:title="Addition assignment.">
<polygon fill="white" stroke="black" points="107,-76.5 107,-95.5 181,-95.5 181,-76.5 107,-76.5"/>
<text text-anchor="middle" x="144" y="-83.5" font-family="Helvetica,sans-Serif" font-size="10.00">operator+=</text>
</a>
</g>
</g>
<!-- Node1&#45;&gt;Node5 -->
<g id="edge4" class="edge">
<title>Node1&#45;&gt;Node5</title>
<path fill="none" stroke="midnightblue" d="M206.69,-86C197.83,-86 189.11,-86 181.14,-86"/>
<polygon fill="midnightblue" stroke="midnightblue" points="206.72,-89.5 216.72,-86 206.72,-82.5 206.72,-89.5"/>
</g>
<!-- Node6 -->
<g id="node6" class="node">
<title>Node6</title>
<g id="a_node6"><a xlink:href="classsymmp_1_1Polynomial.html#a2e5de36cfd01a364e5b155af7b5f0b09" target="_top" xlink:title="Subtraction of polynomials.">
<polygon fill="white" stroke="black" points="113,-38.5 113,-57.5 175,-57.5 175,-38.5 113,-38.5"/>
<text text-anchor="middle" x="144" y="-45.5" font-family="Helvetica,sans-Serif" font-size="10.00">operator&#45;</text>
</a>
</g>
</g>
<!-- Node1&#45;&gt;Node6 -->
<g id="edge5" class="edge">
<title>Node1&#45;&gt;Node6</title>
<path fill="none" stroke="midnightblue" d="M236.44,-73.64C216.34,-68.01 193.07,-61.48 175.03,-56.42"/>
<polygon fill="midnightblue" stroke="midnightblue" points="235.73,-77.08 246.31,-76.41 237.62,-70.34 235.73,-77.08"/>
</g>
<!-- Node7 -->
<g id="node7" class="node">
<title>Node7</title>
<g id="a_node7"><a xlink:href="classsymmp_1_1Polynomial.html#a0d07b8fa3397cbaac73b99cec175abde" target="_top" xlink:title="Subtraction assignment.">
<polygon fill="white" stroke="black" points="109,-0.5 109,-19.5 179,-19.5 179,-0.5 109,-0.5"/>
<text text-anchor="middle" x="144" y="-7.5" font-family="Helvetica,sans-Serif" font-size="10.00">operator&#45;=</text>
</a>
</g>
</g>
<!-- Node1&#45;&gt;Node7 -->
<g id="edge6" class="edge">
<title>Node1&#45;&gt;Node7</title>
<path fill="none" stroke="midnightblue" d="M255.24,-71.21C235.21,-59.55 206.45,-43 181,-29 175.3,-25.87 169.05,-22.53 163.38,-19.54"/>
<polygon fill="midnightblue" stroke="midnightblue" points="253.65,-74.33 264.05,-76.34 257.17,-68.28 253.65,-74.33"/>
</g>
<!-- Node3 -->
<g id="node3" class="node">
<title>Node3</title>
<g id="a_node3"><a xlink:href="classsymmp_1_1Polynomial.html#aabb2e6eb2a271e127a1302c532f9d409" target="_top" xlink:title="Multiplication assignment.">
<polygon fill="white" stroke="black" points="0,-152.5 0,-171.5 71,-171.5 71,-152.5 0,-152.5"/>
<text text-anchor="middle" x="35.5" y="-159.5" font-family="Helvetica,sans-Serif" font-size="10.00">operator*=</text>
</a>
</g>
</g>
<!-- Node2&#45;&gt;Node3 -->
<g id="edge2" class="edge">
<title>Node2&#45;&gt;Node3</title>
<path fill="none" stroke="midnightblue" d="M102.45,-162C92.13,-162 81.14,-162 71.15,-162"/>
<polygon fill="midnightblue" stroke="midnightblue" points="102.48,-165.5 112.48,-162 102.48,-158.5 102.48,-165.5"/>
</g>
</g>
</svg>
