<?xml version="1.0" encoding="UTF-8" standalone="no"?>
<!DOCTYPE svg PUBLIC "-//W3C//DTD SVG 1.1//EN"
 "http://www.w3.org/Graphics/SVG/1.1/DTD/svg11.dtd">
<!-- Generated by graphviz version 2.43.0 (0)
 -->
<!-- Title: PolynomialBasis&lt; spec_t, orig_poly_t, new_poly_t &gt; Pages: 1 -->
<svg width="450pt" height="273pt"
 viewBox="0.00 0.00 449.50 273.00" xmlns="http://www.w3.org/2000/svg" xmlns:xlink="http://www.w3.org/1999/xlink">
<g id="graph0" class="graph" transform="scale(1 1) rotate(0) translate(4 269)">
<title>PolynomialBasis&lt; spec_t, orig_poly_t, new_poly_t &gt;</title>
<polygon fill="white" stroke="transparent" points="-4,4 -4,-269 445.5,-269 445.5,4 -4,4"/>
<!-- Node1 -->
<g id="node1" class="node">
<title>Node1</title>
<g id="a_node1"><a xlink:title="Factory class that provides the general interface of a generating basis for a subring of a polynomial...">
<polygon fill="#bfbfbf" stroke="black" points="161,-0.5 161,-41.5 292,-41.5 292,-0.5 161,-0.5"/>
<text text-anchor="start" x="169" y="-29.5" font-family="Helvetica,sans-Serif" font-size="10.00">PolynomialBasis&lt; spec</text>
<text text-anchor="start" x="169" y="-18.5" font-family="Helvetica,sans-Serif" font-size="10.00">_t, orig_poly_t, new</text>
<text text-anchor="middle" x="226.5" y="-7.5" font-family="Helvetica,sans-Serif" font-size="10.00">_poly_t &gt;</text>
</a>
</g>
</g>
<!-- Node2 -->
<g id="node2" class="node">
<title>Node2</title>
<g id="a_node2"><a xlink:title=" ">
<polygon fill="white" stroke="#bfbfbf" points="24,-95 24,-114 143,-114 143,-95 24,-95"/>
<text text-anchor="middle" x="83.5" y="-102" font-family="Helvetica,sans-Serif" font-size="10.00">vector&lt; std::string &gt;</text>
</a>
</g>
</g>
<!-- Node2&#45;&gt;Node1 -->
<g id="edge1" class="edge">
<title>Node2&#45;&gt;Node1</title>
<path fill="none" stroke="#9a32cd" stroke-dasharray="5,2" d="M99.01,-87.62C108.38,-78.66 120.92,-67.75 133.5,-60 144.79,-53.05 157.57,-46.88 169.96,-41.63"/>
<polygon fill="#9a32cd" stroke="#9a32cd" points="96.33,-85.35 91.66,-94.86 101.24,-90.34 96.33,-85.35"/>
<text text-anchor="middle" x="178" y="-63" font-family="Helvetica,sans-Serif" font-size="10.00"> generator_names</text>
</g>
<!-- Node3 -->
<g id="node3" class="node">
<title>Node3</title>
<g id="a_node3"><a xlink:title="STL class.">
<polygon fill="white" stroke="#bfbfbf" points="37.5,-178.5 37.5,-197.5 81.5,-197.5 81.5,-178.5 37.5,-178.5"/>
<text text-anchor="middle" x="59.5" y="-185.5" font-family="Helvetica,sans-Serif" font-size="10.00">string</text>
</a>
</g>
</g>
<!-- Node3&#45;&gt;Node2 -->
<g id="edge2" class="edge">
<title>Node3&#45;&gt;Node2</title>
<path fill="none" stroke="#9a32cd" stroke-dasharray="5,2" d="M57.34,-168.29C56.89,-158.96 57.32,-147.65 60.5,-138 63.48,-128.94 69.93,-120.2 75.25,-114.07"/>
<polygon fill="#9a32cd" stroke="#9a32cd" points="53.86,-168.75 58.19,-178.42 60.84,-168.17 53.86,-168.75"/>
<text text-anchor="middle" x="85" y="-146.5" font-family="Helvetica,sans-Serif" font-size="10.00"> elements</text>
</g>
<!-- Node4 -->
<g id="node4" class="node">
<title>Node4</title>
<g id="a_node4"><a xlink:title="STL class.">
<polygon fill="white" stroke="#bfbfbf" points="0,-245.5 0,-264.5 119,-264.5 119,-245.5 0,-245.5"/>
<text text-anchor="middle" x="59.5" y="-252.5" font-family="Helvetica,sans-Serif" font-size="10.00">basic_string&lt; char &gt;</text>
</a>
</g>
</g>
<!-- Node4&#45;&gt;Node3 -->
<g id="edge3" class="edge">
<title>Node4&#45;&gt;Node3</title>
<path fill="none" stroke="midnightblue" d="M59.5,-235.04C59.5,-222.67 59.5,-207.12 59.5,-197.63"/>
<polygon fill="midnightblue" stroke="midnightblue" points="56,-235.23 59.5,-245.23 63,-235.23 56,-235.23"/>
</g>
<!-- Node5 -->
<g id="node5" class="node">
<title>Node5</title>
<g id="a_node5"><a xlink:title="STL class.">
<polygon fill="white" stroke="#bfbfbf" points="191.5,-178.5 191.5,-197.5 267.5,-197.5 267.5,-178.5 191.5,-178.5"/>
<text text-anchor="middle" x="229.5" y="-185.5" font-family="Helvetica,sans-Serif" font-size="10.00">vector&lt; T &gt;</text>
</a>
</g>
</g>
<!-- Node5&#45;&gt;Node2 -->
<g id="edge4" class="edge">
<title>Node5&#45;&gt;Node2</title>
<path fill="none" stroke="orange" stroke-dasharray="5,2" d="M185.39,-175.3C173.37,-171.27 160.61,-166.18 149.5,-160 126.39,-147.14 103.51,-125.81 91.71,-114.01"/>
<polygon fill="orange" stroke="orange" points="184.67,-178.75 195.26,-178.44 186.79,-172.08 184.67,-178.75"/>
<text text-anchor="middle" x="187" y="-146.5" font-family="Helvetica,sans-Serif" font-size="10.00"> &lt; std::string &gt;</text>
</g>
<!-- Node7 -->
<g id="node7" class="node">
<title>Node7</title>
<g id="a_node7"><a xlink:title=" ">
<polygon fill="white" stroke="#bfbfbf" points="161,-89.5 161,-119.5 292,-119.5 292,-89.5 161,-89.5"/>
<text text-anchor="start" x="169" y="-107.5" font-family="Helvetica,sans-Serif" font-size="10.00">vector&lt; typename new</text>
<text text-anchor="middle" x="226.5" y="-96.5" font-family="Helvetica,sans-Serif" font-size="10.00">_poly_t::deg_t &gt;</text>
</a>
</g>
</g>
<!-- Node5&#45;&gt;Node7 -->
<g id="edge7" class="edge">
<title>Node5&#45;&gt;Node7</title>
<path fill="none" stroke="orange" stroke-dasharray="5,2" d="M228.81,-168.23C228.26,-153.41 227.51,-133.05 227.02,-119.6"/>
<polygon fill="orange" stroke="orange" points="225.31,-168.41 229.18,-178.28 232.31,-168.16 225.31,-168.41"/>
<text text-anchor="start" x="228.5" y="-152" font-family="Helvetica,sans-Serif" font-size="10.00"> &lt; typename new_poly</text>
<text text-anchor="middle" x="285.5" y="-141" font-family="Helvetica,sans-Serif" font-size="10.00">_t::deg_t &gt;</text>
</g>
<!-- Node8 -->
<g id="node8" class="node">
<title>Node8</title>
<g id="a_node8"><a xlink:title=" ">
<polygon fill="white" stroke="#bfbfbf" points="310.5,-95 310.5,-114 434.5,-114 434.5,-95 310.5,-95"/>
<text text-anchor="middle" x="372.5" y="-102" font-family="Helvetica,sans-Serif" font-size="10.00">vector&lt; orig_poly_t &gt;</text>
</a>
</g>
</g>
<!-- Node5&#45;&gt;Node8 -->
<g id="edge9" class="edge">
<title>Node5&#45;&gt;Node8</title>
<path fill="none" stroke="orange" stroke-dasharray="5,2" d="M277.9,-185.37C300.79,-182.38 327.25,-175.44 346.5,-160 361.05,-148.32 367.94,-126.53 370.78,-114.34"/>
<polygon fill="orange" stroke="orange" points="277.24,-181.92 267.67,-186.48 277.99,-188.88 277.24,-181.92"/>
<text text-anchor="middle" x="401.5" y="-146.5" font-family="Helvetica,sans-Serif" font-size="10.00"> &lt; orig_poly_t &gt;</text>
</g>
<!-- Node6 -->
<g id="node6" class="node">
<title>Node6</title>
<g id="a_node6"><a xlink:title=" ">
<polygon fill="white" stroke="#bfbfbf" points="215,-245.5 215,-264.5 244,-264.5 244,-245.5 215,-245.5"/>
<text text-anchor="middle" x="229.5" y="-252.5" font-family="Helvetica,sans-Serif" font-size="10.00">T</text>
</a>
</g>
</g>
<!-- Node6&#45;&gt;Node5 -->
<g id="edge5" class="edge">
<title>Node6&#45;&gt;Node5</title>
<path fill="none" stroke="#9a32cd" stroke-dasharray="5,2" d="M229.5,-235.04C229.5,-222.67 229.5,-207.12 229.5,-197.63"/>
<polygon fill="#9a32cd" stroke="#9a32cd" points="226,-235.23 229.5,-245.23 233,-235.23 226,-235.23"/>
<text text-anchor="middle" x="254" y="-219" font-family="Helvetica,sans-Serif" font-size="10.00"> elements</text>
</g>
<!-- Node7&#45;&gt;Node1 -->
<g id="edge6" class="edge">
<title>Node7&#45;&gt;Node1</title>
<path fill="none" stroke="#9a32cd" stroke-dasharray="5,2" d="M226.5,-79.07C226.5,-67.06 226.5,-52.79 226.5,-41.53"/>
<polygon fill="#9a32cd" stroke="#9a32cd" points="223,-79.3 226.5,-89.3 230,-79.3 223,-79.3"/>
<text text-anchor="middle" x="282.5" y="-63" font-family="Helvetica,sans-Serif" font-size="10.00"> generator_dimensions</text>
</g>
<!-- Node8&#45;&gt;Node1 -->
<g id="edge8" class="edge">
<title>Node8&#45;&gt;Node1</title>
<path fill="none" stroke="#9a32cd" stroke-dasharray="5,2" d="M363.99,-86.03C358.86,-77.12 351.57,-66.78 342.5,-60 327.73,-48.96 309.6,-41.04 292.11,-35.39"/>
<polygon fill="#9a32cd" stroke="#9a32cd" points="360.9,-87.69 368.68,-94.88 367.09,-84.41 360.9,-87.69"/>
<text text-anchor="middle" x="383" y="-63" font-family="Helvetica,sans-Serif" font-size="10.00"> _generators</text>
</g>
</g>
</svg>
