<?xml version="1.0" encoding="UTF-8" standalone="no"?>
<!DOCTYPE svg PUBLIC "-//W3C//DTD SVG 1.1//EN"
 "http://www.w3.org/Graphics/SVG/1.1/DTD/svg11.dtd">
<!-- Generated by graphviz version 2.43.0 (0)
 -->
<!-- Title: CombinationGenerator&lt; T &gt;::ConstIterator Pages: 1 -->
<svg width="221pt" height="218pt"
 viewBox="0.00 0.00 221.00 218.00" xmlns="http://www.w3.org/2000/svg" xmlns:xlink="http://www.w3.org/1999/xlink">
<g id="graph0" class="graph" transform="scale(1 1) rotate(0) translate(4 214)">
<title>CombinationGenerator&lt; T &gt;::ConstIterator</title>
<polygon fill="white" stroke="transparent" points="-4,4 -4,-214 217,-214 217,4 -4,4"/>
<!-- Node1 -->
<g id="node1" class="node">
<title>Node1</title>
<g id="a_node1"><a xlink:title="Constant iterator that is used in a ranged for loop to generate the combinations.">
<polygon fill="#bfbfbf" stroke="black" points="23,-0.5 23,-30.5 151,-30.5 151,-0.5 23,-0.5"/>
<text text-anchor="start" x="31" y="-18.5" font-family="Helvetica,sans-Serif" font-size="10.00">CombinationGenerator</text>
<text text-anchor="middle" x="87" y="-7.5" font-family="Helvetica,sans-Serif" font-size="10.00">&lt; T &gt;::ConstIterator</text>
</a>
</g>
</g>
<!-- Node2 -->
<g id="node2" class="node">
<title>Node2</title>
<g id="a_node2"><a xlink:href="classsymmp_1_1FactoryGenerator.html" target="_top" xlink:title=" ">
<polygon fill="white" stroke="black" points="0,-68.5 0,-109.5 174,-109.5 174,-68.5 0,-68.5"/>
<text text-anchor="start" x="8" y="-97.5" font-family="Helvetica,sans-Serif" font-size="10.00">FactoryGenerator&lt; Combination</text>
<text text-anchor="start" x="8" y="-86.5" font-family="Helvetica,sans-Serif" font-size="10.00">Generator::ConstIterator,</text>
<text text-anchor="middle" x="87" y="-75.5" font-family="Helvetica,sans-Serif" font-size="10.00"> std::vector&lt; T &gt; &gt;</text>
</a>
</g>
</g>
<!-- Node2&#45;&gt;Node1 -->
<g id="edge1" class="edge">
<title>Node2&#45;&gt;Node1</title>
<path fill="none" stroke="midnightblue" d="M87,-58.16C87,-48.69 87,-38.65 87,-30.8"/>
<polygon fill="midnightblue" stroke="midnightblue" points="83.5,-58.46 87,-68.46 90.5,-58.46 83.5,-58.46"/>
</g>
<!-- Node3 -->
<g id="node3" class="node">
<title>Node3</title>
<g id="a_node3"><a xlink:href="classsymmp_1_1FactoryGenerator.html" target="_top" xlink:title="Prototype for coroutine&#45;like iterators that generate elements such as combinations.">
<polygon fill="white" stroke="black" points="20,-179.5 20,-209.5 154,-209.5 154,-179.5 20,-179.5"/>
<text text-anchor="start" x="28" y="-197.5" font-family="Helvetica,sans-Serif" font-size="10.00">FactoryGenerator&lt; spec</text>
<text text-anchor="middle" x="87" y="-186.5" font-family="Helvetica,sans-Serif" font-size="10.00">_t, gen_t &gt;</text>
</a>
</g>
</g>
<!-- Node3&#45;&gt;Node2 -->
<g id="edge2" class="edge">
<title>Node3&#45;&gt;Node2</title>
<path fill="none" stroke="orange" stroke-dasharray="5,2" d="M87,-168.99C87,-150.84 87,-126.42 87,-109.57"/>
<polygon fill="orange" stroke="orange" points="83.5,-169.11 87,-179.11 90.5,-169.11 83.5,-169.11"/>
<text text-anchor="start" x="87" y="-153" font-family="Helvetica,sans-Serif" font-size="10.00"> &lt; CombinationGenerator</text>
<text text-anchor="start" x="87" y="-142" font-family="Helvetica,sans-Serif" font-size="10.00">::ConstIterator, std::</text>
<text text-anchor="middle" x="150" y="-131" font-family="Helvetica,sans-Serif" font-size="10.00">vector&lt; T &gt; &gt;</text>
</g>
</g>
</svg>
