<?xml version="1.0" encoding="UTF-8" standalone="no"?>
<!DOCTYPE svg PUBLIC "-//W3C//DTD SVG 1.1//EN"
 "http://www.w3.org/Graphics/SVG/1.1/DTD/svg11.dtd">
<!-- Generated by graphviz version 2.43.0 (0)
 -->
<!-- Title: FactoryGenerator&lt; spec_t, gen_t &gt; Pages: 1 -->
<svg width="595pt" height="111pt"
 viewBox="0.00 0.00 595.00 111.00" xmlns="http://www.w3.org/2000/svg" xmlns:xlink="http://www.w3.org/1999/xlink">
<g id="graph0" class="graph" transform="scale(1 1) rotate(0) translate(4 107)">
<title>FactoryGenerator&lt; spec_t, gen_t &gt;</title>
<polygon fill="white" stroke="transparent" points="-4,4 -4,-107 591,-107 591,4 -4,4"/>
<!-- Node1 -->
<g id="node1" class="node">
<title>Node1</title>
<g id="a_node1"><a xlink:title="Prototype for coroutine&#45;like iterators that generate elements such as combinations.">
<polygon fill="#bfbfbf" stroke="black" points="0,-36 0,-66 134,-66 134,-36 0,-36"/>
<text text-anchor="start" x="8" y="-54" font-family="Helvetica,sans-Serif" font-size="10.00">FactoryGenerator&lt; spec</text>
<text text-anchor="middle" x="67" y="-43" font-family="Helvetica,sans-Serif" font-size="10.00">_t, gen_t &gt;</text>
</a>
</g>
</g>
<!-- Node2 -->
<g id="node2" class="node">
<title>Node2</title>
<g id="a_node2"><a xlink:href="classsymmp_1_1FactoryGenerator.html" target="_top" xlink:title=" ">
<polygon fill="white" stroke="black" points="297,-60.5 297,-101.5 469,-101.5 469,-60.5 297,-60.5"/>
<text text-anchor="start" x="305" y="-89.5" font-family="Helvetica,sans-Serif" font-size="10.00">FactoryGenerator&lt; Permutation</text>
<text text-anchor="start" x="305" y="-78.5" font-family="Helvetica,sans-Serif" font-size="10.00">Generator::ConstIterator,</text>
<text text-anchor="middle" x="383" y="-67.5" font-family="Helvetica,sans-Serif" font-size="10.00"> std::vector&lt; T &gt; &gt;</text>
</a>
</g>
</g>
<!-- Node1&#45;&gt;Node2 -->
<g id="edge1" class="edge">
<title>Node1&#45;&gt;Node2</title>
<path fill="none" stroke="orange" stroke-dasharray="5,2" d="M144.43,-58.3C190.48,-62.7 249.21,-68.31 296.76,-72.86"/>
<polygon fill="orange" stroke="orange" points="144.5,-54.79 134.21,-57.33 143.83,-61.76 144.5,-54.79"/>
<text text-anchor="start" x="153" y="-95" font-family="Helvetica,sans-Serif" font-size="10.00"> &lt; PermutationGenerator</text>
<text text-anchor="start" x="153" y="-84" font-family="Helvetica,sans-Serif" font-size="10.00">::ConstIterator, std::</text>
<text text-anchor="middle" x="215" y="-73" font-family="Helvetica,sans-Serif" font-size="10.00">vector&lt; T &gt; &gt;</text>
</g>
<!-- Node4 -->
<g id="node4" class="node">
<title>Node4</title>
<g id="a_node4"><a xlink:href="classsymmp_1_1FactoryGenerator.html" target="_top" xlink:title=" ">
<polygon fill="white" stroke="black" points="296,-0.5 296,-41.5 470,-41.5 470,-0.5 296,-0.5"/>
<text text-anchor="start" x="304" y="-29.5" font-family="Helvetica,sans-Serif" font-size="10.00">FactoryGenerator&lt; Combination</text>
<text text-anchor="start" x="304" y="-18.5" font-family="Helvetica,sans-Serif" font-size="10.00">Generator::ConstIterator,</text>
<text text-anchor="middle" x="383" y="-7.5" font-family="Helvetica,sans-Serif" font-size="10.00"> std::vector&lt; T &gt; &gt;</text>
</a>
</g>
</g>
<!-- Node1&#45;&gt;Node4 -->
<g id="edge3" class="edge">
<title>Node1&#45;&gt;Node4</title>
<path fill="none" stroke="orange" stroke-dasharray="5,2" d="M112.97,-32.44C125.4,-28.15 139.04,-24.2 152,-22 199.14,-13.99 252.51,-13.25 295.96,-14.74"/>
<polygon fill="orange" stroke="orange" points="111.51,-29.25 103.29,-35.93 113.89,-35.83 111.51,-29.25"/>
<text text-anchor="start" x="152" y="-47" font-family="Helvetica,sans-Serif" font-size="10.00"> &lt; CombinationGenerator</text>
<text text-anchor="start" x="152" y="-36" font-family="Helvetica,sans-Serif" font-size="10.00">::ConstIterator, std::</text>
<text text-anchor="middle" x="215" y="-25" font-family="Helvetica,sans-Serif" font-size="10.00">vector&lt; T &gt; &gt;</text>
</g>
<!-- Node3 -->
<g id="node3" class="node">
<title>Node3</title>
<g id="a_node3"><a xlink:href="classsymmp_1_1PermutationGenerator_1_1ConstIterator.html" target="_top" xlink:title="Constant iterator that is used in a ranged for loop to generate the permutations.">
<polygon fill="white" stroke="black" points="507,-71.5 507,-90.5 587,-90.5 587,-71.5 507,-71.5"/>
<text text-anchor="middle" x="547" y="-78.5" font-family="Helvetica,sans-Serif" font-size="10.00">ConstIterator</text>
</a>
</g>
</g>
<!-- Node2&#45;&gt;Node3 -->
<g id="edge2" class="edge">
<title>Node2&#45;&gt;Node3</title>
<path fill="none" stroke="midnightblue" d="M479.36,-81C488.96,-81 498.29,-81 506.77,-81"/>
<polygon fill="midnightblue" stroke="midnightblue" points="479.27,-77.5 469.27,-81 479.27,-84.5 479.27,-77.5"/>
</g>
<!-- Node5 -->
<g id="node5" class="node">
<title>Node5</title>
<g id="a_node5"><a xlink:href="classsymmp_1_1CombinationGenerator_1_1ConstIterator.html" target="_top" xlink:title="Constant iterator that is used in a ranged for loop to generate the combinations.">
<polygon fill="white" stroke="black" points="507,-11.5 507,-30.5 587,-30.5 587,-11.5 507,-11.5"/>
<text text-anchor="middle" x="547" y="-18.5" font-family="Helvetica,sans-Serif" font-size="10.00">ConstIterator</text>
</a>
</g>
</g>
<!-- Node4&#45;&gt;Node5 -->
<g id="edge4" class="edge">
<title>Node4&#45;&gt;Node5</title>
<path fill="none" stroke="midnightblue" d="M480.39,-21C489.69,-21 498.71,-21 506.93,-21"/>
<polygon fill="midnightblue" stroke="midnightblue" points="480.22,-17.5 470.22,-21 480.22,-24.5 480.22,-17.5"/>
</g>
</g>
</svg>
