<?xml version="1.0" encoding="UTF-8" standalone="no"?>
<!DOCTYPE svg PUBLIC "-//W3C//DTD SVG 1.1//EN"
 "http://www.w3.org/Graphics/SVG/1.1/DTD/svg11.dtd">
<!-- Generated by graphviz version 2.43.0 (0)
 -->
<!-- Title: operator&#45;= Pages: 1 -->
<svg width="243pt" height="66pt"
 viewBox="0.00 0.00 243.00 66.00" xmlns="http://www.w3.org/2000/svg" xmlns:xlink="http://www.w3.org/1999/xlink">
<g id="graph0" class="graph" transform="scale(1 1) rotate(0) translate(4 62)">
<title>operator&#45;=</title>
<polygon fill="white" stroke="transparent" points="-4,4 -4,-62 239,-62 239,4 -4,4"/>
<!-- Node1 -->
<g id="node1" class="node">
<title>Node1</title>
<g id="a_node1"><a xlink:title="Subtraction assignment.">
<polygon fill="#bfbfbf" stroke="black" points="0,-19.5 0,-38.5 70,-38.5 70,-19.5 0,-19.5"/>
<text text-anchor="middle" x="35" y="-26.5" font-family="Helvetica,sans-Serif" font-size="10.00">operator&#45;=</text>
</a>
</g>
</g>
<!-- Node2 -->
<g id="node2" class="node">
<title>Node2</title>
<g id="a_node2"><a xlink:href="classsymmp_1_1Polynomial.html#a5b2cb23f1a89d1c9cd17c9bbba894027" target="_top" xlink:title="Returns the number of monomials of the polynomial.">
<polygon fill="white" stroke="black" points="106,-38.5 106,-57.5 235,-57.5 235,-38.5 106,-38.5"/>
<text text-anchor="middle" x="170.5" y="-45.5" font-family="Helvetica,sans-Serif" font-size="10.00">number_of_monomials</text>
</a>
</g>
</g>
<!-- Node1&#45;&gt;Node2 -->
<g id="edge1" class="edge">
<title>Node1&#45;&gt;Node2</title>
<path fill="none" stroke="midnightblue" d="M70.03,-33.84C78,-34.98 86.8,-36.23 95.77,-37.51"/>
<polygon fill="midnightblue" stroke="midnightblue" points="95.53,-41.01 105.93,-38.95 96.52,-34.08 95.53,-41.01"/>
</g>
<!-- Node3 -->
<g id="node3" class="node">
<title>Node3</title>
<g id="a_node3"><a xlink:href="classsymmp_1_1Polynomial.html#af45d30f307f301b9d43fcdf52897bbce" target="_top" xlink:title="Reserves number of monomials.">
<polygon fill="white" stroke="black" points="144,-0.5 144,-19.5 197,-19.5 197,-0.5 144,-0.5"/>
<text text-anchor="middle" x="170.5" y="-7.5" font-family="Helvetica,sans-Serif" font-size="10.00">reserve</text>
</a>
</g>
</g>
<!-- Node1&#45;&gt;Node3 -->
<g id="edge2" class="edge">
<title>Node1&#45;&gt;Node3</title>
<path fill="none" stroke="midnightblue" d="M70.03,-24.16C89.55,-21.38 114.02,-17.9 133.8,-15.08"/>
<polygon fill="midnightblue" stroke="midnightblue" points="134.55,-18.51 143.96,-13.63 133.57,-11.58 134.55,-18.51"/>
</g>
</g>
</svg>
