<?xml version="1.0" encoding="UTF-8" standalone="no"?>
<!DOCTYPE svg PUBLIC "-//W3C//DTD SVG 1.1//EN"
 "http://www.w3.org/Graphics/SVG/1.1/DTD/svg11.dtd">
<!-- Generated by graphviz version 2.43.0 (0)
 -->
<!-- Title: begin Pages: 1 -->
<svg width="309pt" height="66pt"
 viewBox="0.00 0.00 309.00 66.00" xmlns="http://www.w3.org/2000/svg" xmlns:xlink="http://www.w3.org/1999/xlink">
<g id="graph0" class="graph" transform="scale(1 1) rotate(0) translate(4 62)">
<title>begin</title>
<polygon fill="white" stroke="transparent" points="-4,4 -4,-62 305,-62 305,4 -4,4"/>
<!-- Node1 -->
<g id="node1" class="node">
<title>Node1</title>
<g id="a_node1"><a xlink:title="constIterator to the beginning">
<polygon fill="#bfbfbf" stroke="black" points="257,-19.5 257,-38.5 301,-38.5 301,-19.5 257,-19.5"/>
<text text-anchor="middle" x="279" y="-26.5" font-family="Helvetica,sans-Serif" font-size="10.00">begin</text>
</a>
</g>
</g>
<!-- Node2 -->
<g id="node2" class="node">
<title>Node2</title>
<g id="a_node2"><a xlink:href="classsymmp_1_1Polynomial.html#ab33e8fa5b7a8209458ff2fc33374214b" target="_top" xlink:title="constIterator to the highest term monomial">
<polygon fill="white" stroke="black" points="121,-38.5 121,-57.5 202,-57.5 202,-38.5 121,-38.5"/>
<text text-anchor="middle" x="161.5" y="-45.5" font-family="Helvetica,sans-Serif" font-size="10.00">highest_term</text>
</a>
</g>
</g>
<!-- Node1&#45;&gt;Node2 -->
<g id="edge1" class="edge">
<title>Node1&#45;&gt;Node2</title>
<path fill="none" stroke="midnightblue" d="M246.89,-34.12C233.15,-36.38 216.84,-39.06 202.24,-41.46"/>
<polygon fill="midnightblue" stroke="midnightblue" points="247.52,-37.56 256.82,-32.48 246.38,-30.65 247.52,-37.56"/>
</g>
<!-- Node3 -->
<g id="node3" class="node">
<title>Node3</title>
<g id="a_node3"><a xlink:href="classsymmp_1_1Polynomial.html#a6ece838d12bfe695e2a59d94f8fc1856" target="_top" xlink:title="Returns the number of variables of the polynomial.">
<polygon fill="white" stroke="black" points="102,-0.5 102,-19.5 221,-19.5 221,-0.5 102,-0.5"/>
<text text-anchor="middle" x="161.5" y="-7.5" font-family="Helvetica,sans-Serif" font-size="10.00">number_of_variables</text>
</a>
</g>
</g>
<!-- Node1&#45;&gt;Node3 -->
<g id="edge2" class="edge">
<title>Node1&#45;&gt;Node3</title>
<path fill="none" stroke="midnightblue" d="M246.75,-23.86C238.65,-22.53 229.66,-21.05 220.66,-19.57"/>
<polygon fill="midnightblue" stroke="midnightblue" points="246.38,-27.35 256.82,-25.52 247.52,-20.44 246.38,-27.35"/>
</g>
<!-- Node4 -->
<g id="node4" class="node">
<title>Node4</title>
<g id="a_node4"><a xlink:href="classsymmp_1_1Polynomial.html#a39143ef3ebb433a42659875d3b955daf" target="_top" xlink:title=" ">
<polygon fill="white" stroke="black" points="0,-0.5 0,-19.5 66,-19.5 66,-0.5 0,-0.5"/>
<text text-anchor="middle" x="33" y="-7.5" font-family="Helvetica,sans-Serif" font-size="10.00">operator^</text>
</a>
</g>
</g>
<!-- Node3&#45;&gt;Node4 -->
<g id="edge3" class="edge">
<title>Node3&#45;&gt;Node4</title>
<path fill="none" stroke="midnightblue" d="M91.63,-10C82.73,-10 73.98,-10 66.1,-10"/>
<polygon fill="midnightblue" stroke="midnightblue" points="91.69,-13.5 101.69,-10 91.69,-6.5 91.69,-13.5"/>
</g>
</g>
</svg>
