<?xml version="1.0" encoding="UTF-8" standalone="no"?>
<!DOCTYPE svg PUBLIC "-//W3C//DTD SVG 1.1//EN"
 "http://www.w3.org/Graphics/SVG/1.1/DTD/svg11.dtd">
<!-- Generated by graphviz version 2.43.0 (0)
 -->
<!-- Title: FactoryGenerator&lt; spec_t, gen_t &gt; Pages: 1 -->
<svg width="594pt" height="148pt"
 viewBox="0.00 0.00 594.00 148.00" xmlns="http://www.w3.org/2000/svg" xmlns:xlink="http://www.w3.org/1999/xlink">
<g id="graph0" class="graph" transform="scale(1 1) rotate(0) translate(4 144)">
<title>FactoryGenerator&lt; spec_t, gen_t &gt;</title>
<polygon fill="white" stroke="transparent" points="-4,4 -4,-144 590,-144 590,4 -4,4"/>
<!-- Node1 -->
<g id="node1" class="node">
<title>Node1</title>
<g id="a_node1"><a xlink:title="Prototype for coroutine&#45;like iterators that generate elements such as combinations.">
<polygon fill="#bfbfbf" stroke="black" points="0,-66 0,-96 134,-96 134,-66 0,-66"/>
<text text-anchor="start" x="8" y="-84" font-family="Helvetica,sans-Serif" font-size="10.00">FactoryGenerator&lt; spec</text>
<text text-anchor="middle" x="67" y="-73" font-family="Helvetica,sans-Serif" font-size="10.00">_t, gen_t &gt;</text>
</a>
</g>
</g>
<!-- Node2 -->
<g id="node2" class="node">
<title>Node2</title>
<g id="a_node2"><a xlink:href="classsymmp_1_1CombinationGenerator_1_1constIterator.html" target="_top" xlink:title="Constant iterator that is used in a ranged for loop to generate the combinations.">
<polygon fill="white" stroke="black" points="343.5,-120.5 343.5,-139.5 422.5,-139.5 422.5,-120.5 343.5,-120.5"/>
<text text-anchor="middle" x="383" y="-127.5" font-family="Helvetica,sans-Serif" font-size="10.00">constIterator</text>
</a>
</g>
</g>
<!-- Node1&#45;&gt;Node2 -->
<g id="edge1" class="edge">
<title>Node1&#45;&gt;Node2</title>
<path fill="none" stroke="midnightblue" d="M106.78,-100.34C120.71,-106.42 136.74,-112.46 152,-116 217.86,-131.27 297,-132.48 343.18,-131.54"/>
<polygon fill="midnightblue" stroke="midnightblue" points="108.07,-97.08 97.52,-96.15 105.19,-103.46 108.07,-97.08"/>
</g>
<!-- Node3 -->
<g id="node3" class="node">
<title>Node3</title>
<g id="a_node3"><a xlink:href="classsymmp_1_1FactoryGenerator.html" target="_top" xlink:title=" ">
<polygon fill="white" stroke="black" points="297,-60.5 297,-101.5 469,-101.5 469,-60.5 297,-60.5"/>
<text text-anchor="start" x="305" y="-89.5" font-family="Helvetica,sans-Serif" font-size="10.00">FactoryGenerator&lt; Permutation</text>
<text text-anchor="start" x="305" y="-78.5" font-family="Helvetica,sans-Serif" font-size="10.00">Generator::constIterator,</text>
<text text-anchor="middle" x="383" y="-67.5" font-family="Helvetica,sans-Serif" font-size="10.00"> std::vector&lt; T &gt; &gt;</text>
</a>
</g>
</g>
<!-- Node1&#45;&gt;Node3 -->
<g id="edge2" class="edge">
<title>Node1&#45;&gt;Node3</title>
<path fill="none" stroke="orange" stroke-dasharray="5,2" d="M144.43,-81C190.48,-81 249.21,-81 296.76,-81"/>
<polygon fill="orange" stroke="orange" points="144.21,-77.5 134.21,-81 144.21,-84.5 144.21,-77.5"/>
<text text-anchor="start" x="153" y="-106" font-family="Helvetica,sans-Serif" font-size="10.00"> &lt; PermutationGenerator</text>
<text text-anchor="start" x="153" y="-95" font-family="Helvetica,sans-Serif" font-size="10.00">::constIterator, std::</text>
<text text-anchor="middle" x="215" y="-84" font-family="Helvetica,sans-Serif" font-size="10.00">vector&lt; T &gt; &gt;</text>
</g>
<!-- Node5 -->
<g id="node5" class="node">
<title>Node5</title>
<g id="a_node5"><a xlink:href="classsymmp_1_1FactoryGenerator.html" target="_top" xlink:title=" ">
<polygon fill="white" stroke="black" points="296,-0.5 296,-41.5 470,-41.5 470,-0.5 296,-0.5"/>
<text text-anchor="start" x="304" y="-29.5" font-family="Helvetica,sans-Serif" font-size="10.00">FactoryGenerator&lt; Combination</text>
<text text-anchor="start" x="304" y="-18.5" font-family="Helvetica,sans-Serif" font-size="10.00">Generator::constIterator,</text>
<text text-anchor="middle" x="383" y="-7.5" font-family="Helvetica,sans-Serif" font-size="10.00"> std::vector&lt; T &gt; &gt;</text>
</a>
</g>
</g>
<!-- Node1&#45;&gt;Node5 -->
<g id="edge4" class="edge">
<title>Node1&#45;&gt;Node5</title>
<path fill="none" stroke="orange" stroke-dasharray="5,2" d="M105.74,-61.35C119.89,-54.79 136.35,-48.12 152,-44 198.67,-31.72 252.24,-25.9 295.94,-23.18"/>
<polygon fill="orange" stroke="orange" points="103.86,-58.36 96.34,-65.83 106.88,-64.68 103.86,-58.36"/>
<text text-anchor="start" x="152" y="-69" font-family="Helvetica,sans-Serif" font-size="10.00"> &lt; CombinationGenerator</text>
<text text-anchor="start" x="152" y="-58" font-family="Helvetica,sans-Serif" font-size="10.00">::constIterator, std::</text>
<text text-anchor="middle" x="215" y="-47" font-family="Helvetica,sans-Serif" font-size="10.00">vector&lt; T &gt; &gt;</text>
</g>
<!-- Node4 -->
<g id="node4" class="node">
<title>Node4</title>
<g id="a_node4"><a xlink:href="classsymmp_1_1PermutationGenerator_1_1constIterator.html" target="_top" xlink:title="Constant iterator that is used in a ranged for loop to generate the permutations.">
<polygon fill="white" stroke="black" points="507,-71.5 507,-90.5 586,-90.5 586,-71.5 507,-71.5"/>
<text text-anchor="middle" x="546.5" y="-78.5" font-family="Helvetica,sans-Serif" font-size="10.00">constIterator</text>
</a>
</g>
</g>
<!-- Node3&#45;&gt;Node4 -->
<g id="edge3" class="edge">
<title>Node3&#45;&gt;Node4</title>
<path fill="none" stroke="midnightblue" d="M479.18,-81C488.86,-81 498.26,-81 506.79,-81"/>
<polygon fill="midnightblue" stroke="midnightblue" points="479.01,-77.5 469.01,-81 479.01,-84.5 479.01,-77.5"/>
</g>
</g>
</svg>
