<?xml version="1.0" encoding="UTF-8" standalone="no"?>
<!DOCTYPE svg PUBLIC "-//W3C//DTD SVG 1.1//EN"
 "http://www.w3.org/Graphics/SVG/1.1/DTD/svg11.dtd">
<!-- Generated by graphviz version 2.43.0 (0)
 -->
<!-- Title: SymmetricBasis&lt; x_poly_t, e_poly_t &gt; Pages: 1 -->
<svg width="450pt" height="452pt"
 viewBox="0.00 0.00 450.00 452.00" xmlns="http://www.w3.org/2000/svg" xmlns:xlink="http://www.w3.org/1999/xlink">
<g id="graph0" class="graph" transform="scale(1 1) rotate(0) translate(4 448)">
<title>SymmetricBasis&lt; x_poly_t, e_poly_t &gt;</title>
<polygon fill="white" stroke="transparent" points="-4,4 -4,-448 446,-448 446,4 -4,4"/>
<!-- Node1 -->
<g id="node1" class="node">
<title>Node1</title>
<g id="a_node1"><a xlink:title="Class for symmetric polynomials with no relations, allowing transformation from &#160;variables to &#160;variab...">
<polygon fill="#bfbfbf" stroke="black" points="157,-0.5 157,-30.5 297,-30.5 297,-0.5 157,-0.5"/>
<text text-anchor="start" x="165" y="-18.5" font-family="Helvetica,sans-Serif" font-size="10.00">SymmetricBasis&lt; x_poly</text>
<text text-anchor="middle" x="227" y="-7.5" font-family="Helvetica,sans-Serif" font-size="10.00">_t, e_poly_t &gt;</text>
</a>
</g>
</g>
<!-- Node2 -->
<g id="node2" class="node">
<title>Node2</title>
<g id="a_node2"><a xlink:href="classsymmp_1_1PolynomialBasis.html" target="_top" xlink:title=" ">
<polygon fill="white" stroke="black" points="146,-68.5 146,-109.5 308,-109.5 308,-68.5 146,-68.5"/>
<text text-anchor="start" x="154" y="-97.5" font-family="Helvetica,sans-Serif" font-size="10.00">PolynomialBasis&lt; Symmetric</text>
<text text-anchor="start" x="154" y="-86.5" font-family="Helvetica,sans-Serif" font-size="10.00">Basis&lt; x_poly_t, e_poly</text>
<text text-anchor="middle" x="227" y="-75.5" font-family="Helvetica,sans-Serif" font-size="10.00">_t &gt;, x_poly_t, e_poly_t &gt;</text>
</a>
</g>
</g>
<!-- Node2&#45;&gt;Node1 -->
<g id="edge1" class="edge">
<title>Node2&#45;&gt;Node1</title>
<path fill="none" stroke="midnightblue" d="M227,-58.16C227,-48.69 227,-38.65 227,-30.8"/>
<polygon fill="midnightblue" stroke="midnightblue" points="223.5,-58.46 227,-68.46 230.5,-58.46 223.5,-58.46"/>
</g>
<!-- Node3 -->
<g id="node3" class="node">
<title>Node3</title>
<g id="a_node3"><a xlink:href="classsymmp_1_1PolynomialBasis.html" target="_top" xlink:title="Factory class that provides the general interface of a generating basis for a subring of a polynomial...">
<polygon fill="white" stroke="black" points="161.5,-179.5 161.5,-220.5 292.5,-220.5 292.5,-179.5 161.5,-179.5"/>
<text text-anchor="start" x="169.5" y="-208.5" font-family="Helvetica,sans-Serif" font-size="10.00">PolynomialBasis&lt; spec</text>
<text text-anchor="start" x="169.5" y="-197.5" font-family="Helvetica,sans-Serif" font-size="10.00">_t, orig_poly_t, new</text>
<text text-anchor="middle" x="227" y="-186.5" font-family="Helvetica,sans-Serif" font-size="10.00">_poly_t &gt;</text>
</a>
</g>
</g>
<!-- Node3&#45;&gt;Node2 -->
<g id="edge2" class="edge">
<title>Node3&#45;&gt;Node2</title>
<path fill="none" stroke="orange" stroke-dasharray="5,2" d="M227,-169.05C227,-150.1 227,-126.14 227,-109.59"/>
<polygon fill="orange" stroke="orange" points="223.5,-169.26 227,-179.26 230.5,-169.26 223.5,-169.26"/>
<text text-anchor="start" x="227" y="-153" font-family="Helvetica,sans-Serif" font-size="10.00"> &lt; SymmetricBasis&lt; x</text>
<text text-anchor="start" x="227" y="-142" font-family="Helvetica,sans-Serif" font-size="10.00">_poly_t, e_poly_t &gt;,</text>
<text text-anchor="middle" x="283" y="-131" font-family="Helvetica,sans-Serif" font-size="10.00"> x_poly_t, e_poly_t &gt;</text>
</g>
<!-- Node4 -->
<g id="node4" class="node">
<title>Node4</title>
<g id="a_node4"><a xlink:title=" ">
<polygon fill="white" stroke="#bfbfbf" points="24.5,-274 24.5,-293 143.5,-293 143.5,-274 24.5,-274"/>
<text text-anchor="middle" x="84" y="-281" font-family="Helvetica,sans-Serif" font-size="10.00">vector&lt; std::string &gt;</text>
</a>
</g>
</g>
<!-- Node4&#45;&gt;Node3 -->
<g id="edge3" class="edge">
<title>Node4&#45;&gt;Node3</title>
<path fill="none" stroke="#9a32cd" stroke-dasharray="5,2" d="M99.51,-266.62C108.88,-257.66 121.42,-246.75 134,-239 145.29,-232.05 158.07,-225.88 170.46,-220.63"/>
<polygon fill="#9a32cd" stroke="#9a32cd" points="96.83,-264.35 92.16,-273.86 101.74,-269.34 96.83,-264.35"/>
<text text-anchor="middle" x="178.5" y="-242" font-family="Helvetica,sans-Serif" font-size="10.00"> generator_names</text>
</g>
<!-- Node5 -->
<g id="node5" class="node">
<title>Node5</title>
<g id="a_node5"><a xlink:title=" ">
<polygon fill="white" stroke="#bfbfbf" points="38,-357.5 38,-376.5 82,-376.5 82,-357.5 38,-357.5"/>
<text text-anchor="middle" x="60" y="-364.5" font-family="Helvetica,sans-Serif" font-size="10.00">string</text>
</a>
</g>
</g>
<!-- Node5&#45;&gt;Node4 -->
<g id="edge4" class="edge">
<title>Node5&#45;&gt;Node4</title>
<path fill="none" stroke="#9a32cd" stroke-dasharray="5,2" d="M57.84,-347.29C57.39,-337.96 57.82,-326.65 61,-317 63.98,-307.94 70.43,-299.2 75.75,-293.07"/>
<polygon fill="#9a32cd" stroke="#9a32cd" points="54.36,-347.75 58.69,-357.42 61.34,-347.17 54.36,-347.75"/>
<text text-anchor="middle" x="85.5" y="-325.5" font-family="Helvetica,sans-Serif" font-size="10.00"> elements</text>
</g>
<!-- Node6 -->
<g id="node6" class="node">
<title>Node6</title>
<g id="a_node6"><a xlink:title=" ">
<polygon fill="white" stroke="#bfbfbf" points="0,-424.5 0,-443.5 120,-443.5 120,-424.5 0,-424.5"/>
<text text-anchor="middle" x="60" y="-431.5" font-family="Helvetica,sans-Serif" font-size="10.00">basic_string&lt; Char &gt;</text>
</a>
</g>
</g>
<!-- Node6&#45;&gt;Node5 -->
<g id="edge5" class="edge">
<title>Node6&#45;&gt;Node5</title>
<path fill="none" stroke="midnightblue" d="M60,-414.04C60,-401.67 60,-386.12 60,-376.63"/>
<polygon fill="midnightblue" stroke="midnightblue" points="56.5,-414.23 60,-424.23 63.5,-414.23 56.5,-414.23"/>
</g>
<!-- Node7 -->
<g id="node7" class="node">
<title>Node7</title>
<g id="a_node7"><a xlink:title=" ">
<polygon fill="white" stroke="#bfbfbf" points="192,-357.5 192,-376.5 268,-376.5 268,-357.5 192,-357.5"/>
<text text-anchor="middle" x="230" y="-364.5" font-family="Helvetica,sans-Serif" font-size="10.00">vector&lt; T &gt;</text>
</a>
</g>
</g>
<!-- Node7&#45;&gt;Node4 -->
<g id="edge6" class="edge">
<title>Node7&#45;&gt;Node4</title>
<path fill="none" stroke="orange" stroke-dasharray="5,2" d="M185.89,-354.3C173.87,-350.27 161.11,-345.18 150,-339 126.89,-326.14 104.01,-304.81 92.21,-293.01"/>
<polygon fill="orange" stroke="orange" points="185.17,-357.75 195.76,-357.44 187.29,-351.08 185.17,-357.75"/>
<text text-anchor="middle" x="187.5" y="-325.5" font-family="Helvetica,sans-Serif" font-size="10.00"> &lt; std::string &gt;</text>
</g>
<!-- Node9 -->
<g id="node9" class="node">
<title>Node9</title>
<g id="a_node9"><a xlink:title=" ">
<polygon fill="white" stroke="#bfbfbf" points="161.5,-268.5 161.5,-298.5 292.5,-298.5 292.5,-268.5 161.5,-268.5"/>
<text text-anchor="start" x="169.5" y="-286.5" font-family="Helvetica,sans-Serif" font-size="10.00">vector&lt; typename new</text>
<text text-anchor="middle" x="227" y="-275.5" font-family="Helvetica,sans-Serif" font-size="10.00">_poly_t::deg_t &gt;</text>
</a>
</g>
</g>
<!-- Node7&#45;&gt;Node9 -->
<g id="edge9" class="edge">
<title>Node7&#45;&gt;Node9</title>
<path fill="none" stroke="orange" stroke-dasharray="5,2" d="M229.31,-347.23C228.76,-332.41 228.01,-312.05 227.52,-298.6"/>
<polygon fill="orange" stroke="orange" points="225.81,-347.41 229.68,-357.28 232.81,-347.16 225.81,-347.41"/>
<text text-anchor="start" x="229" y="-331" font-family="Helvetica,sans-Serif" font-size="10.00"> &lt; typename new_poly</text>
<text text-anchor="middle" x="286" y="-320" font-family="Helvetica,sans-Serif" font-size="10.00">_t::deg_t &gt;</text>
</g>
<!-- Node10 -->
<g id="node10" class="node">
<title>Node10</title>
<g id="a_node10"><a xlink:title=" ">
<polygon fill="white" stroke="#bfbfbf" points="311,-274 311,-293 435,-293 435,-274 311,-274"/>
<text text-anchor="middle" x="373" y="-281" font-family="Helvetica,sans-Serif" font-size="10.00">vector&lt; orig_poly_t &gt;</text>
</a>
</g>
</g>
<!-- Node7&#45;&gt;Node10 -->
<g id="edge11" class="edge">
<title>Node7&#45;&gt;Node10</title>
<path fill="none" stroke="orange" stroke-dasharray="5,2" d="M278.4,-364.37C301.29,-361.38 327.75,-354.44 347,-339 361.55,-327.32 368.44,-305.53 371.28,-293.34"/>
<polygon fill="orange" stroke="orange" points="277.74,-360.92 268.17,-365.48 278.49,-367.88 277.74,-360.92"/>
<text text-anchor="middle" x="402" y="-325.5" font-family="Helvetica,sans-Serif" font-size="10.00"> &lt; orig_poly_t &gt;</text>
</g>
<!-- Node8 -->
<g id="node8" class="node">
<title>Node8</title>
<g id="a_node8"><a xlink:title=" ">
<polygon fill="white" stroke="#bfbfbf" points="215.5,-424.5 215.5,-443.5 244.5,-443.5 244.5,-424.5 215.5,-424.5"/>
<text text-anchor="middle" x="230" y="-431.5" font-family="Helvetica,sans-Serif" font-size="10.00">T</text>
</a>
</g>
</g>
<!-- Node8&#45;&gt;Node7 -->
<g id="edge7" class="edge">
<title>Node8&#45;&gt;Node7</title>
<path fill="none" stroke="#9a32cd" stroke-dasharray="5,2" d="M230,-414.04C230,-401.67 230,-386.12 230,-376.63"/>
<polygon fill="#9a32cd" stroke="#9a32cd" points="226.5,-414.23 230,-424.23 233.5,-414.23 226.5,-414.23"/>
<text text-anchor="middle" x="254.5" y="-398" font-family="Helvetica,sans-Serif" font-size="10.00"> elements</text>
</g>
<!-- Node9&#45;&gt;Node3 -->
<g id="edge8" class="edge">
<title>Node9&#45;&gt;Node3</title>
<path fill="none" stroke="#9a32cd" stroke-dasharray="5,2" d="M227,-258.07C227,-246.06 227,-231.79 227,-220.53"/>
<polygon fill="#9a32cd" stroke="#9a32cd" points="223.5,-258.3 227,-268.3 230.5,-258.3 223.5,-258.3"/>
<text text-anchor="middle" x="283" y="-242" font-family="Helvetica,sans-Serif" font-size="10.00"> generator_dimensions</text>
</g>
<!-- Node10&#45;&gt;Node3 -->
<g id="edge10" class="edge">
<title>Node10&#45;&gt;Node3</title>
<path fill="none" stroke="#9a32cd" stroke-dasharray="5,2" d="M364.49,-265.03C359.36,-256.12 352.07,-245.78 343,-239 328.23,-227.96 310.1,-220.04 292.61,-214.39"/>
<polygon fill="#9a32cd" stroke="#9a32cd" points="361.4,-266.69 369.18,-273.88 367.59,-263.41 361.4,-266.69"/>
<text text-anchor="middle" x="383.5" y="-242" font-family="Helvetica,sans-Serif" font-size="10.00"> _generators</text>
</g>
</g>
</svg>
