<?xml version="1.0" encoding="UTF-8" standalone="no"?>
<!DOCTYPE svg PUBLIC "-//W3C//DTD SVG 1.1//EN"
 "http://www.w3.org/Graphics/SVG/1.1/DTD/svg11.dtd">
<!-- Generated by graphviz version 2.43.0 (0)
 -->
<!-- Title: reserve Pages: 1 -->
<svg width="171pt" height="66pt"
 viewBox="0.00 0.00 171.00 66.00" xmlns="http://www.w3.org/2000/svg" xmlns:xlink="http://www.w3.org/1999/xlink">
<g id="graph0" class="graph" transform="scale(1 1) rotate(0) translate(4 62)">
<title>reserve</title>
<polygon fill="white" stroke="transparent" points="-4,4 -4,-62 167,-62 167,4 -4,4"/>
<!-- Node1 -->
<g id="node1" class="node">
<title>Node1</title>
<g id="a_node1"><a xlink:title="Reserves number of monomials.">
<polygon fill="#bfbfbf" stroke="black" points="110,-19.5 110,-38.5 163,-38.5 163,-19.5 110,-19.5"/>
<text text-anchor="middle" x="136.5" y="-26.5" font-family="Helvetica,sans-Serif" font-size="10.00">reserve</text>
</a>
</g>
</g>
<!-- Node2 -->
<g id="node2" class="node">
<title>Node2</title>
<g id="a_node2"><a xlink:href="classsymmp_1_1Polynomial.html#ae8bc93292a214bd7740d48a5a1f2e40d" target="_top" xlink:title="Addition assignment.">
<polygon fill="white" stroke="black" points="0,-38.5 0,-57.5 74,-57.5 74,-38.5 0,-38.5"/>
<text text-anchor="middle" x="37" y="-45.5" font-family="Helvetica,sans-Serif" font-size="10.00">operator+=</text>
</a>
</g>
</g>
<!-- Node1&#45;&gt;Node2 -->
<g id="edge1" class="edge">
<title>Node1&#45;&gt;Node2</title>
<path fill="none" stroke="midnightblue" d="M99.96,-35.93C91.53,-37.57 82.53,-39.32 74.08,-40.97"/>
<polygon fill="midnightblue" stroke="midnightblue" points="100.74,-39.34 109.88,-33.99 99.4,-32.47 100.74,-39.34"/>
</g>
<!-- Node3 -->
<g id="node3" class="node">
<title>Node3</title>
<g id="a_node3"><a xlink:href="classsymmp_1_1Polynomial.html#a0d07b8fa3397cbaac73b99cec175abde" target="_top" xlink:title="Subtraction assignment.">
<polygon fill="white" stroke="black" points="2,-0.5 2,-19.5 72,-19.5 72,-0.5 2,-0.5"/>
<text text-anchor="middle" x="37" y="-7.5" font-family="Helvetica,sans-Serif" font-size="10.00">operator&#45;=</text>
</a>
</g>
</g>
<!-- Node1&#45;&gt;Node3 -->
<g id="edge2" class="edge">
<title>Node1&#45;&gt;Node3</title>
<path fill="none" stroke="midnightblue" d="M100.01,-22.08C90.96,-20.32 81.24,-18.43 72.25,-16.67"/>
<polygon fill="midnightblue" stroke="midnightblue" points="99.4,-25.53 109.88,-24.01 100.74,-18.66 99.4,-25.53"/>
</g>
</g>
</svg>
