<?xml version="1.0" encoding="UTF-8" standalone="no"?>
<!DOCTYPE svg PUBLIC "-//W3C//DTD SVG 1.1//EN"
 "http://www.w3.org/Graphics/SVG/1.1/DTD/svg11.dtd">
<!-- Generated by graphviz version 2.43.0 (0)
 -->
<!-- Title: show_and_tell Pages: 1 -->
<svg width="297pt" height="78pt"
 viewBox="0.00 0.00 297.00 77.50" xmlns="http://www.w3.org/2000/svg" xmlns:xlink="http://www.w3.org/1999/xlink">
<g id="graph0" class="graph" transform="scale(1 1) rotate(0) translate(4 73.5)">
<title>show_and_tell</title>
<polygon fill="white" stroke="transparent" points="-4,4 -4,-73.5 293,-73.5 293,4 -4,4"/>
<!-- Node1 -->
<g id="node1" class="node">
<title>Node1</title>
<g id="a_node1"><a xlink:title="User facing interface for computing relations/writing Pontryagin/symplectic in terms of Chern.">
<polygon fill="#bfbfbf" stroke="black" points="0,-28 0,-47 86,-47 86,-28 0,-28"/>
<text text-anchor="middle" x="43" y="-35" font-family="Helvetica,sans-Serif" font-size="10.00">show_and_tell</text>
</a>
</g>
</g>
<!-- Node2 -->
<g id="node2" class="node">
<title>Node2</title>
<g id="a_node2"><a xlink:href="Demo_8cpp.html#a1384cc6cbf29bfb22536612c7e556cef" target="_top" xlink:title="Writes the twisted Pontryagin (symplectic) classes &#160;( ) in terms of the Chern classes under the forge...">
<polygon fill="white" stroke="black" points="144.5,-50 144.5,-69 266.5,-69 266.5,-50 144.5,-50"/>
<text text-anchor="middle" x="205.5" y="-57" font-family="Helvetica,sans-Serif" font-size="10.00">pontryagin_via_chern</text>
</a>
</g>
</g>
<!-- Node1&#45;&gt;Node2 -->
<g id="edge1" class="edge">
<title>Node1&#45;&gt;Node2</title>
<path fill="none" stroke="midnightblue" d="M86.17,-43.28C100.86,-45.29 117.77,-47.61 134.12,-49.85"/>
<polygon fill="midnightblue" stroke="midnightblue" points="133.82,-53.34 144.2,-51.24 134.77,-46.41 133.82,-53.34"/>
</g>
<!-- Node3 -->
<g id="node3" class="node">
<title>Node3</title>
<g id="a_node3"><a xlink:href="namespacesymmp.html#aa479f22963630dec8f21e1420de70565" target="_top" xlink:title="Prints the relations of .">
<polygon fill="white" stroke="black" points="122,-0.5 122,-30.5 289,-30.5 289,-0.5 122,-0.5"/>
<text text-anchor="start" x="130" y="-18.5" font-family="Helvetica,sans-Serif" font-size="10.00">symmp::print_half_idempotent</text>
<text text-anchor="middle" x="205.5" y="-7.5" font-family="Helvetica,sans-Serif" font-size="10.00">_relations</text>
</a>
</g>
</g>
<!-- Node1&#45;&gt;Node3 -->
<g id="edge2" class="edge">
<title>Node1&#45;&gt;Node3</title>
<path fill="none" stroke="midnightblue" d="M86.17,-31.72C94.2,-30.62 102.89,-29.43 111.79,-28.21"/>
<polygon fill="midnightblue" stroke="midnightblue" points="112.48,-31.65 121.91,-26.82 111.53,-24.71 112.48,-31.65"/>
</g>
</g>
</svg>
