<?xml version="1.0" encoding="UTF-8" standalone="no"?>
<!DOCTYPE svg PUBLIC "-//W3C//DTD SVG 1.1//EN"
 "http://www.w3.org/Graphics/SVG/1.1/DTD/svg11.dtd">
<!-- Generated by graphviz version 2.43.0 (0)
 -->
<!-- Title: Demo.cpp Pages: 1 -->
<svg width="964pt" height="308pt"
 viewBox="0.00 0.00 964.36 308.00" xmlns="http://www.w3.org/2000/svg" xmlns:xlink="http://www.w3.org/1999/xlink">
<g id="graph0" class="graph" transform="scale(1 1) rotate(0) translate(4 304)">
<title>Demo.cpp</title>
<polygon fill="white" stroke="transparent" points="-4,4 -4,-304 960.36,-304 960.36,4 -4,4"/>
<!-- Node1 -->
<g id="node1" class="node">
<title>Node1</title>
<g id="a_node1"><a xlink:title="A demonstration file that can be compiled.">
<polygon fill="#bfbfbf" stroke="black" points="786.86,-280.5 786.86,-299.5 852.86,-299.5 852.86,-280.5 786.86,-280.5"/>
<text text-anchor="middle" x="819.86" y="-287.5" font-family="Helvetica,sans-Serif" font-size="10.00">Demo.cpp</text>
</a>
</g>
</g>
<!-- Node2 -->
<g id="node2" class="node">
<title>Node2</title>
<g id="a_node2"><a xlink:href="Half__Idempotent_8hpp.html" target="_top" xlink:title="Contains the methods and classes for symmetric polynomials with half idempotent variables.">
<polygon fill="white" stroke="black" points="709.36,-224.5 709.36,-243.5 828.36,-243.5 828.36,-224.5 709.36,-224.5"/>
<text text-anchor="middle" x="768.86" y="-231.5" font-family="Helvetica,sans-Serif" font-size="10.00">Half_Idempotent.hpp</text>
</a>
</g>
</g>
<!-- Node1&#45;&gt;Node2 -->
<g id="edge1" class="edge">
<title>Node1&#45;&gt;Node2</title>
<path fill="none" stroke="midnightblue" d="M811.44,-280.08C804.02,-272.22 793.01,-260.57 784.05,-251.08"/>
<polygon fill="midnightblue" stroke="midnightblue" points="786.54,-248.62 777.13,-243.75 781.45,-253.42 786.54,-248.62"/>
</g>
<!-- Node22 -->
<g id="node22" class="node">
<title>Node22</title>
<g id="a_node22"><a xlink:title=" ">
<polygon fill="white" stroke="#bfbfbf" points="846.86,-224.5 846.86,-243.5 896.86,-243.5 896.86,-224.5 846.86,-224.5"/>
<text text-anchor="middle" x="871.86" y="-231.5" font-family="Helvetica,sans-Serif" font-size="10.00">chrono</text>
</a>
</g>
</g>
<!-- Node1&#45;&gt;Node22 -->
<g id="edge23" class="edge">
<title>Node1&#45;&gt;Node22</title>
<path fill="none" stroke="midnightblue" d="M828.45,-280.08C836.02,-272.22 847.24,-260.57 856.38,-251.08"/>
<polygon fill="midnightblue" stroke="midnightblue" points="859.02,-253.38 863.44,-243.75 853.98,-248.53 859.02,-253.38"/>
</g>
<!-- Node3 -->
<g id="node3" class="node">
<title>Node3</title>
<g id="a_node3"><a xlink:href="Symmetric__Basis_8hpp.html" target="_top" xlink:title="Contains the methods and classes for generatic symmetric polynomials.">
<polygon fill="white" stroke="black" points="600.86,-168.5 600.86,-187.5 722.86,-187.5 722.86,-168.5 600.86,-168.5"/>
<text text-anchor="middle" x="661.86" y="-175.5" font-family="Helvetica,sans-Serif" font-size="10.00">Symmetric_Basis.hpp</text>
</a>
</g>
</g>
<!-- Node2&#45;&gt;Node3 -->
<g id="edge2" class="edge">
<title>Node2&#45;&gt;Node3</title>
<path fill="none" stroke="midnightblue" d="M751.67,-224.32C734.51,-215.66 707.92,-202.24 688.12,-192.25"/>
<polygon fill="midnightblue" stroke="midnightblue" points="689.52,-189.04 679.01,-187.65 686.36,-195.28 689.52,-189.04"/>
</g>
<!-- Node20 -->
<g id="node20" class="node">
<title>Node20</title>
<g id="a_node20"><a xlink:title=" ">
<polygon fill="white" stroke="#bfbfbf" points="740.86,-168.5 740.86,-187.5 796.86,-187.5 796.86,-168.5 740.86,-168.5"/>
<text text-anchor="middle" x="768.86" y="-175.5" font-family="Helvetica,sans-Serif" font-size="10.00">sstream</text>
</a>
</g>
</g>
<!-- Node2&#45;&gt;Node20 -->
<g id="edge21" class="edge">
<title>Node2&#45;&gt;Node20</title>
<path fill="none" stroke="midnightblue" d="M768.86,-224.08C768.86,-217.01 768.86,-206.86 768.86,-197.99"/>
<polygon fill="midnightblue" stroke="midnightblue" points="772.36,-197.75 768.86,-187.75 765.36,-197.75 772.36,-197.75"/>
</g>
<!-- Node21 -->
<g id="node21" class="node">
<title>Node21</title>
<g id="a_node21"><a xlink:title=" ">
<polygon fill="white" stroke="#bfbfbf" points="815.36,-168.5 815.36,-187.5 956.36,-187.5 956.36,-168.5 815.36,-168.5"/>
<text text-anchor="middle" x="885.86" y="-175.5" font-family="Helvetica,sans-Serif" font-size="10.00">impl/Half_Idempotent.ipp</text>
</a>
</g>
</g>
<!-- Node2&#45;&gt;Node21 -->
<g id="edge22" class="edge">
<title>Node2&#45;&gt;Node21</title>
<path fill="none" stroke="midnightblue" d="M787.4,-224.44C806.49,-215.64 836.44,-201.81 858.3,-191.72"/>
<polygon fill="midnightblue" stroke="midnightblue" points="859.8,-194.88 867.41,-187.52 856.87,-188.53 859.8,-194.88"/>
</g>
<!-- Node4 -->
<g id="node4" class="node">
<title>Node4</title>
<g id="a_node4"><a xlink:href="Polynomials_8hpp.html" target="_top" xlink:title="Contains the class of polynomials in multiple variables.">
<polygon fill="white" stroke="black" points="228.86,-112.5 228.86,-131.5 326.86,-131.5 326.86,-112.5 228.86,-112.5"/>
<text text-anchor="middle" x="277.86" y="-119.5" font-family="Helvetica,sans-Serif" font-size="10.00">Polynomials.hpp</text>
</a>
</g>
</g>
<!-- Node3&#45;&gt;Node4 -->
<g id="edge3" class="edge">
<title>Node3&#45;&gt;Node4</title>
<path fill="none" stroke="midnightblue" d="M601.02,-168.44C528.76,-158.28 409.02,-141.44 337.36,-131.37"/>
<polygon fill="midnightblue" stroke="midnightblue" points="337.53,-127.86 327.14,-129.93 336.56,-134.79 337.53,-127.86"/>
</g>
<!-- Node14 -->
<g id="node14" class="node">
<title>Node14</title>
<g id="a_node14"><a xlink:href="Generators_8hpp.html" target="_top" xlink:title="Contains classes for generating permutations, combinations and a factory for such classes.">
<polygon fill="white" stroke="black" points="615.86,-112.5 615.86,-131.5 707.86,-131.5 707.86,-112.5 615.86,-112.5"/>
<text text-anchor="middle" x="661.86" y="-119.5" font-family="Helvetica,sans-Serif" font-size="10.00">Generators.hpp</text>
</a>
</g>
</g>
<!-- Node3&#45;&gt;Node14 -->
<g id="edge14" class="edge">
<title>Node3&#45;&gt;Node14</title>
<path fill="none" stroke="midnightblue" d="M661.86,-168.08C661.86,-161.01 661.86,-150.86 661.86,-141.99"/>
<polygon fill="midnightblue" stroke="midnightblue" points="665.36,-141.75 661.86,-131.75 658.36,-141.75 665.36,-141.75"/>
</g>
<!-- Node19 -->
<g id="node19" class="node">
<title>Node19</title>
<g id="a_node19"><a xlink:title=" ">
<polygon fill="white" stroke="#bfbfbf" points="725.86,-112.5 725.86,-131.5 869.86,-131.5 869.86,-112.5 725.86,-112.5"/>
<text text-anchor="middle" x="797.86" y="-119.5" font-family="Helvetica,sans-Serif" font-size="10.00">impl/Symmetric_Basis.ipp</text>
</a>
</g>
</g>
<!-- Node3&#45;&gt;Node19 -->
<g id="edge20" class="edge">
<title>Node3&#45;&gt;Node19</title>
<path fill="none" stroke="midnightblue" d="M683.41,-168.44C705.9,-159.52 741.35,-145.44 766.84,-135.32"/>
<polygon fill="midnightblue" stroke="midnightblue" points="768.41,-138.46 776.42,-131.52 765.83,-131.95 768.41,-138.46"/>
</g>
<!-- Node5 -->
<g id="node5" class="node">
<title>Node5</title>
<g id="a_node5"><a xlink:href="General_8hpp.html" target="_top" xlink:title="Contains general operations on vectors: hashing, computing degrees.">
<polygon fill="white" stroke="black" points="498.86,-56.5 498.86,-75.5 574.86,-75.5 574.86,-56.5 498.86,-56.5"/>
<text text-anchor="middle" x="536.86" y="-63.5" font-family="Helvetica,sans-Serif" font-size="10.00">General.hpp</text>
</a>
</g>
</g>
<!-- Node4&#45;&gt;Node5 -->
<g id="edge4" class="edge">
<title>Node4&#45;&gt;Node5</title>
<path fill="none" stroke="midnightblue" d="M318.9,-112.44C364.98,-102.84 439.67,-87.26 488.54,-77.08"/>
<polygon fill="midnightblue" stroke="midnightblue" points="489.48,-80.46 498.55,-74.99 488.05,-73.6 489.48,-80.46"/>
</g>
<!-- Node7 -->
<g id="node7" class="node">
<title>Node7</title>
<g id="a_node7"><a xlink:title=" ">
<polygon fill="white" stroke="#bfbfbf" points="195.86,-0.5 195.86,-19.5 255.86,-19.5 255.86,-0.5 195.86,-0.5"/>
<text text-anchor="middle" x="225.86" y="-7.5" font-family="Helvetica,sans-Serif" font-size="10.00">iostream</text>
</a>
</g>
</g>
<!-- Node4&#45;&gt;Node7 -->
<g id="edge12" class="edge">
<title>Node4&#45;&gt;Node7</title>
<path fill="none" stroke="midnightblue" d="M228.86,-120.05C159.32,-117.54 37.37,-108.51 9.86,-76 -39.3,-17.89 110.69,-10.55 185.77,-10.38"/>
<polygon fill="midnightblue" stroke="midnightblue" points="185.84,-13.88 195.84,-10.4 185.85,-6.88 185.84,-13.88"/>
</g>
<!-- Node9 -->
<g id="node9" class="node">
<title>Node9</title>
<g id="a_node9"><a xlink:title=" ">
<polygon fill="white" stroke="#bfbfbf" points="18.86,-56.5 18.86,-75.5 112.86,-75.5 112.86,-56.5 18.86,-56.5"/>
<text text-anchor="middle" x="65.86" y="-63.5" font-family="Helvetica,sans-Serif" font-size="10.00">impl/Details.ipp</text>
</a>
</g>
</g>
<!-- Node4&#45;&gt;Node9 -->
<g id="edge8" class="edge">
<title>Node4&#45;&gt;Node9</title>
<path fill="none" stroke="midnightblue" d="M244.27,-112.44C207.68,-103.12 149.03,-88.18 109.04,-78"/>
<polygon fill="midnightblue" stroke="midnightblue" points="109.85,-74.59 99.3,-75.52 108.13,-81.38 109.85,-74.59"/>
</g>
<!-- Node10 -->
<g id="node10" class="node">
<title>Node10</title>
<g id="a_node10"><a xlink:title=" ">
<polygon fill="white" stroke="#bfbfbf" points="130.86,-56.5 130.86,-75.5 168.86,-75.5 168.86,-56.5 130.86,-56.5"/>
<text text-anchor="middle" x="149.86" y="-63.5" font-family="Helvetica,sans-Serif" font-size="10.00">map</text>
</a>
</g>
</g>
<!-- Node4&#45;&gt;Node10 -->
<g id="edge9" class="edge">
<title>Node4&#45;&gt;Node10</title>
<path fill="none" stroke="midnightblue" d="M257.58,-112.44C236.27,-103.45 202.57,-89.23 178.54,-79.1"/>
<polygon fill="midnightblue" stroke="midnightblue" points="179.79,-75.83 169.21,-75.16 177.07,-82.27 179.79,-75.83"/>
</g>
<!-- Node11 -->
<g id="node11" class="node">
<title>Node11</title>
<g id="a_node11"><a xlink:title=" ">
<polygon fill="white" stroke="#bfbfbf" points="187.36,-56.5 187.36,-75.5 280.36,-75.5 280.36,-56.5 187.36,-56.5"/>
<text text-anchor="middle" x="233.86" y="-63.5" font-family="Helvetica,sans-Serif" font-size="10.00">unordered_map</text>
</a>
</g>
</g>
<!-- Node4&#45;&gt;Node11 -->
<g id="edge10" class="edge">
<title>Node4&#45;&gt;Node11</title>
<path fill="none" stroke="midnightblue" d="M270.6,-112.08C264.32,-104.38 255.08,-93.03 247.43,-83.65"/>
<polygon fill="midnightblue" stroke="midnightblue" points="250.03,-81.29 240.99,-75.75 244.6,-85.71 250.03,-81.29"/>
</g>
<!-- Node12 -->
<g id="node12" class="node">
<title>Node12</title>
<g id="a_node12"><a xlink:title=" ">
<polygon fill="white" stroke="#bfbfbf" points="298.86,-56.5 298.86,-75.5 342.86,-75.5 342.86,-56.5 298.86,-56.5"/>
<text text-anchor="middle" x="320.86" y="-63.5" font-family="Helvetica,sans-Serif" font-size="10.00">string</text>
</a>
</g>
</g>
<!-- Node4&#45;&gt;Node12 -->
<g id="edge11" class="edge">
<title>Node4&#45;&gt;Node12</title>
<path fill="none" stroke="midnightblue" d="M284.96,-112.08C291.1,-104.38 300.13,-93.03 307.6,-83.65"/>
<polygon fill="midnightblue" stroke="midnightblue" points="310.4,-85.75 313.9,-75.75 304.93,-81.39 310.4,-85.75"/>
</g>
<!-- Node13 -->
<g id="node13" class="node">
<title>Node13</title>
<g id="a_node13"><a xlink:title=" ">
<polygon fill="white" stroke="#bfbfbf" points="361.36,-56.5 361.36,-75.5 480.36,-75.5 480.36,-56.5 361.36,-56.5"/>
<text text-anchor="middle" x="420.86" y="-63.5" font-family="Helvetica,sans-Serif" font-size="10.00">impl/Polynomials.ipp</text>
</a>
</g>
</g>
<!-- Node4&#45;&gt;Node13 -->
<g id="edge13" class="edge">
<title>Node4&#45;&gt;Node13</title>
<path fill="none" stroke="midnightblue" d="M300.52,-112.44C324.27,-103.48 361.77,-89.31 388.6,-79.18"/>
<polygon fill="midnightblue" stroke="midnightblue" points="390.19,-82.32 398.31,-75.52 387.72,-75.77 390.19,-82.32"/>
</g>
<!-- Node6 -->
<g id="node6" class="node">
<title>Node6</title>
<g id="a_node6"><a xlink:title=" ">
<polygon fill="white" stroke="#bfbfbf" points="460.86,-0.5 460.86,-19.5 516.86,-19.5 516.86,-0.5 460.86,-0.5"/>
<text text-anchor="middle" x="488.86" y="-7.5" font-family="Helvetica,sans-Serif" font-size="10.00">numeric</text>
</a>
</g>
</g>
<!-- Node5&#45;&gt;Node6 -->
<g id="edge5" class="edge">
<title>Node5&#45;&gt;Node6</title>
<path fill="none" stroke="midnightblue" d="M528.94,-56.08C522.02,-48.3 511.8,-36.8 503.41,-27.37"/>
<polygon fill="midnightblue" stroke="midnightblue" points="505.9,-24.9 496.64,-19.75 500.67,-29.55 505.9,-24.9"/>
</g>
<!-- Node5&#45;&gt;Node7 -->
<g id="edge6" class="edge">
<title>Node5&#45;&gt;Node7</title>
<path fill="none" stroke="midnightblue" d="M498.62,-57.77C495.32,-57.17 492.04,-56.57 488.86,-56 409.95,-41.85 317.53,-26.27 265.93,-17.65"/>
<polygon fill="midnightblue" stroke="midnightblue" points="266.31,-14.17 255.87,-15.97 265.16,-21.07 266.31,-14.17"/>
</g>
<!-- Node8 -->
<g id="node8" class="node">
<title>Node8</title>
<g id="a_node8"><a xlink:title=" ">
<polygon fill="white" stroke="#bfbfbf" points="534.86,-0.5 534.86,-19.5 632.86,-19.5 632.86,-0.5 534.86,-0.5"/>
<text text-anchor="middle" x="583.86" y="-7.5" font-family="Helvetica,sans-Serif" font-size="10.00">impl/General.ipp</text>
</a>
</g>
</g>
<!-- Node5&#45;&gt;Node8 -->
<g id="edge7" class="edge">
<title>Node5&#45;&gt;Node8</title>
<path fill="none" stroke="midnightblue" d="M544.63,-56.08C551.4,-48.3 561.41,-36.8 569.62,-27.37"/>
<polygon fill="midnightblue" stroke="midnightblue" points="572.32,-29.59 576.25,-19.75 567.04,-25 572.32,-29.59"/>
</g>
<!-- Node14&#45;&gt;Node5 -->
<g id="edge18" class="edge">
<title>Node14&#45;&gt;Node5</title>
<path fill="none" stroke="midnightblue" d="M642.06,-112.44C621.58,-103.6 589.38,-89.69 566,-79.59"/>
<polygon fill="midnightblue" stroke="midnightblue" points="567.15,-76.27 556.58,-75.52 564.37,-82.7 567.15,-76.27"/>
</g>
<!-- Node15 -->
<g id="node15" class="node">
<title>Node15</title>
<g id="a_node15"><a xlink:title=" ">
<polygon fill="white" stroke="#bfbfbf" points="592.86,-56.5 592.86,-75.5 656.86,-75.5 656.86,-56.5 592.86,-56.5"/>
<text text-anchor="middle" x="624.86" y="-63.5" font-family="Helvetica,sans-Serif" font-size="10.00">algorithm</text>
</a>
</g>
</g>
<!-- Node14&#45;&gt;Node15 -->
<g id="edge15" class="edge">
<title>Node14&#45;&gt;Node15</title>
<path fill="none" stroke="midnightblue" d="M655.75,-112.08C650.58,-104.53 643.02,-93.49 636.67,-84.23"/>
<polygon fill="midnightblue" stroke="midnightblue" points="639.4,-82.02 630.86,-75.75 633.63,-85.98 639.4,-82.02"/>
</g>
<!-- Node16 -->
<g id="node16" class="node">
<title>Node16</title>
<g id="a_node16"><a xlink:title=" ">
<polygon fill="white" stroke="#bfbfbf" points="675.36,-56.5 675.36,-75.5 722.36,-75.5 722.36,-56.5 675.36,-56.5"/>
<text text-anchor="middle" x="698.86" y="-63.5" font-family="Helvetica,sans-Serif" font-size="10.00">vector</text>
</a>
</g>
</g>
<!-- Node14&#45;&gt;Node16 -->
<g id="edge16" class="edge">
<title>Node14&#45;&gt;Node16</title>
<path fill="none" stroke="midnightblue" d="M667.97,-112.08C673.15,-104.53 680.71,-93.49 687.06,-84.23"/>
<polygon fill="midnightblue" stroke="midnightblue" points="690.1,-85.98 692.87,-75.75 684.33,-82.02 690.1,-85.98"/>
</g>
<!-- Node17 -->
<g id="node17" class="node">
<title>Node17</title>
<g id="a_node17"><a xlink:title=" ">
<polygon fill="white" stroke="#bfbfbf" points="740.86,-56.5 740.86,-75.5 782.86,-75.5 782.86,-56.5 740.86,-56.5"/>
<text text-anchor="middle" x="761.86" y="-63.5" font-family="Helvetica,sans-Serif" font-size="10.00">array</text>
</a>
</g>
</g>
<!-- Node14&#45;&gt;Node17 -->
<g id="edge17" class="edge">
<title>Node14&#45;&gt;Node17</title>
<path fill="none" stroke="midnightblue" d="M677.93,-112.32C693.82,-103.74 718.37,-90.49 736.82,-80.52"/>
<polygon fill="midnightblue" stroke="midnightblue" points="738.7,-83.49 745.84,-75.65 735.38,-77.33 738.7,-83.49"/>
</g>
<!-- Node18 -->
<g id="node18" class="node">
<title>Node18</title>
<g id="a_node18"><a xlink:title=" ">
<polygon fill="white" stroke="#bfbfbf" points="801.36,-56.5 801.36,-75.5 914.36,-75.5 914.36,-56.5 801.36,-56.5"/>
<text text-anchor="middle" x="857.86" y="-63.5" font-family="Helvetica,sans-Serif" font-size="10.00">impl/Generators.ipp</text>
</a>
</g>
</g>
<!-- Node14&#45;&gt;Node18 -->
<g id="edge19" class="edge">
<title>Node14&#45;&gt;Node18</title>
<path fill="none" stroke="midnightblue" d="M692.92,-112.44C726.47,-103.2 780.06,-88.44 817,-78.26"/>
<polygon fill="midnightblue" stroke="midnightblue" points="818.24,-81.55 826.95,-75.52 816.38,-74.8 818.24,-81.55"/>
</g>
</g>
</svg>
