<?xml version="1.0" encoding="UTF-8" standalone="no"?>
<!DOCTYPE svg PUBLIC "-//W3C//DTD SVG 1.1//EN"
 "http://www.w3.org/Graphics/SVG/1.1/DTD/svg11.dtd">
<!-- Generated by graphviz version 2.43.0 (0)
 -->
<!-- Title: Details.ipp Pages: 1 -->
<svg width="215pt" height="84pt"
 viewBox="0.00 0.00 214.50 84.00" xmlns="http://www.w3.org/2000/svg" xmlns:xlink="http://www.w3.org/1999/xlink">
<g id="graph0" class="graph" transform="scale(1 1) rotate(0) translate(4 80)">
<title>Details.ipp</title>
<polygon fill="white" stroke="transparent" points="-4,4 -4,-80 210.5,-80 210.5,4 -4,4"/>
<!-- Node1 -->
<g id="node1" class="node">
<title>Node1</title>
<g id="a_node1"><a xlink:title="Contains various implementation details.">
<polygon fill="#bfbfbf" stroke="black" points="75,-56.5 75,-75.5 144,-75.5 144,-56.5 75,-56.5"/>
<text text-anchor="middle" x="109.5" y="-63.5" font-family="Helvetica,sans-Serif" font-size="10.00">Details.ipp</text>
</a>
</g>
</g>
<!-- Node2 -->
<g id="node2" class="node">
<title>Node2</title>
<g id="a_node2"><a xlink:title=" ">
<polygon fill="white" stroke="#bfbfbf" points="0,-0.5 0,-19.5 69,-19.5 69,-0.5 0,-0.5"/>
<text text-anchor="middle" x="34.5" y="-7.5" font-family="Helvetica,sans-Serif" font-size="10.00">type_traits</text>
</a>
</g>
</g>
<!-- Node1&#45;&gt;Node2 -->
<g id="edge1" class="edge">
<title>Node1&#45;&gt;Node2</title>
<path fill="none" stroke="midnightblue" d="M97.45,-56.32C86.04,-48.11 68.67,-35.6 55.07,-25.81"/>
<polygon fill="midnightblue" stroke="midnightblue" points="56.93,-22.84 46.77,-19.83 52.84,-28.52 56.93,-22.84"/>
</g>
<!-- Node3 -->
<g id="node3" class="node">
<title>Node3</title>
<g id="a_node3"><a xlink:title=" ">
<polygon fill="white" stroke="#bfbfbf" points="87,-0.5 87,-19.5 132,-19.5 132,-0.5 87,-0.5"/>
<text text-anchor="middle" x="109.5" y="-7.5" font-family="Helvetica,sans-Serif" font-size="10.00">utility</text>
</a>
</g>
</g>
<!-- Node1&#45;&gt;Node3 -->
<g id="edge2" class="edge">
<title>Node1&#45;&gt;Node3</title>
<path fill="none" stroke="midnightblue" d="M109.5,-56.08C109.5,-49.01 109.5,-38.86 109.5,-29.99"/>
<polygon fill="midnightblue" stroke="midnightblue" points="113,-29.75 109.5,-19.75 106,-29.75 113,-29.75"/>
</g>
<!-- Node4 -->
<g id="node4" class="node">
<title>Node4</title>
<g id="a_node4"><a xlink:title=" ">
<polygon fill="white" stroke="#bfbfbf" points="150.5,-0.5 150.5,-19.5 206.5,-19.5 206.5,-0.5 150.5,-0.5"/>
<text text-anchor="middle" x="178.5" y="-7.5" font-family="Helvetica,sans-Serif" font-size="10.00">stddef.h</text>
</a>
</g>
</g>
<!-- Node1&#45;&gt;Node4 -->
<g id="edge3" class="edge">
<title>Node1&#45;&gt;Node4</title>
<path fill="none" stroke="midnightblue" d="M120.59,-56.32C130.99,-48.18 146.76,-35.84 159.22,-26.09"/>
<polygon fill="midnightblue" stroke="midnightblue" points="161.49,-28.75 167.21,-19.83 157.18,-23.24 161.49,-28.75"/>
</g>
</g>
</svg>
