<?xml version="1.0" encoding="UTF-8" standalone="no"?>
<!DOCTYPE svg PUBLIC "-//W3C//DTD SVG 1.1//EN"
 "http://www.w3.org/Graphics/SVG/1.1/DTD/svg11.dtd">
<!-- Generated by graphviz version 2.43.0 (0)
 -->
<!-- Title: Generators.ipp Pages: 1 -->
<svg width="348pt" height="252pt"
 viewBox="0.00 0.00 348.00 252.00" xmlns="http://www.w3.org/2000/svg" xmlns:xlink="http://www.w3.org/1999/xlink">
<g id="graph0" class="graph" transform="scale(1 1) rotate(0) translate(4 248)">
<title>Generators.ipp</title>
<polygon fill="white" stroke="transparent" points="-4,4 -4,-248 344,-248 344,4 -4,4"/>
<!-- Node1 -->
<g id="node1" class="node">
<title>Node1</title>
<g id="a_node1"><a xlink:title="Implementation of Generators.hpp.">
<polygon fill="#bfbfbf" stroke="black" points="234.5,-224.5 234.5,-243.5 323.5,-243.5 323.5,-224.5 234.5,-224.5"/>
<text text-anchor="middle" x="279" y="-231.5" font-family="Helvetica,sans-Serif" font-size="10.00">Generators.ipp</text>
</a>
</g>
</g>
<!-- Node2 -->
<g id="node2" class="node">
<title>Node2</title>
<g id="a_node2"><a xlink:href="Generators_8hpp.html" target="_top" xlink:title="Contains classes for generating permutations, combinations and a factory for such classes.">
<polygon fill="white" stroke="black" points="233,-168.5 233,-187.5 325,-187.5 325,-168.5 233,-168.5"/>
<text text-anchor="middle" x="279" y="-175.5" font-family="Helvetica,sans-Serif" font-size="10.00">Generators.hpp</text>
</a>
</g>
</g>
<!-- Node1&#45;&gt;Node2 -->
<g id="edge1" class="edge">
<title>Node1&#45;&gt;Node2</title>
<path fill="none" stroke="midnightblue" d="M272.53,-214.1C271.9,-205.14 272.34,-194.86 273.87,-187.75"/>
<polygon fill="midnightblue" stroke="midnightblue" points="269.07,-214.62 273.83,-224.08 276.01,-213.71 269.07,-214.62"/>
</g>
<!-- Node2&#45;&gt;Node1 -->
<g id="edge2" class="edge">
<title>Node2&#45;&gt;Node1</title>
<path fill="none" stroke="midnightblue" d="M285.46,-197.69C286.11,-206.64 285.68,-216.93 284.17,-224.08"/>
<polygon fill="midnightblue" stroke="midnightblue" points="288.92,-197.2 284.13,-187.75 281.98,-198.13 288.92,-197.2"/>
</g>
<!-- Node3 -->
<g id="node3" class="node">
<title>Node3</title>
<g id="a_node3"><a xlink:href="Symmetric__Basis_8hpp.html" target="_top" xlink:title="Contains the methods and classes for generatic symmetric polynomials.">
<polygon fill="white" stroke="black" points="218,-112.5 218,-131.5 340,-131.5 340,-112.5 218,-112.5"/>
<text text-anchor="middle" x="279" y="-119.5" font-family="Helvetica,sans-Serif" font-size="10.00">Symmetric_Basis.hpp</text>
</a>
</g>
</g>
<!-- Node2&#45;&gt;Node3 -->
<g id="edge3" class="edge">
<title>Node2&#45;&gt;Node3</title>
<path fill="none" stroke="midnightblue" d="M279,-157.8C279,-148.91 279,-138.78 279,-131.75"/>
<polygon fill="midnightblue" stroke="midnightblue" points="275.5,-158.08 279,-168.08 282.5,-158.08 275.5,-158.08"/>
</g>
<!-- Node4 -->
<g id="node4" class="node">
<title>Node4</title>
<g id="a_node4"><a xlink:href="Half__Idempotent_8hpp.html" target="_top" xlink:title="Contains the methods and classes for symmetric polynomials with half idempotent variables.">
<polygon fill="white" stroke="black" points="82.5,-56.5 82.5,-75.5 201.5,-75.5 201.5,-56.5 82.5,-56.5"/>
<text text-anchor="middle" x="142" y="-63.5" font-family="Helvetica,sans-Serif" font-size="10.00">Half_Idempotent.hpp</text>
</a>
</g>
</g>
<!-- Node3&#45;&gt;Node4 -->
<g id="edge4" class="edge">
<title>Node3&#45;&gt;Node4</title>
<path fill="none" stroke="midnightblue" d="M247.98,-108.77C222.24,-98.63 186.31,-84.47 163.61,-75.52"/>
<polygon fill="midnightblue" stroke="midnightblue" points="246.71,-112.03 257.29,-112.44 249.27,-105.52 246.71,-112.03"/>
</g>
<!-- Node7 -->
<g id="node7" class="node">
<title>Node7</title>
<g id="a_node7"><a xlink:href="Symmetric__Basis_8ipp.html" target="_top" xlink:title="Implementation of Symmetric_Basis.hpp.">
<polygon fill="white" stroke="black" points="219.5,-56.5 219.5,-75.5 338.5,-75.5 338.5,-56.5 219.5,-56.5"/>
<text text-anchor="middle" x="279" y="-63.5" font-family="Helvetica,sans-Serif" font-size="10.00">Symmetric_Basis.ipp</text>
</a>
</g>
</g>
<!-- Node3&#45;&gt;Node7 -->
<g id="edge8" class="edge">
<title>Node3&#45;&gt;Node7</title>
<path fill="none" stroke="midnightblue" d="M272.53,-102.1C271.9,-93.14 272.34,-82.86 273.87,-75.75"/>
<polygon fill="midnightblue" stroke="midnightblue" points="269.07,-102.62 273.83,-112.08 276.01,-101.71 269.07,-102.62"/>
</g>
<!-- Node5 -->
<g id="node5" class="node">
<title>Node5</title>
<g id="a_node5"><a xlink:href="Demo_8cpp.html" target="_top" xlink:title="A demonstration file that can be compiled.">
<polygon fill="white" stroke="black" points="0,-0.5 0,-19.5 66,-19.5 66,-0.5 0,-0.5"/>
<text text-anchor="middle" x="33" y="-7.5" font-family="Helvetica,sans-Serif" font-size="10.00">Demo.cpp</text>
</a>
</g>
</g>
<!-- Node4&#45;&gt;Node5 -->
<g id="edge5" class="edge">
<title>Node4&#45;&gt;Node5</title>
<path fill="none" stroke="midnightblue" d="M115.48,-51.86C95.27,-41.85 68.01,-28.35 50.47,-19.65"/>
<polygon fill="midnightblue" stroke="midnightblue" points="113.97,-55.02 124.49,-56.32 117.08,-48.75 113.97,-55.02"/>
</g>
<!-- Node6 -->
<g id="node6" class="node">
<title>Node6</title>
<g id="a_node6"><a xlink:href="Half__Idempotent_8ipp.html" target="_top" xlink:title="Implementation of Half_Idempotent.hpp.">
<polygon fill="white" stroke="black" points="84,-0.5 84,-19.5 200,-19.5 200,-0.5 84,-0.5"/>
<text text-anchor="middle" x="142" y="-7.5" font-family="Helvetica,sans-Serif" font-size="10.00">Half_Idempotent.ipp</text>
</a>
</g>
</g>
<!-- Node4&#45;&gt;Node6 -->
<g id="edge6" class="edge">
<title>Node4&#45;&gt;Node6</title>
<path fill="none" stroke="midnightblue" d="M135.53,-46.1C134.9,-37.14 135.34,-26.86 136.87,-19.75"/>
<polygon fill="midnightblue" stroke="midnightblue" points="132.07,-46.62 136.83,-56.08 139.01,-45.71 132.07,-46.62"/>
</g>
<!-- Node6&#45;&gt;Node4 -->
<g id="edge7" class="edge">
<title>Node6&#45;&gt;Node4</title>
<path fill="none" stroke="midnightblue" d="M148.46,-29.69C149.11,-38.64 148.68,-48.93 147.17,-56.08"/>
<polygon fill="midnightblue" stroke="midnightblue" points="151.92,-29.2 147.13,-19.75 144.98,-30.13 151.92,-29.2"/>
</g>
<!-- Node7&#45;&gt;Node3 -->
<g id="edge9" class="edge">
<title>Node7&#45;&gt;Node3</title>
<path fill="none" stroke="midnightblue" d="M285.46,-85.69C286.11,-94.64 285.68,-104.93 284.17,-112.08"/>
<polygon fill="midnightblue" stroke="midnightblue" points="288.92,-85.2 284.13,-75.75 281.98,-86.13 288.92,-85.2"/>
</g>
</g>
</svg>
