<?xml version="1.0" encoding="UTF-8" standalone="no"?>
<!DOCTYPE svg PUBLIC "-//W3C//DTD SVG 1.1//EN"
 "http://www.w3.org/Graphics/SVG/1.1/DTD/svg11.dtd">
<!-- Generated by graphviz version 2.43.0 (0)
 -->
<!-- Title: General.ipp Pages: 1 -->
<svg width="462pt" height="308pt"
 viewBox="0.00 0.00 461.50 308.00" xmlns="http://www.w3.org/2000/svg" xmlns:xlink="http://www.w3.org/1999/xlink">
<g id="graph0" class="graph" transform="scale(1 1) rotate(0) translate(4 304)">
<title>General.ipp</title>
<polygon fill="white" stroke="transparent" points="-4,4 -4,-304 457.5,-304 457.5,4 -4,4"/>
<!-- Node1 -->
<g id="node1" class="node">
<title>Node1</title>
<g id="a_node1"><a xlink:title="Implementation of General.hpp.">
<polygon fill="#bfbfbf" stroke="black" points="239.5,-280.5 239.5,-299.5 312.5,-299.5 312.5,-280.5 239.5,-280.5"/>
<text text-anchor="middle" x="276" y="-287.5" font-family="Helvetica,sans-Serif" font-size="10.00">General.ipp</text>
</a>
</g>
</g>
<!-- Node2 -->
<g id="node2" class="node">
<title>Node2</title>
<g id="a_node2"><a xlink:href="General_8hpp.html" target="_top" xlink:title="Contains general operations on vectors: hashing, computing degrees.">
<polygon fill="white" stroke="black" points="238,-224.5 238,-243.5 314,-243.5 314,-224.5 238,-224.5"/>
<text text-anchor="middle" x="276" y="-231.5" font-family="Helvetica,sans-Serif" font-size="10.00">General.hpp</text>
</a>
</g>
</g>
<!-- Node1&#45;&gt;Node2 -->
<g id="edge1" class="edge">
<title>Node1&#45;&gt;Node2</title>
<path fill="none" stroke="midnightblue" d="M269.53,-270.1C268.9,-261.14 269.34,-250.86 270.87,-243.75"/>
<polygon fill="midnightblue" stroke="midnightblue" points="266.07,-270.62 270.83,-280.08 273.01,-269.71 266.07,-270.62"/>
</g>
<!-- Node2&#45;&gt;Node1 -->
<g id="edge2" class="edge">
<title>Node2&#45;&gt;Node1</title>
<path fill="none" stroke="midnightblue" d="M282.46,-253.69C283.11,-262.64 282.68,-272.93 281.17,-280.08"/>
<polygon fill="midnightblue" stroke="midnightblue" points="285.92,-253.2 281.13,-243.75 278.98,-254.13 285.92,-253.2"/>
</g>
<!-- Node3 -->
<g id="node3" class="node">
<title>Node3</title>
<g id="a_node3"><a xlink:href="Generators_8hpp.html" target="_top" xlink:title="Contains classes for generating permutations, combinations and a factory for such classes.">
<polygon fill="white" stroke="black" points="174,-168.5 174,-187.5 266,-187.5 266,-168.5 174,-168.5"/>
<text text-anchor="middle" x="220" y="-175.5" font-family="Helvetica,sans-Serif" font-size="10.00">Generators.hpp</text>
</a>
</g>
</g>
<!-- Node2&#45;&gt;Node3 -->
<g id="edge3" class="edge">
<title>Node2&#45;&gt;Node3</title>
<path fill="none" stroke="midnightblue" d="M259.67,-217.25C249.74,-207.67 237.41,-195.79 229.16,-187.83"/>
<polygon fill="midnightblue" stroke="midnightblue" points="257.37,-219.9 267,-224.32 262.23,-214.86 257.37,-219.9"/>
</g>
<!-- Node10 -->
<g id="node10" class="node">
<title>Node10</title>
<g id="a_node10"><a xlink:href="Polynomials_8hpp.html" target="_top" xlink:title="Contains the class of polynomials in multiple variables.">
<polygon fill="white" stroke="black" points="289,-168.5 289,-187.5 387,-187.5 387,-168.5 289,-168.5"/>
<text text-anchor="middle" x="338" y="-175.5" font-family="Helvetica,sans-Serif" font-size="10.00">Polynomials.hpp</text>
</a>
</g>
</g>
<!-- Node2&#45;&gt;Node10 -->
<g id="edge13" class="edge">
<title>Node2&#45;&gt;Node10</title>
<path fill="none" stroke="midnightblue" d="M293.75,-217.54C304.81,-207.91 318.63,-195.87 327.86,-187.83"/>
<polygon fill="midnightblue" stroke="midnightblue" points="291.2,-215.12 285.96,-224.32 295.8,-220.4 291.2,-215.12"/>
</g>
<!-- Node4 -->
<g id="node4" class="node">
<title>Node4</title>
<g id="a_node4"><a xlink:href="Generators_8ipp.html" target="_top" xlink:title="Implementation of Generators.hpp.">
<polygon fill="white" stroke="black" points="110.5,-112.5 110.5,-131.5 199.5,-131.5 199.5,-112.5 110.5,-112.5"/>
<text text-anchor="middle" x="155" y="-119.5" font-family="Helvetica,sans-Serif" font-size="10.00">Generators.ipp</text>
</a>
</g>
</g>
<!-- Node3&#45;&gt;Node4 -->
<g id="edge4" class="edge">
<title>Node3&#45;&gt;Node4</title>
<path fill="none" stroke="midnightblue" d="M196.33,-162.38C183.44,-152.62 168.68,-140.11 160.48,-131.83"/>
<polygon fill="midnightblue" stroke="midnightblue" points="194.31,-165.24 204.44,-168.32 198.44,-159.59 194.31,-165.24"/>
</g>
<!-- Node5 -->
<g id="node5" class="node">
<title>Node5</title>
<g id="a_node5"><a xlink:href="Symmetric__Basis_8hpp.html" target="_top" xlink:title="Contains the methods and classes for generatic symmetric polynomials.">
<polygon fill="white" stroke="black" points="218,-112.5 218,-131.5 340,-131.5 340,-112.5 218,-112.5"/>
<text text-anchor="middle" x="279" y="-119.5" font-family="Helvetica,sans-Serif" font-size="10.00">Symmetric_Basis.hpp</text>
</a>
</g>
</g>
<!-- Node3&#45;&gt;Node5 -->
<g id="edge6" class="edge">
<title>Node3&#45;&gt;Node5</title>
<path fill="none" stroke="midnightblue" d="M236.89,-161.54C247.41,-151.91 260.57,-139.87 269.35,-131.83"/>
<polygon fill="midnightblue" stroke="midnightblue" points="234.49,-158.99 229.48,-168.32 239.22,-164.15 234.49,-158.99"/>
</g>
<!-- Node4&#45;&gt;Node3 -->
<g id="edge5" class="edge">
<title>Node4&#45;&gt;Node3</title>
<path fill="none" stroke="midnightblue" d="M178.75,-137.68C191.58,-147.39 206.24,-159.83 214.43,-168.08"/>
<polygon fill="midnightblue" stroke="midnightblue" points="180.8,-134.84 170.66,-131.75 176.66,-140.49 180.8,-134.84"/>
</g>
<!-- Node6 -->
<g id="node6" class="node">
<title>Node6</title>
<g id="a_node6"><a xlink:href="Half__Idempotent_8hpp.html" target="_top" xlink:title="Contains the methods and classes for symmetric polynomials with half idempotent variables.">
<polygon fill="white" stroke="black" points="82.5,-56.5 82.5,-75.5 201.5,-75.5 201.5,-56.5 82.5,-56.5"/>
<text text-anchor="middle" x="142" y="-63.5" font-family="Helvetica,sans-Serif" font-size="10.00">Half_Idempotent.hpp</text>
</a>
</g>
</g>
<!-- Node5&#45;&gt;Node6 -->
<g id="edge7" class="edge">
<title>Node5&#45;&gt;Node6</title>
<path fill="none" stroke="midnightblue" d="M247.98,-108.77C222.24,-98.63 186.31,-84.47 163.61,-75.52"/>
<polygon fill="midnightblue" stroke="midnightblue" points="246.71,-112.03 257.29,-112.44 249.27,-105.52 246.71,-112.03"/>
</g>
<!-- Node9 -->
<g id="node9" class="node">
<title>Node9</title>
<g id="a_node9"><a xlink:href="Symmetric__Basis_8ipp.html" target="_top" xlink:title="Implementation of Symmetric_Basis.hpp.">
<polygon fill="white" stroke="black" points="219.5,-56.5 219.5,-75.5 338.5,-75.5 338.5,-56.5 219.5,-56.5"/>
<text text-anchor="middle" x="279" y="-63.5" font-family="Helvetica,sans-Serif" font-size="10.00">Symmetric_Basis.ipp</text>
</a>
</g>
</g>
<!-- Node5&#45;&gt;Node9 -->
<g id="edge11" class="edge">
<title>Node5&#45;&gt;Node9</title>
<path fill="none" stroke="midnightblue" d="M272.53,-102.1C271.9,-93.14 272.34,-82.86 273.87,-75.75"/>
<polygon fill="midnightblue" stroke="midnightblue" points="269.07,-102.62 273.83,-112.08 276.01,-101.71 269.07,-102.62"/>
</g>
<!-- Node7 -->
<g id="node7" class="node">
<title>Node7</title>
<g id="a_node7"><a xlink:href="Demo_8cpp.html" target="_top" xlink:title="A demonstration file that can be compiled.">
<polygon fill="white" stroke="black" points="0,-0.5 0,-19.5 66,-19.5 66,-0.5 0,-0.5"/>
<text text-anchor="middle" x="33" y="-7.5" font-family="Helvetica,sans-Serif" font-size="10.00">Demo.cpp</text>
</a>
</g>
</g>
<!-- Node6&#45;&gt;Node7 -->
<g id="edge8" class="edge">
<title>Node6&#45;&gt;Node7</title>
<path fill="none" stroke="midnightblue" d="M115.48,-51.86C95.27,-41.85 68.01,-28.35 50.47,-19.65"/>
<polygon fill="midnightblue" stroke="midnightblue" points="113.97,-55.02 124.49,-56.32 117.08,-48.75 113.97,-55.02"/>
</g>
<!-- Node8 -->
<g id="node8" class="node">
<title>Node8</title>
<g id="a_node8"><a xlink:href="Half__Idempotent_8ipp.html" target="_top" xlink:title="Implementation of Half_Idempotent.hpp.">
<polygon fill="white" stroke="black" points="84,-0.5 84,-19.5 200,-19.5 200,-0.5 84,-0.5"/>
<text text-anchor="middle" x="142" y="-7.5" font-family="Helvetica,sans-Serif" font-size="10.00">Half_Idempotent.ipp</text>
</a>
</g>
</g>
<!-- Node6&#45;&gt;Node8 -->
<g id="edge9" class="edge">
<title>Node6&#45;&gt;Node8</title>
<path fill="none" stroke="midnightblue" d="M135.53,-46.1C134.9,-37.14 135.34,-26.86 136.87,-19.75"/>
<polygon fill="midnightblue" stroke="midnightblue" points="132.07,-46.62 136.83,-56.08 139.01,-45.71 132.07,-46.62"/>
</g>
<!-- Node8&#45;&gt;Node6 -->
<g id="edge10" class="edge">
<title>Node8&#45;&gt;Node6</title>
<path fill="none" stroke="midnightblue" d="M148.46,-29.69C149.11,-38.64 148.68,-48.93 147.17,-56.08"/>
<polygon fill="midnightblue" stroke="midnightblue" points="151.92,-29.2 147.13,-19.75 144.98,-30.13 151.92,-29.2"/>
</g>
<!-- Node9&#45;&gt;Node5 -->
<g id="edge12" class="edge">
<title>Node9&#45;&gt;Node5</title>
<path fill="none" stroke="midnightblue" d="M285.46,-85.69C286.11,-94.64 285.68,-104.93 284.17,-112.08"/>
<polygon fill="midnightblue" stroke="midnightblue" points="288.92,-85.2 284.13,-75.75 281.98,-86.13 288.92,-85.2"/>
</g>
<!-- Node10&#45;&gt;Node5 -->
<g id="edge14" class="edge">
<title>Node10&#45;&gt;Node5</title>
<path fill="none" stroke="midnightblue" d="M321.11,-161.54C310.59,-151.91 297.43,-139.87 288.65,-131.83"/>
<polygon fill="midnightblue" stroke="midnightblue" points="318.78,-164.15 328.52,-168.32 323.51,-158.99 318.78,-164.15"/>
</g>
<!-- Node11 -->
<g id="node11" class="node">
<title>Node11</title>
<g id="a_node11"><a xlink:href="Polynomials_8ipp.html" target="_top" xlink:title="Implementation of Polynomials.hpp.">
<polygon fill="white" stroke="black" points="358.5,-112.5 358.5,-131.5 453.5,-131.5 453.5,-112.5 358.5,-112.5"/>
<text text-anchor="middle" x="406" y="-119.5" font-family="Helvetica,sans-Serif" font-size="10.00">Polynomials.ipp</text>
</a>
</g>
</g>
<!-- Node10&#45;&gt;Node11 -->
<g id="edge15" class="edge">
<title>Node10&#45;&gt;Node11</title>
<path fill="none" stroke="midnightblue" d="M351.35,-161.49C362.53,-151.8 378.15,-139.68 389.99,-131.65"/>
<polygon fill="midnightblue" stroke="midnightblue" points="348.87,-159.02 343.81,-168.32 353.57,-164.21 348.87,-159.02"/>
</g>
<!-- Node11&#45;&gt;Node10 -->
<g id="edge16" class="edge">
<title>Node11&#45;&gt;Node10</title>
<path fill="none" stroke="midnightblue" d="M392.48,-138.65C381.33,-148.31 365.82,-160.34 354.04,-168.32"/>
<polygon fill="midnightblue" stroke="midnightblue" points="394.95,-141.14 400.02,-131.83 390.26,-135.94 394.95,-141.14"/>
</g>
</g>
</svg>
