<?xml version="1.0" encoding="UTF-8" standalone="no"?>
<!DOCTYPE svg PUBLIC "-//W3C//DTD SVG 1.1//EN"
 "http://www.w3.org/Graphics/SVG/1.1/DTD/svg11.dtd">
<!-- Generated by graphviz version 2.43.0 (0)
 -->
<!-- Title: General.hpp Pages: 1 -->
<svg width="216pt" height="252pt"
 viewBox="0.00 0.00 216.00 252.00" xmlns="http://www.w3.org/2000/svg" xmlns:xlink="http://www.w3.org/1999/xlink">
<g id="graph0" class="graph" transform="scale(1 1) rotate(0) translate(4 248)">
<title>General.hpp</title>
<polygon fill="white" stroke="transparent" points="-4,4 -4,-248 212,-248 212,4 -4,4"/>
<!-- Node1 -->
<g id="node1" class="node">
<title>Node1</title>
<g id="a_node1"><a xlink:title="Contains general operations on vectors: hashing, computing degrees.">
<polygon fill="#bfbfbf" stroke="black" points="64,-224.5 64,-243.5 140,-243.5 140,-224.5 64,-224.5"/>
<text text-anchor="middle" x="102" y="-231.5" font-family="Helvetica,sans-Serif" font-size="10.00">General.hpp</text>
</a>
</g>
</g>
<!-- Node2 -->
<g id="node2" class="node">
<title>Node2</title>
<g id="a_node2"><a xlink:href="Generators_8hpp.html" target="_top" xlink:title="Contains classes for generating permutations, combinations and a factory for such classes.">
<polygon fill="white" stroke="black" points="0,-168.5 0,-187.5 92,-187.5 92,-168.5 0,-168.5"/>
<text text-anchor="middle" x="46" y="-175.5" font-family="Helvetica,sans-Serif" font-size="10.00">Generators.hpp</text>
</a>
</g>
</g>
<!-- Node1&#45;&gt;Node2 -->
<g id="edge1" class="edge">
<title>Node1&#45;&gt;Node2</title>
<path fill="none" stroke="midnightblue" d="M85.67,-217.25C75.74,-207.67 63.41,-195.79 55.16,-187.83"/>
<polygon fill="midnightblue" stroke="midnightblue" points="83.37,-219.9 93,-224.32 88.23,-214.86 83.37,-219.9"/>
</g>
<!-- Node6 -->
<g id="node6" class="node">
<title>Node6</title>
<g id="a_node6"><a xlink:href="Polynomials_8hpp.html" target="_top" xlink:title="Contains the class of polynomials in multiple variables.">
<polygon fill="white" stroke="black" points="110,-168.5 110,-187.5 208,-187.5 208,-168.5 110,-168.5"/>
<text text-anchor="middle" x="159" y="-175.5" font-family="Helvetica,sans-Serif" font-size="10.00">Polynomials.hpp</text>
</a>
</g>
</g>
<!-- Node1&#45;&gt;Node6 -->
<g id="edge5" class="edge">
<title>Node1&#45;&gt;Node6</title>
<path fill="none" stroke="midnightblue" d="M118.62,-217.25C128.73,-207.67 141.28,-195.79 149.68,-187.83"/>
<polygon fill="midnightblue" stroke="midnightblue" points="116.01,-214.91 111.16,-224.32 120.82,-219.99 116.01,-214.91"/>
</g>
<!-- Node3 -->
<g id="node3" class="node">
<title>Node3</title>
<g id="a_node3"><a xlink:href="Symmetric__Basis_8hpp.html" target="_top" xlink:title="Contains the methods and classes for generatic symmetric polynomials.">
<polygon fill="white" stroke="black" points="41,-112.5 41,-131.5 163,-131.5 163,-112.5 41,-112.5"/>
<text text-anchor="middle" x="102" y="-119.5" font-family="Helvetica,sans-Serif" font-size="10.00">Symmetric_Basis.hpp</text>
</a>
</g>
</g>
<!-- Node2&#45;&gt;Node3 -->
<g id="edge2" class="edge">
<title>Node2&#45;&gt;Node3</title>
<path fill="none" stroke="midnightblue" d="M62.33,-161.25C72.26,-151.67 84.59,-139.79 92.84,-131.83"/>
<polygon fill="midnightblue" stroke="midnightblue" points="59.77,-158.86 55,-168.32 64.63,-163.9 59.77,-158.86"/>
</g>
<!-- Node4 -->
<g id="node4" class="node">
<title>Node4</title>
<g id="a_node4"><a xlink:href="Half__Idempotent_8hpp.html" target="_top" xlink:title="Contains the methods and classes for symmetric polynomials with half idempotent variables.">
<polygon fill="white" stroke="black" points="42.5,-56.5 42.5,-75.5 161.5,-75.5 161.5,-56.5 42.5,-56.5"/>
<text text-anchor="middle" x="102" y="-63.5" font-family="Helvetica,sans-Serif" font-size="10.00">Half_Idempotent.hpp</text>
</a>
</g>
</g>
<!-- Node3&#45;&gt;Node4 -->
<g id="edge3" class="edge">
<title>Node3&#45;&gt;Node4</title>
<path fill="none" stroke="midnightblue" d="M102,-101.8C102,-92.91 102,-82.78 102,-75.75"/>
<polygon fill="midnightblue" stroke="midnightblue" points="98.5,-102.08 102,-112.08 105.5,-102.08 98.5,-102.08"/>
</g>
<!-- Node5 -->
<g id="node5" class="node">
<title>Node5</title>
<g id="a_node5"><a xlink:href="Demo_8cpp.html" target="_top" xlink:title="A demonstration file that can be compiled.">
<polygon fill="white" stroke="black" points="69,-0.5 69,-19.5 135,-19.5 135,-0.5 69,-0.5"/>
<text text-anchor="middle" x="102" y="-7.5" font-family="Helvetica,sans-Serif" font-size="10.00">Demo.cpp</text>
</a>
</g>
</g>
<!-- Node4&#45;&gt;Node5 -->
<g id="edge4" class="edge">
<title>Node4&#45;&gt;Node5</title>
<path fill="none" stroke="midnightblue" d="M102,-45.8C102,-36.91 102,-26.78 102,-19.75"/>
<polygon fill="midnightblue" stroke="midnightblue" points="98.5,-46.08 102,-56.08 105.5,-46.08 98.5,-46.08"/>
</g>
<!-- Node6&#45;&gt;Node3 -->
<g id="edge6" class="edge">
<title>Node6&#45;&gt;Node3</title>
<path fill="none" stroke="midnightblue" d="M142.38,-161.25C132.27,-151.67 119.72,-139.79 111.32,-131.83"/>
<polygon fill="midnightblue" stroke="midnightblue" points="140.18,-163.99 149.84,-168.32 144.99,-158.91 140.18,-163.99"/>
</g>
</g>
</svg>
