<?xml version="1.0" encoding="UTF-8" standalone="no"?>
<!DOCTYPE svg PUBLIC "-//W3C//DTD SVG 1.1//EN"
 "http://www.w3.org/Graphics/SVG/1.1/DTD/svg11.dtd">
<!-- Generated by graphviz version 2.43.0 (0)
 -->
<!-- Title: General.hpp Pages: 1 -->
<svg width="180pt" height="84pt"
 viewBox="0.00 0.00 180.00 84.00" xmlns="http://www.w3.org/2000/svg" xmlns:xlink="http://www.w3.org/1999/xlink">
<g id="graph0" class="graph" transform="scale(1 1) rotate(0) translate(4 80)">
<title>General.hpp</title>
<polygon fill="white" stroke="transparent" points="-4,4 -4,-80 176,-80 176,4 -4,4"/>
<!-- Node1 -->
<g id="node1" class="node">
<title>Node1</title>
<g id="a_node1"><a xlink:title="Contains general operations on vectors: hashing, computing degrees.">
<polygon fill="#bfbfbf" stroke="black" points="37,-56.5 37,-75.5 113,-75.5 113,-56.5 37,-56.5"/>
<text text-anchor="middle" x="75" y="-63.5" font-family="Helvetica,sans-Serif" font-size="10.00">General.hpp</text>
</a>
</g>
</g>
<!-- Node2 -->
<g id="node2" class="node">
<title>Node2</title>
<g id="a_node2"><a xlink:title=" ">
<polygon fill="white" stroke="#bfbfbf" points="0,-0.5 0,-19.5 56,-19.5 56,-0.5 0,-0.5"/>
<text text-anchor="middle" x="28" y="-7.5" font-family="Helvetica,sans-Serif" font-size="10.00">numeric</text>
</a>
</g>
</g>
<!-- Node1&#45;&gt;Node2 -->
<g id="edge1" class="edge">
<title>Node1&#45;&gt;Node2</title>
<path fill="none" stroke="midnightblue" d="M67.24,-56.08C60.46,-48.3 50.46,-36.8 42.24,-27.37"/>
<polygon fill="midnightblue" stroke="midnightblue" points="44.82,-25 35.62,-19.75 39.54,-29.59 44.82,-25"/>
</g>
<!-- Node3 -->
<g id="node3" class="node">
<title>Node3</title>
<g id="a_node3"><a xlink:title=" ">
<polygon fill="white" stroke="#bfbfbf" points="74,-0.5 74,-19.5 172,-19.5 172,-0.5 74,-0.5"/>
<text text-anchor="middle" x="123" y="-7.5" font-family="Helvetica,sans-Serif" font-size="10.00">impl/General.ipp</text>
</a>
</g>
</g>
<!-- Node1&#45;&gt;Node3 -->
<g id="edge2" class="edge">
<title>Node1&#45;&gt;Node3</title>
<path fill="none" stroke="midnightblue" d="M82.93,-56.08C89.85,-48.3 100.07,-36.8 108.45,-27.37"/>
<polygon fill="midnightblue" stroke="midnightblue" points="111.19,-29.55 115.22,-19.75 105.96,-24.9 111.19,-29.55"/>
</g>
</g>
</svg>
