<?xml version="1.0" encoding="UTF-8" standalone="no"?>
<!DOCTYPE svg PUBLIC "-//W3C//DTD SVG 1.1//EN"
 "http://www.w3.org/Graphics/SVG/1.1/DTD/svg11.dtd">
<!-- Generated by graphviz version 2.43.0 (0)
 -->
<!-- Title: General.ipp Pages: 1 -->
<svg width="142pt" height="140pt"
 viewBox="0.00 0.00 142.00 140.00" xmlns="http://www.w3.org/2000/svg" xmlns:xlink="http://www.w3.org/1999/xlink">
<g id="graph0" class="graph" transform="scale(1 1) rotate(0) translate(4 136)">
<title>General.ipp</title>
<polygon fill="white" stroke="transparent" points="-4,4 -4,-136 138,-136 138,4 -4,4"/>
<!-- Node1 -->
<g id="node1" class="node">
<title>Node1</title>
<g id="a_node1"><a xlink:title="Implementation of General.hpp.">
<polygon fill="#bfbfbf" stroke="black" points="29.5,-112.5 29.5,-131.5 102.5,-131.5 102.5,-112.5 29.5,-112.5"/>
<text text-anchor="middle" x="66" y="-119.5" font-family="Helvetica,sans-Serif" font-size="10.00">General.ipp</text>
</a>
</g>
</g>
<!-- Node2 -->
<g id="node2" class="node">
<title>Node2</title>
<g id="a_node2"><a xlink:href="General_8hpp.html" target="_top" xlink:title="Contains general operations on vectors: hashing, computing degrees.">
<polygon fill="white" stroke="black" points="23.5,-56.5 23.5,-75.5 108.5,-75.5 108.5,-56.5 23.5,-56.5"/>
<text text-anchor="middle" x="66" y="-63.5" font-family="Helvetica,sans-Serif" font-size="10.00">../General.hpp</text>
</a>
</g>
</g>
<!-- Node1&#45;&gt;Node2 -->
<g id="edge1" class="edge">
<title>Node1&#45;&gt;Node2</title>
<path fill="none" stroke="midnightblue" d="M60.83,-112.08C59.32,-104.93 58.89,-94.64 59.54,-85.69"/>
<polygon fill="midnightblue" stroke="midnightblue" points="63.02,-86.13 60.87,-75.75 56.08,-85.2 63.02,-86.13"/>
</g>
<!-- Node2&#45;&gt;Node1 -->
<g id="edge4" class="edge">
<title>Node2&#45;&gt;Node1</title>
<path fill="none" stroke="midnightblue" d="M71.13,-75.75C72.66,-82.86 73.1,-93.14 72.47,-102.1"/>
<polygon fill="midnightblue" stroke="midnightblue" points="68.99,-101.71 71.17,-112.08 75.93,-102.62 68.99,-101.71"/>
</g>
<!-- Node3 -->
<g id="node3" class="node">
<title>Node3</title>
<g id="a_node3"><a xlink:title=" ">
<polygon fill="white" stroke="#bfbfbf" points="0,-0.5 0,-19.5 56,-19.5 56,-0.5 0,-0.5"/>
<text text-anchor="middle" x="28" y="-7.5" font-family="Helvetica,sans-Serif" font-size="10.00">numeric</text>
</a>
</g>
</g>
<!-- Node2&#45;&gt;Node3 -->
<g id="edge2" class="edge">
<title>Node2&#45;&gt;Node3</title>
<path fill="none" stroke="midnightblue" d="M59.73,-56.08C54.36,-48.46 46.48,-37.26 39.92,-27.94"/>
<polygon fill="midnightblue" stroke="midnightblue" points="42.78,-25.91 34.16,-19.75 37.05,-29.94 42.78,-25.91"/>
</g>
<!-- Node4 -->
<g id="node4" class="node">
<title>Node4</title>
<g id="a_node4"><a xlink:title=" ">
<polygon fill="white" stroke="#bfbfbf" points="74,-0.5 74,-19.5 134,-19.5 134,-0.5 74,-0.5"/>
<text text-anchor="middle" x="104" y="-7.5" font-family="Helvetica,sans-Serif" font-size="10.00">iostream</text>
</a>
</g>
</g>
<!-- Node2&#45;&gt;Node4 -->
<g id="edge3" class="edge">
<title>Node2&#45;&gt;Node4</title>
<path fill="none" stroke="midnightblue" d="M72.27,-56.08C77.64,-48.46 85.52,-37.26 92.08,-27.94"/>
<polygon fill="midnightblue" stroke="midnightblue" points="94.95,-29.94 97.84,-19.75 89.22,-25.91 94.95,-29.94"/>
</g>
</g>
</svg>
