<?xml version="1.0" encoding="UTF-8" standalone="no"?>
<!DOCTYPE svg PUBLIC "-//W3C//DTD SVG 1.1//EN"
 "http://www.w3.org/Graphics/SVG/1.1/DTD/svg11.dtd">
<!-- Generated by graphviz version 2.43.0 (0)
 -->
<!-- Title: Generators.ipp Pages: 1 -->
<svg width="351pt" height="196pt"
 viewBox="0.00 0.00 351.00 196.00" xmlns="http://www.w3.org/2000/svg" xmlns:xlink="http://www.w3.org/1999/xlink">
<g id="graph0" class="graph" transform="scale(1 1) rotate(0) translate(4 192)">
<title>Generators.ipp</title>
<polygon fill="white" stroke="transparent" points="-4,4 -4,-192 347,-192 347,4 -4,4"/>
<!-- Node1 -->
<g id="node1" class="node">
<title>Node1</title>
<g id="a_node1"><a xlink:title="Implementation of Generators.hpp.">
<polygon fill="#bfbfbf" stroke="black" points="92.5,-168.5 92.5,-187.5 181.5,-187.5 181.5,-168.5 92.5,-168.5"/>
<text text-anchor="middle" x="137" y="-175.5" font-family="Helvetica,sans-Serif" font-size="10.00">Generators.ipp</text>
</a>
</g>
</g>
<!-- Node2 -->
<g id="node2" class="node">
<title>Node2</title>
<g id="a_node2"><a xlink:href="Generators_8hpp.html" target="_top" xlink:title="Contains classes for generating permutations, combinations and a factory for such classes.">
<polygon fill="white" stroke="black" points="86.5,-112.5 86.5,-131.5 187.5,-131.5 187.5,-112.5 86.5,-112.5"/>
<text text-anchor="middle" x="137" y="-119.5" font-family="Helvetica,sans-Serif" font-size="10.00">../Generators.hpp</text>
</a>
</g>
</g>
<!-- Node1&#45;&gt;Node2 -->
<g id="edge1" class="edge">
<title>Node1&#45;&gt;Node2</title>
<path fill="none" stroke="midnightblue" d="M131.83,-168.08C130.32,-160.93 129.89,-150.64 130.54,-141.69"/>
<polygon fill="midnightblue" stroke="midnightblue" points="134.02,-142.13 131.87,-131.75 127.08,-141.2 134.02,-142.13"/>
</g>
<!-- Node2&#45;&gt;Node1 -->
<g id="edge10" class="edge">
<title>Node2&#45;&gt;Node1</title>
<path fill="none" stroke="midnightblue" d="M142.13,-131.75C143.66,-138.86 144.1,-149.14 143.47,-158.1"/>
<polygon fill="midnightblue" stroke="midnightblue" points="139.99,-157.71 142.17,-168.08 146.93,-158.62 139.99,-157.71"/>
</g>
<!-- Node3 -->
<g id="node3" class="node">
<title>Node3</title>
<g id="a_node3"><a xlink:title=" ">
<polygon fill="white" stroke="#bfbfbf" points="0,-56.5 0,-75.5 64,-75.5 64,-56.5 0,-56.5"/>
<text text-anchor="middle" x="32" y="-63.5" font-family="Helvetica,sans-Serif" font-size="10.00">algorithm</text>
</a>
</g>
</g>
<!-- Node2&#45;&gt;Node3 -->
<g id="edge2" class="edge">
<title>Node2&#45;&gt;Node3</title>
<path fill="none" stroke="midnightblue" d="M120.13,-112.32C103.29,-103.66 77.19,-90.24 57.76,-80.25"/>
<polygon fill="midnightblue" stroke="midnightblue" points="59.32,-77.12 48.83,-75.65 56.12,-83.34 59.32,-77.12"/>
</g>
<!-- Node4 -->
<g id="node4" class="node">
<title>Node4</title>
<g id="a_node4"><a xlink:title=" ">
<polygon fill="white" stroke="#bfbfbf" points="82.5,-56.5 82.5,-75.5 129.5,-75.5 129.5,-56.5 82.5,-56.5"/>
<text text-anchor="middle" x="106" y="-63.5" font-family="Helvetica,sans-Serif" font-size="10.00">vector</text>
</a>
</g>
</g>
<!-- Node2&#45;&gt;Node4 -->
<g id="edge3" class="edge">
<title>Node2&#45;&gt;Node4</title>
<path fill="none" stroke="midnightblue" d="M131.88,-112.08C127.59,-104.61 121.34,-93.72 116.06,-84.52"/>
<polygon fill="midnightblue" stroke="midnightblue" points="119.04,-82.68 111.02,-75.75 112.97,-86.17 119.04,-82.68"/>
</g>
<!-- Node5 -->
<g id="node5" class="node">
<title>Node5</title>
<g id="a_node5"><a xlink:title=" ">
<polygon fill="white" stroke="#bfbfbf" points="148,-56.5 148,-75.5 190,-75.5 190,-56.5 148,-56.5"/>
<text text-anchor="middle" x="169" y="-63.5" font-family="Helvetica,sans-Serif" font-size="10.00">array</text>
</a>
</g>
</g>
<!-- Node2&#45;&gt;Node5 -->
<g id="edge4" class="edge">
<title>Node2&#45;&gt;Node5</title>
<path fill="none" stroke="midnightblue" d="M142.28,-112.08C146.71,-104.61 153.16,-93.72 158.62,-84.52"/>
<polygon fill="midnightblue" stroke="midnightblue" points="161.73,-86.14 163.81,-75.75 155.71,-82.57 161.73,-86.14"/>
</g>
<!-- Node6 -->
<g id="node6" class="node">
<title>Node6</title>
<g id="a_node6"><a xlink:href="General_8hpp.html" target="_top" xlink:title="Contains general operations on vectors: hashing, computing degrees.">
<polygon fill="white" stroke="black" points="208,-56.5 208,-75.5 284,-75.5 284,-56.5 208,-56.5"/>
<text text-anchor="middle" x="246" y="-63.5" font-family="Helvetica,sans-Serif" font-size="10.00">General.hpp</text>
</a>
</g>
</g>
<!-- Node2&#45;&gt;Node6 -->
<g id="edge5" class="edge">
<title>Node2&#45;&gt;Node6</title>
<path fill="none" stroke="midnightblue" d="M154.51,-112.32C172.07,-103.62 199.33,-90.12 219.53,-80.11"/>
<polygon fill="midnightblue" stroke="midnightblue" points="221.12,-83.23 228.53,-75.65 218.02,-76.96 221.12,-83.23"/>
</g>
<!-- Node7 -->
<g id="node7" class="node">
<title>Node7</title>
<g id="a_node7"><a xlink:title=" ">
<polygon fill="white" stroke="#bfbfbf" points="93,-0.5 93,-19.5 149,-19.5 149,-0.5 93,-0.5"/>
<text text-anchor="middle" x="121" y="-7.5" font-family="Helvetica,sans-Serif" font-size="10.00">numeric</text>
</a>
</g>
</g>
<!-- Node6&#45;&gt;Node7 -->
<g id="edge6" class="edge">
<title>Node6&#45;&gt;Node7</title>
<path fill="none" stroke="midnightblue" d="M226.19,-56.44C205.71,-47.6 173.52,-33.69 150.14,-23.59"/>
<polygon fill="midnightblue" stroke="midnightblue" points="151.28,-20.27 140.71,-19.52 148.51,-26.7 151.28,-20.27"/>
</g>
<!-- Node8 -->
<g id="node8" class="node">
<title>Node8</title>
<g id="a_node8"><a xlink:title=" ">
<polygon fill="white" stroke="#bfbfbf" points="167,-0.5 167,-19.5 227,-19.5 227,-0.5 167,-0.5"/>
<text text-anchor="middle" x="197" y="-7.5" font-family="Helvetica,sans-Serif" font-size="10.00">iostream</text>
</a>
</g>
</g>
<!-- Node6&#45;&gt;Node8 -->
<g id="edge7" class="edge">
<title>Node6&#45;&gt;Node8</title>
<path fill="none" stroke="midnightblue" d="M237.91,-56.08C230.84,-48.3 220.41,-36.8 211.85,-27.37"/>
<polygon fill="midnightblue" stroke="midnightblue" points="214.25,-24.8 204.94,-19.75 209.07,-29.51 214.25,-24.8"/>
</g>
<!-- Node9 -->
<g id="node9" class="node">
<title>Node9</title>
<g id="a_node9"><a xlink:href="General_8ipp.html" target="_top" xlink:title="Implementation of General.hpp.">
<polygon fill="white" stroke="black" points="245,-0.5 245,-19.5 343,-19.5 343,-0.5 245,-0.5"/>
<text text-anchor="middle" x="294" y="-7.5" font-family="Helvetica,sans-Serif" font-size="10.00">impl/General.ipp</text>
</a>
</g>
</g>
<!-- Node6&#45;&gt;Node9 -->
<g id="edge8" class="edge">
<title>Node6&#45;&gt;Node9</title>
<path fill="none" stroke="midnightblue" d="M248.76,-56.08C254.14,-48.14 264.29,-36.34 273.75,-26.8"/>
<polygon fill="midnightblue" stroke="midnightblue" points="276.3,-29.2 281.09,-19.75 271.45,-24.15 276.3,-29.2"/>
</g>
<!-- Node9&#45;&gt;Node6 -->
<g id="edge9" class="edge">
<title>Node9&#45;&gt;Node6</title>
<path fill="none" stroke="midnightblue" d="M291.3,-19.83C285.92,-27.79 275.71,-39.67 266.2,-49.25"/>
<polygon fill="midnightblue" stroke="midnightblue" points="263.62,-46.88 258.83,-56.32 268.47,-51.93 263.62,-46.88"/>
</g>
</g>
</svg>
