<?xml version="1.0" encoding="UTF-8" standalone="no"?>
<!DOCTYPE svg PUBLIC "-//W3C//DTD SVG 1.1//EN"
 "http://www.w3.org/Graphics/SVG/1.1/DTD/svg11.dtd">
<!-- Generated by graphviz version 2.43.0 (0)
 -->
<!-- Title: Half_Idempotent.ipp Pages: 1 -->
<svg width="127pt" height="140pt"
 viewBox="0.00 0.00 127.00 140.00" xmlns="http://www.w3.org/2000/svg" xmlns:xlink="http://www.w3.org/1999/xlink">
<g id="graph0" class="graph" transform="scale(1 1) rotate(0) translate(4 136)">
<title>Half_Idempotent.ipp</title>
<polygon fill="white" stroke="transparent" points="-4,4 -4,-136 123,-136 123,4 -4,4"/>
<!-- Node1 -->
<g id="node1" class="node">
<title>Node1</title>
<g id="a_node1"><a xlink:title="Implementation of Half_Idempotent.hpp.">
<polygon fill="#bfbfbf" stroke="black" points="1.5,-112.5 1.5,-131.5 117.5,-131.5 117.5,-112.5 1.5,-112.5"/>
<text text-anchor="middle" x="59.5" y="-119.5" font-family="Helvetica,sans-Serif" font-size="10.00">Half_Idempotent.ipp</text>
</a>
</g>
</g>
<!-- Node2 -->
<g id="node2" class="node">
<title>Node2</title>
<g id="a_node2"><a xlink:href="Half__Idempotent_8hpp.html" target="_top" xlink:title="Contains the methods and classes for symmetric polynomials with half idempotent variables.">
<polygon fill="white" stroke="black" points="0,-56.5 0,-75.5 119,-75.5 119,-56.5 0,-56.5"/>
<text text-anchor="middle" x="59.5" y="-63.5" font-family="Helvetica,sans-Serif" font-size="10.00">Half_Idempotent.hpp</text>
</a>
</g>
</g>
<!-- Node1&#45;&gt;Node2 -->
<g id="edge1" class="edge">
<title>Node1&#45;&gt;Node2</title>
<path fill="none" stroke="midnightblue" d="M53.03,-102.1C52.4,-93.14 52.84,-82.86 54.37,-75.75"/>
<polygon fill="midnightblue" stroke="midnightblue" points="49.57,-102.62 54.33,-112.08 56.51,-101.71 49.57,-102.62"/>
</g>
<!-- Node2&#45;&gt;Node1 -->
<g id="edge3" class="edge">
<title>Node2&#45;&gt;Node1</title>
<path fill="none" stroke="midnightblue" d="M65.96,-85.69C66.61,-94.64 66.18,-104.93 64.67,-112.08"/>
<polygon fill="midnightblue" stroke="midnightblue" points="69.42,-85.2 64.63,-75.75 62.48,-86.13 69.42,-85.2"/>
</g>
<!-- Node3 -->
<g id="node3" class="node">
<title>Node3</title>
<g id="a_node3"><a xlink:href="Demo_8cpp.html" target="_top" xlink:title="A demonstration file that can be compiled.">
<polygon fill="white" stroke="black" points="26.5,-0.5 26.5,-19.5 92.5,-19.5 92.5,-0.5 26.5,-0.5"/>
<text text-anchor="middle" x="59.5" y="-7.5" font-family="Helvetica,sans-Serif" font-size="10.00">Demo.cpp</text>
</a>
</g>
</g>
<!-- Node2&#45;&gt;Node3 -->
<g id="edge2" class="edge">
<title>Node2&#45;&gt;Node3</title>
<path fill="none" stroke="midnightblue" d="M59.5,-45.8C59.5,-36.91 59.5,-26.78 59.5,-19.75"/>
<polygon fill="midnightblue" stroke="midnightblue" points="56,-46.08 59.5,-56.08 63,-46.08 56,-46.08"/>
</g>
</g>
</svg>
