<?xml version="1.0" encoding="UTF-8" standalone="no"?>
<!DOCTYPE svg PUBLIC "-//W3C//DTD SVG 1.1//EN"
 "http://www.w3.org/Graphics/SVG/1.1/DTD/svg11.dtd">
<!-- Generated by graphviz version 2.43.0 (0)
 -->
<!-- Title: Half_Idempotent.ipp Pages: 1 -->
<svg width="942pt" height="308pt"
 viewBox="0.00 0.00 942.00 308.00" xmlns="http://www.w3.org/2000/svg" xmlns:xlink="http://www.w3.org/1999/xlink">
<g id="graph0" class="graph" transform="scale(1 1) rotate(0) translate(4 304)">
<title>Half_Idempotent.ipp</title>
<polygon fill="white" stroke="transparent" points="-4,4 -4,-304 938,-304 938,4 -4,4"/>
<!-- Node1 -->
<g id="node1" class="node">
<title>Node1</title>
<g id="a_node1"><a xlink:title="Implementation of Half_Idempotent.hpp.">
<polygon fill="#bfbfbf" stroke="black" points="732,-280.5 732,-299.5 848,-299.5 848,-280.5 732,-280.5"/>
<text text-anchor="middle" x="790" y="-287.5" font-family="Helvetica,sans-Serif" font-size="10.00">Half_Idempotent.ipp</text>
</a>
</g>
</g>
<!-- Node2 -->
<g id="node2" class="node">
<title>Node2</title>
<g id="a_node2"><a xlink:href="Half__Idempotent_8hpp.html" target="_top" xlink:title="Contains the methods and classes for symmetric polynomials with half idempotent variables.">
<polygon fill="white" stroke="black" points="726,-224.5 726,-243.5 854,-243.5 854,-224.5 726,-224.5"/>
<text text-anchor="middle" x="790" y="-231.5" font-family="Helvetica,sans-Serif" font-size="10.00">../Half_Idempotent.hpp</text>
</a>
</g>
</g>
<!-- Node1&#45;&gt;Node2 -->
<g id="edge1" class="edge">
<title>Node1&#45;&gt;Node2</title>
<path fill="none" stroke="midnightblue" d="M784.83,-280.08C783.32,-272.93 782.89,-262.64 783.54,-253.69"/>
<polygon fill="midnightblue" stroke="midnightblue" points="787.02,-254.13 784.87,-243.75 780.08,-253.2 787.02,-254.13"/>
</g>
<!-- Node2&#45;&gt;Node1 -->
<g id="edge29" class="edge">
<title>Node2&#45;&gt;Node1</title>
<path fill="none" stroke="midnightblue" d="M795.13,-243.75C796.66,-250.86 797.1,-261.14 796.47,-270.1"/>
<polygon fill="midnightblue" stroke="midnightblue" points="792.99,-269.71 795.17,-280.08 799.93,-270.62 792.99,-269.71"/>
</g>
<!-- Node3 -->
<g id="node3" class="node">
<title>Node3</title>
<g id="a_node3"><a xlink:href="Symmetric__Basis_8hpp.html" target="_top" xlink:title="Contains the methods and classes for generatic symmetric polynomials.">
<polygon fill="white" stroke="black" points="676,-168.5 676,-187.5 798,-187.5 798,-168.5 676,-168.5"/>
<text text-anchor="middle" x="737" y="-175.5" font-family="Helvetica,sans-Serif" font-size="10.00">Symmetric_Basis.hpp</text>
</a>
</g>
</g>
<!-- Node2&#45;&gt;Node3 -->
<g id="edge2" class="edge">
<title>Node2&#45;&gt;Node3</title>
<path fill="none" stroke="midnightblue" d="M781.25,-224.08C773.53,-216.22 762.1,-204.57 752.78,-195.08"/>
<polygon fill="midnightblue" stroke="midnightblue" points="755.09,-192.44 745.59,-187.75 750.1,-197.34 755.09,-192.44"/>
</g>
<!-- Node23 -->
<g id="node23" class="node">
<title>Node23</title>
<g id="a_node23"><a xlink:title=" ">
<polygon fill="white" stroke="#bfbfbf" points="816,-168.5 816,-187.5 872,-187.5 872,-168.5 816,-168.5"/>
<text text-anchor="middle" x="844" y="-175.5" font-family="Helvetica,sans-Serif" font-size="10.00">sstream</text>
</a>
</g>
</g>
<!-- Node2&#45;&gt;Node23 -->
<g id="edge28" class="edge">
<title>Node2&#45;&gt;Node23</title>
<path fill="none" stroke="midnightblue" d="M798.92,-224.08C806.78,-216.22 818.43,-204.57 827.92,-195.08"/>
<polygon fill="midnightblue" stroke="midnightblue" points="830.65,-197.3 835.25,-187.75 825.7,-192.35 830.65,-197.3"/>
</g>
<!-- Node4 -->
<g id="node4" class="node">
<title>Node4</title>
<g id="a_node4"><a xlink:href="Polynomials_8hpp.html" target="_top" xlink:title="Contains the class of polynomials in multiple variables.">
<polygon fill="white" stroke="black" points="273,-112.5 273,-131.5 371,-131.5 371,-112.5 273,-112.5"/>
<text text-anchor="middle" x="322" y="-119.5" font-family="Helvetica,sans-Serif" font-size="10.00">Polynomials.hpp</text>
</a>
</g>
</g>
<!-- Node3&#45;&gt;Node4 -->
<g id="edge3" class="edge">
<title>Node3&#45;&gt;Node4</title>
<path fill="none" stroke="midnightblue" d="M675.77,-169.03C596.57,-158.73 459.55,-140.9 381.31,-130.72"/>
<polygon fill="midnightblue" stroke="midnightblue" points="381.51,-127.21 371.14,-129.39 380.6,-134.16 381.51,-127.21"/>
</g>
<!-- Node17 -->
<g id="node17" class="node">
<title>Node17</title>
<g id="a_node17"><a xlink:href="Generators_8hpp.html" target="_top" xlink:title="Contains classes for generating permutations, combinations and a factory for such classes.">
<polygon fill="white" stroke="black" points="623,-112.5 623,-131.5 715,-131.5 715,-112.5 623,-112.5"/>
<text text-anchor="middle" x="669" y="-119.5" font-family="Helvetica,sans-Serif" font-size="10.00">Generators.hpp</text>
</a>
</g>
</g>
<!-- Node3&#45;&gt;Node17 -->
<g id="edge19" class="edge">
<title>Node3&#45;&gt;Node17</title>
<path fill="none" stroke="midnightblue" d="M726.07,-168.32C715.83,-160.18 700.28,-147.84 688,-138.09"/>
<polygon fill="midnightblue" stroke="midnightblue" points="690.13,-135.31 680.12,-131.83 685.78,-140.79 690.13,-135.31"/>
</g>
<!-- Node22 -->
<g id="node22" class="node">
<title>Node22</title>
<g id="a_node22"><a xlink:href="Symmetric__Basis_8ipp.html" target="_top" xlink:title="Implementation of Symmetric_Basis.hpp.">
<polygon fill="white" stroke="black" points="733,-112.5 733,-131.5 877,-131.5 877,-112.5 733,-112.5"/>
<text text-anchor="middle" x="805" y="-119.5" font-family="Helvetica,sans-Serif" font-size="10.00">impl/Symmetric_Basis.ipp</text>
</a>
</g>
</g>
<!-- Node3&#45;&gt;Node22 -->
<g id="edge26" class="edge">
<title>Node3&#45;&gt;Node22</title>
<path fill="none" stroke="midnightblue" d="M742.81,-168.32C751.43,-160.06 766.98,-147.45 780.5,-137.63"/>
<polygon fill="midnightblue" stroke="midnightblue" points="782.83,-140.27 788.99,-131.65 778.8,-134.55 782.83,-140.27"/>
</g>
<!-- Node5 -->
<g id="node5" class="node">
<title>Node5</title>
<g id="a_node5"><a xlink:href="General_8hpp.html" target="_top" xlink:title="Contains general operations on vectors: hashing, computing degrees.">
<polygon fill="white" stroke="black" points="518,-56.5 518,-75.5 594,-75.5 594,-56.5 518,-56.5"/>
<text text-anchor="middle" x="556" y="-63.5" font-family="Helvetica,sans-Serif" font-size="10.00">General.hpp</text>
</a>
</g>
</g>
<!-- Node4&#45;&gt;Node5 -->
<g id="edge4" class="edge">
<title>Node4&#45;&gt;Node5</title>
<path fill="none" stroke="midnightblue" d="M359.08,-112.44C399.73,-103.06 465.03,-87.99 509.18,-77.8"/>
<polygon fill="midnightblue" stroke="midnightblue" points="510.14,-81.18 519.1,-75.52 508.56,-74.35 510.14,-81.18"/>
</g>
<!-- Node7 -->
<g id="node7" class="node">
<title>Node7</title>
<g id="a_node7"><a xlink:title=" ">
<polygon fill="white" stroke="#bfbfbf" points="358,-0.5 358,-19.5 418,-19.5 418,-0.5 358,-0.5"/>
<text text-anchor="middle" x="388" y="-7.5" font-family="Helvetica,sans-Serif" font-size="10.00">iostream</text>
</a>
</g>
</g>
<!-- Node4&#45;&gt;Node7 -->
<g id="edge16" class="edge">
<title>Node4&#45;&gt;Node7</title>
<path fill="none" stroke="midnightblue" d="M323.06,-112.43C324.98,-99.43 329.89,-74.29 341,-56 347.98,-44.5 358.64,-33.96 368.05,-25.97"/>
<polygon fill="midnightblue" stroke="midnightblue" points="370.29,-28.67 375.86,-19.66 365.89,-23.22 370.29,-28.67"/>
</g>
<!-- Node9 -->
<g id="node9" class="node">
<title>Node9</title>
<g id="a_node9"><a xlink:href="Details_8ipp.html" target="_top" xlink:title="Contains various implementation details.">
<polygon fill="white" stroke="black" points="200,-56.5 200,-75.5 294,-75.5 294,-56.5 200,-56.5"/>
<text text-anchor="middle" x="247" y="-63.5" font-family="Helvetica,sans-Serif" font-size="10.00">impl/Details.ipp</text>
</a>
</g>
</g>
<!-- Node4&#45;&gt;Node9 -->
<g id="edge9" class="edge">
<title>Node4&#45;&gt;Node9</title>
<path fill="none" stroke="midnightblue" d="M309.95,-112.32C298.54,-104.11 281.17,-91.6 267.57,-81.81"/>
<polygon fill="midnightblue" stroke="midnightblue" points="269.43,-78.84 259.27,-75.83 265.34,-84.52 269.43,-78.84"/>
</g>
<!-- Node13 -->
<g id="node13" class="node">
<title>Node13</title>
<g id="a_node13"><a xlink:title=" ">
<polygon fill="white" stroke="#bfbfbf" points="350,-56.5 350,-75.5 388,-75.5 388,-56.5 350,-56.5"/>
<text text-anchor="middle" x="369" y="-63.5" font-family="Helvetica,sans-Serif" font-size="10.00">map</text>
</a>
</g>
</g>
<!-- Node4&#45;&gt;Node13 -->
<g id="edge13" class="edge">
<title>Node4&#45;&gt;Node13</title>
<path fill="none" stroke="midnightblue" d="M329.76,-112.08C336.54,-104.3 346.54,-92.8 354.76,-83.37"/>
<polygon fill="midnightblue" stroke="midnightblue" points="357.46,-85.59 361.38,-75.75 352.18,-81 357.46,-85.59"/>
</g>
<!-- Node14 -->
<g id="node14" class="node">
<title>Node14</title>
<g id="a_node14"><a xlink:title=" ">
<polygon fill="white" stroke="#bfbfbf" points="406.5,-56.5 406.5,-75.5 499.5,-75.5 499.5,-56.5 406.5,-56.5"/>
<text text-anchor="middle" x="453" y="-63.5" font-family="Helvetica,sans-Serif" font-size="10.00">unordered_map</text>
</a>
</g>
</g>
<!-- Node4&#45;&gt;Node14 -->
<g id="edge14" class="edge">
<title>Node4&#45;&gt;Node14</title>
<path fill="none" stroke="midnightblue" d="M342.76,-112.44C364.32,-103.56 398.26,-89.56 422.79,-79.45"/>
<polygon fill="midnightblue" stroke="midnightblue" points="424.43,-82.56 432.34,-75.52 421.76,-76.09 424.43,-82.56"/>
</g>
<!-- Node15 -->
<g id="node15" class="node">
<title>Node15</title>
<g id="a_node15"><a xlink:title=" ">
<polygon fill="white" stroke="#bfbfbf" points="0,-56.5 0,-75.5 44,-75.5 44,-56.5 0,-56.5"/>
<text text-anchor="middle" x="22" y="-63.5" font-family="Helvetica,sans-Serif" font-size="10.00">string</text>
</a>
</g>
</g>
<!-- Node4&#45;&gt;Node15 -->
<g id="edge15" class="edge">
<title>Node4&#45;&gt;Node15</title>
<path fill="none" stroke="midnightblue" d="M272.58,-114.5C220.48,-107.25 135.87,-94.37 54.21,-76.06"/>
<polygon fill="midnightblue" stroke="midnightblue" points="54.8,-72.61 44.27,-73.8 53.25,-79.43 54.8,-72.61"/>
</g>
<!-- Node16 -->
<g id="node16" class="node">
<title>Node16</title>
<g id="a_node16"><a xlink:href="Polynomials_8ipp.html" target="_top" xlink:title="Implementation of Polynomials.hpp.">
<polygon fill="white" stroke="black" points="62.5,-56.5 62.5,-75.5 181.5,-75.5 181.5,-56.5 62.5,-56.5"/>
<text text-anchor="middle" x="122" y="-63.5" font-family="Helvetica,sans-Serif" font-size="10.00">impl/Polynomials.ipp</text>
</a>
</g>
</g>
<!-- Node4&#45;&gt;Node16 -->
<g id="edge17" class="edge">
<title>Node4&#45;&gt;Node16</title>
<path fill="none" stroke="midnightblue" d="M285.22,-112.44C248.96,-103.2 194.1,-88.44 158.09,-78.26"/>
<polygon fill="midnightblue" stroke="midnightblue" points="159.04,-74.89 148.46,-75.52 157.12,-81.62 159.04,-74.89"/>
</g>
<!-- Node6 -->
<g id="node6" class="node">
<title>Node6</title>
<g id="a_node6"><a xlink:title=" ">
<polygon fill="white" stroke="#bfbfbf" points="436,-0.5 436,-19.5 492,-19.5 492,-0.5 436,-0.5"/>
<text text-anchor="middle" x="464" y="-7.5" font-family="Helvetica,sans-Serif" font-size="10.00">numeric</text>
</a>
</g>
</g>
<!-- Node5&#45;&gt;Node6 -->
<g id="edge5" class="edge">
<title>Node5&#45;&gt;Node6</title>
<path fill="none" stroke="midnightblue" d="M541.22,-56.32C526.73,-47.82 504.43,-34.73 487.51,-24.8"/>
<polygon fill="midnightblue" stroke="midnightblue" points="489.14,-21.7 478.74,-19.65 485.6,-27.74 489.14,-21.7"/>
</g>
<!-- Node5&#45;&gt;Node7 -->
<g id="edge6" class="edge">
<title>Node5&#45;&gt;Node7</title>
<path fill="none" stroke="midnightblue" d="M529.38,-56.44C500.99,-47.32 455.86,-32.81 424.25,-22.65"/>
<polygon fill="midnightblue" stroke="midnightblue" points="425.09,-19.24 414.5,-19.52 422.94,-25.91 425.09,-19.24"/>
</g>
<!-- Node8 -->
<g id="node8" class="node">
<title>Node8</title>
<g id="a_node8"><a xlink:href="General_8ipp.html" target="_top" xlink:title="Implementation of General.hpp.">
<polygon fill="white" stroke="black" points="510,-0.5 510,-19.5 608,-19.5 608,-0.5 510,-0.5"/>
<text text-anchor="middle" x="559" y="-7.5" font-family="Helvetica,sans-Serif" font-size="10.00">impl/General.ipp</text>
</a>
</g>
</g>
<!-- Node5&#45;&gt;Node8 -->
<g id="edge7" class="edge">
<title>Node5&#45;&gt;Node8</title>
<path fill="none" stroke="midnightblue" d="M551.33,-56.08C550.22,-48.93 550.36,-38.64 551.5,-29.69"/>
<polygon fill="midnightblue" stroke="midnightblue" points="554.96,-30.23 553.38,-19.75 548.09,-28.93 554.96,-30.23"/>
</g>
<!-- Node8&#45;&gt;Node5 -->
<g id="edge8" class="edge">
<title>Node8&#45;&gt;Node5</title>
<path fill="none" stroke="midnightblue" d="M563.64,-19.75C564.78,-26.86 564.65,-37.14 563.52,-46.1"/>
<polygon fill="midnightblue" stroke="midnightblue" points="560.05,-45.61 561.66,-56.08 566.93,-46.89 560.05,-45.61"/>
</g>
<!-- Node10 -->
<g id="node10" class="node">
<title>Node10</title>
<g id="a_node10"><a xlink:title=" ">
<polygon fill="white" stroke="#bfbfbf" points="133.5,-0.5 133.5,-19.5 202.5,-19.5 202.5,-0.5 133.5,-0.5"/>
<text text-anchor="middle" x="168" y="-7.5" font-family="Helvetica,sans-Serif" font-size="10.00">type_traits</text>
</a>
</g>
</g>
<!-- Node9&#45;&gt;Node10 -->
<g id="edge10" class="edge">
<title>Node9&#45;&gt;Node10</title>
<path fill="none" stroke="midnightblue" d="M234.31,-56.32C222.1,-47.98 203.42,-35.21 189,-25.35"/>
<polygon fill="midnightblue" stroke="midnightblue" points="190.89,-22.41 180.66,-19.65 186.94,-28.19 190.89,-22.41"/>
</g>
<!-- Node11 -->
<g id="node11" class="node">
<title>Node11</title>
<g id="a_node11"><a xlink:title=" ">
<polygon fill="white" stroke="#bfbfbf" points="220.5,-0.5 220.5,-19.5 265.5,-19.5 265.5,-0.5 220.5,-0.5"/>
<text text-anchor="middle" x="243" y="-7.5" font-family="Helvetica,sans-Serif" font-size="10.00">utility</text>
</a>
</g>
</g>
<!-- Node9&#45;&gt;Node11 -->
<g id="edge11" class="edge">
<title>Node9&#45;&gt;Node11</title>
<path fill="none" stroke="midnightblue" d="M246.34,-56.08C245.82,-49.01 245.06,-38.86 244.41,-29.99"/>
<polygon fill="midnightblue" stroke="midnightblue" points="247.88,-29.47 243.65,-19.75 240.9,-29.98 247.88,-29.47"/>
</g>
<!-- Node12 -->
<g id="node12" class="node">
<title>Node12</title>
<g id="a_node12"><a xlink:title=" ">
<polygon fill="white" stroke="#bfbfbf" points="284,-0.5 284,-19.5 340,-19.5 340,-0.5 284,-0.5"/>
<text text-anchor="middle" x="312" y="-7.5" font-family="Helvetica,sans-Serif" font-size="10.00">stddef.h</text>
</a>
</g>
</g>
<!-- Node9&#45;&gt;Node12 -->
<g id="edge12" class="edge">
<title>Node9&#45;&gt;Node12</title>
<path fill="none" stroke="midnightblue" d="M257.44,-56.32C267.15,-48.26 281.82,-36.08 293.5,-26.37"/>
<polygon fill="midnightblue" stroke="midnightblue" points="295.91,-28.92 301.37,-19.83 291.44,-23.53 295.91,-28.92"/>
</g>
<!-- Node16&#45;&gt;Node4 -->
<g id="edge18" class="edge">
<title>Node16&#45;&gt;Node4</title>
<path fill="none" stroke="midnightblue" d="M158.62,-75.52C194.83,-84.74 249.69,-99.51 285.75,-109.7"/>
<polygon fill="midnightblue" stroke="midnightblue" points="284.82,-113.07 295.4,-112.44 286.74,-106.34 284.82,-113.07"/>
</g>
<!-- Node17&#45;&gt;Node5 -->
<g id="edge23" class="edge">
<title>Node17&#45;&gt;Node5</title>
<path fill="none" stroke="midnightblue" d="M651.09,-112.44C632.75,-103.68 603.99,-89.94 582.91,-79.86"/>
<polygon fill="midnightblue" stroke="midnightblue" points="584.35,-76.67 573.82,-75.52 581.33,-82.99 584.35,-76.67"/>
</g>
<!-- Node18 -->
<g id="node18" class="node">
<title>Node18</title>
<g id="a_node18"><a xlink:title=" ">
<polygon fill="white" stroke="#bfbfbf" points="744,-56.5 744,-75.5 808,-75.5 808,-56.5 744,-56.5"/>
<text text-anchor="middle" x="776" y="-63.5" font-family="Helvetica,sans-Serif" font-size="10.00">algorithm</text>
</a>
</g>
</g>
<!-- Node17&#45;&gt;Node18 -->
<g id="edge20" class="edge">
<title>Node17&#45;&gt;Node18</title>
<path fill="none" stroke="midnightblue" d="M686.19,-112.32C703.35,-103.66 729.95,-90.24 749.75,-80.25"/>
<polygon fill="midnightblue" stroke="midnightblue" points="751.5,-83.28 758.85,-75.65 748.35,-77.04 751.5,-83.28"/>
</g>
<!-- Node19 -->
<g id="node19" class="node">
<title>Node19</title>
<g id="a_node19"><a xlink:title=" ">
<polygon fill="white" stroke="#bfbfbf" points="826.5,-56.5 826.5,-75.5 873.5,-75.5 873.5,-56.5 826.5,-56.5"/>
<text text-anchor="middle" x="850" y="-63.5" font-family="Helvetica,sans-Serif" font-size="10.00">vector</text>
</a>
</g>
</g>
<!-- Node17&#45;&gt;Node19 -->
<g id="edge21" class="edge">
<title>Node17&#45;&gt;Node19</title>
<path fill="none" stroke="midnightblue" d="M697.68,-112.44C729.93,-102.82 782.24,-87.21 816.39,-77.03"/>
<polygon fill="midnightblue" stroke="midnightblue" points="817.78,-80.27 826.36,-74.05 815.77,-73.56 817.78,-80.27"/>
</g>
<!-- Node20 -->
<g id="node20" class="node">
<title>Node20</title>
<g id="a_node20"><a xlink:title=" ">
<polygon fill="white" stroke="#bfbfbf" points="892,-56.5 892,-75.5 934,-75.5 934,-56.5 892,-56.5"/>
<text text-anchor="middle" x="913" y="-63.5" font-family="Helvetica,sans-Serif" font-size="10.00">array</text>
</a>
</g>
</g>
<!-- Node17&#45;&gt;Node20 -->
<g id="edge22" class="edge">
<title>Node17&#45;&gt;Node20</title>
<path fill="none" stroke="midnightblue" d="M715.18,-112.46C756.57,-104.54 819.13,-91.92 882.06,-76.08"/>
<polygon fill="midnightblue" stroke="midnightblue" points="882.93,-79.47 891.76,-73.61 881.2,-72.69 882.93,-79.47"/>
</g>
<!-- Node21 -->
<g id="node21" class="node">
<title>Node21</title>
<g id="a_node21"><a xlink:href="Generators_8ipp.html" target="_top" xlink:title="Implementation of Generators.hpp.">
<polygon fill="white" stroke="black" points="612.5,-56.5 612.5,-75.5 725.5,-75.5 725.5,-56.5 612.5,-56.5"/>
<text text-anchor="middle" x="669" y="-63.5" font-family="Helvetica,sans-Serif" font-size="10.00">impl/Generators.ipp</text>
</a>
</g>
</g>
<!-- Node17&#45;&gt;Node21 -->
<g id="edge24" class="edge">
<title>Node17&#45;&gt;Node21</title>
<path fill="none" stroke="midnightblue" d="M663.83,-112.08C662.32,-104.93 661.89,-94.64 662.54,-85.69"/>
<polygon fill="midnightblue" stroke="midnightblue" points="666.02,-86.13 663.87,-75.75 659.08,-85.2 666.02,-86.13"/>
</g>
<!-- Node21&#45;&gt;Node17 -->
<g id="edge25" class="edge">
<title>Node21&#45;&gt;Node17</title>
<path fill="none" stroke="midnightblue" d="M674.13,-75.75C675.66,-82.86 676.1,-93.14 675.47,-102.1"/>
<polygon fill="midnightblue" stroke="midnightblue" points="671.99,-101.71 674.17,-112.08 678.93,-102.62 671.99,-101.71"/>
</g>
<!-- Node22&#45;&gt;Node3 -->
<g id="edge27" class="edge">
<title>Node22&#45;&gt;Node3</title>
<path fill="none" stroke="midnightblue" d="M799.02,-131.83C790.37,-140.11 774.92,-152.62 761.48,-162.38"/>
<polygon fill="midnightblue" stroke="midnightblue" points="759.2,-159.71 753.04,-168.32 763.23,-165.43 759.2,-159.71"/>
</g>
</g>
</svg>
