<?xml version="1.0" encoding="UTF-8" standalone="no"?>
<!DOCTYPE svg PUBLIC "-//W3C//DTD SVG 1.1//EN"
 "http://www.w3.org/Graphics/SVG/1.1/DTD/svg11.dtd">
<!-- Generated by graphviz version 2.43.0 (0)
 -->
<!-- Title: Polynomials.hpp Pages: 1 -->
<svg width="710pt" height="140pt"
 viewBox="0.00 0.00 709.50 140.00" xmlns="http://www.w3.org/2000/svg" xmlns:xlink="http://www.w3.org/1999/xlink">
<g id="graph0" class="graph" transform="scale(1 1) rotate(0) translate(4 136)">
<title>Polynomials.hpp</title>
<polygon fill="white" stroke="transparent" points="-4,4 -4,-136 705.5,-136 705.5,4 -4,4"/>
<!-- Node1 -->
<g id="node1" class="node">
<title>Node1</title>
<g id="a_node1"><a xlink:title="Contains the class of polynomials in multiple variables.">
<polygon fill="#bfbfbf" stroke="black" points="322,-112.5 322,-131.5 420,-131.5 420,-112.5 322,-112.5"/>
<text text-anchor="middle" x="371" y="-119.5" font-family="Helvetica,sans-Serif" font-size="10.00">Polynomials.hpp</text>
</a>
</g>
</g>
<!-- Node2 -->
<g id="node2" class="node">
<title>Node2</title>
<g id="a_node2"><a xlink:href="General_8hpp.html" target="_top" xlink:title="Contains general operations on vectors: hashing, computing degrees.">
<polygon fill="white" stroke="black" points="100,-56.5 100,-75.5 176,-75.5 176,-56.5 100,-56.5"/>
<text text-anchor="middle" x="138" y="-63.5" font-family="Helvetica,sans-Serif" font-size="10.00">General.hpp</text>
</a>
</g>
</g>
<!-- Node1&#45;&gt;Node2 -->
<g id="edge1" class="edge">
<title>Node1&#45;&gt;Node2</title>
<path fill="none" stroke="midnightblue" d="M334.08,-112.44C293.6,-103.06 228.58,-87.99 184.62,-77.8"/>
<polygon fill="midnightblue" stroke="midnightblue" points="185.28,-74.36 174.75,-75.52 183.7,-81.18 185.28,-74.36"/>
</g>
<!-- Node4 -->
<g id="node4" class="node">
<title>Node4</title>
<g id="a_node4"><a xlink:title=" ">
<polygon fill="white" stroke="#bfbfbf" points="190,-0.5 190,-19.5 250,-19.5 250,-0.5 190,-0.5"/>
<text text-anchor="middle" x="220" y="-7.5" font-family="Helvetica,sans-Serif" font-size="10.00">iostream</text>
</a>
</g>
</g>
<!-- Node1&#45;&gt;Node4 -->
<g id="edge9" class="edge">
<title>Node1&#45;&gt;Node4</title>
<path fill="none" stroke="midnightblue" d="M321.86,-117.81C291.26,-113.14 253.56,-102.05 231,-76 220.12,-63.44 218.04,-44.22 218.28,-29.93"/>
<polygon fill="midnightblue" stroke="midnightblue" points="221.79,-29.93 218.85,-19.75 214.8,-29.55 221.79,-29.93"/>
</g>
<!-- Node6 -->
<g id="node6" class="node">
<title>Node6</title>
<g id="a_node6"><a xlink:title=" ">
<polygon fill="white" stroke="#bfbfbf" points="240,-56.5 240,-75.5 334,-75.5 334,-56.5 240,-56.5"/>
<text text-anchor="middle" x="287" y="-63.5" font-family="Helvetica,sans-Serif" font-size="10.00">impl/Details.ipp</text>
</a>
</g>
</g>
<!-- Node1&#45;&gt;Node6 -->
<g id="edge5" class="edge">
<title>Node1&#45;&gt;Node6</title>
<path fill="none" stroke="midnightblue" d="M357.5,-112.32C344.4,-103.9 324.29,-90.97 308.89,-81.07"/>
<polygon fill="midnightblue" stroke="midnightblue" points="310.77,-78.12 300.46,-75.65 306.98,-84.01 310.77,-78.12"/>
</g>
<!-- Node7 -->
<g id="node7" class="node">
<title>Node7</title>
<g id="a_node7"><a xlink:title=" ">
<polygon fill="white" stroke="#bfbfbf" points="352,-56.5 352,-75.5 390,-75.5 390,-56.5 352,-56.5"/>
<text text-anchor="middle" x="371" y="-63.5" font-family="Helvetica,sans-Serif" font-size="10.00">map</text>
</a>
</g>
</g>
<!-- Node1&#45;&gt;Node7 -->
<g id="edge6" class="edge">
<title>Node1&#45;&gt;Node7</title>
<path fill="none" stroke="midnightblue" d="M371,-112.08C371,-105.01 371,-94.86 371,-85.99"/>
<polygon fill="midnightblue" stroke="midnightblue" points="374.5,-85.75 371,-75.75 367.5,-85.75 374.5,-85.75"/>
</g>
<!-- Node8 -->
<g id="node8" class="node">
<title>Node8</title>
<g id="a_node8"><a xlink:title=" ">
<polygon fill="white" stroke="#bfbfbf" points="408.5,-56.5 408.5,-75.5 501.5,-75.5 501.5,-56.5 408.5,-56.5"/>
<text text-anchor="middle" x="455" y="-63.5" font-family="Helvetica,sans-Serif" font-size="10.00">unordered_map</text>
</a>
</g>
</g>
<!-- Node1&#45;&gt;Node8 -->
<g id="edge7" class="edge">
<title>Node1&#45;&gt;Node8</title>
<path fill="none" stroke="midnightblue" d="M384.5,-112.32C397.6,-103.9 417.71,-90.97 433.11,-81.07"/>
<polygon fill="midnightblue" stroke="midnightblue" points="435.02,-84.01 441.54,-75.65 431.23,-78.12 435.02,-84.01"/>
</g>
<!-- Node9 -->
<g id="node9" class="node">
<title>Node9</title>
<g id="a_node9"><a xlink:title=" ">
<polygon fill="white" stroke="#bfbfbf" points="520,-56.5 520,-75.5 564,-75.5 564,-56.5 520,-56.5"/>
<text text-anchor="middle" x="542" y="-63.5" font-family="Helvetica,sans-Serif" font-size="10.00">string</text>
</a>
</g>
</g>
<!-- Node1&#45;&gt;Node9 -->
<g id="edge8" class="edge">
<title>Node1&#45;&gt;Node9</title>
<path fill="none" stroke="midnightblue" d="M398.1,-112.44C428.52,-102.84 477.84,-87.26 510.1,-77.07"/>
<polygon fill="midnightblue" stroke="midnightblue" points="511.44,-80.32 519.93,-73.97 509.34,-73.64 511.44,-80.32"/>
</g>
<!-- Node10 -->
<g id="node10" class="node">
<title>Node10</title>
<g id="a_node10"><a xlink:title=" ">
<polygon fill="white" stroke="#bfbfbf" points="582.5,-56.5 582.5,-75.5 701.5,-75.5 701.5,-56.5 582.5,-56.5"/>
<text text-anchor="middle" x="642" y="-63.5" font-family="Helvetica,sans-Serif" font-size="10.00">impl/Polynomials.ipp</text>
</a>
</g>
</g>
<!-- Node1&#45;&gt;Node10 -->
<g id="edge10" class="edge">
<title>Node1&#45;&gt;Node10</title>
<path fill="none" stroke="midnightblue" d="M413.94,-112.44C461.51,-102.96 538.24,-87.67 589.39,-77.48"/>
<polygon fill="midnightblue" stroke="midnightblue" points="590.14,-80.9 599.26,-75.52 588.77,-74.04 590.14,-80.9"/>
</g>
<!-- Node3 -->
<g id="node3" class="node">
<title>Node3</title>
<g id="a_node3"><a xlink:title=" ">
<polygon fill="white" stroke="#bfbfbf" points="0,-0.5 0,-19.5 56,-19.5 56,-0.5 0,-0.5"/>
<text text-anchor="middle" x="28" y="-7.5" font-family="Helvetica,sans-Serif" font-size="10.00">numeric</text>
</a>
</g>
</g>
<!-- Node2&#45;&gt;Node3 -->
<g id="edge2" class="edge">
<title>Node2&#45;&gt;Node3</title>
<path fill="none" stroke="midnightblue" d="M120.33,-56.32C102.61,-47.62 75.1,-34.12 54.71,-24.11"/>
<polygon fill="midnightblue" stroke="midnightblue" points="56.15,-20.92 45.63,-19.65 53.06,-27.2 56.15,-20.92"/>
</g>
<!-- Node2&#45;&gt;Node4 -->
<g id="edge3" class="edge">
<title>Node2&#45;&gt;Node4</title>
<path fill="none" stroke="midnightblue" d="M151.17,-56.32C163.85,-47.98 183.23,-35.21 198.21,-25.35"/>
<polygon fill="midnightblue" stroke="midnightblue" points="200.43,-28.08 206.86,-19.65 196.58,-22.23 200.43,-28.08"/>
</g>
<!-- Node5 -->
<g id="node5" class="node">
<title>Node5</title>
<g id="a_node5"><a xlink:title=" ">
<polygon fill="white" stroke="#bfbfbf" points="74,-0.5 74,-19.5 172,-19.5 172,-0.5 74,-0.5"/>
<text text-anchor="middle" x="123" y="-7.5" font-family="Helvetica,sans-Serif" font-size="10.00">impl/General.ipp</text>
</a>
</g>
</g>
<!-- Node2&#45;&gt;Node5 -->
<g id="edge4" class="edge">
<title>Node2&#45;&gt;Node5</title>
<path fill="none" stroke="midnightblue" d="M135.52,-56.08C133.51,-48.85 130.61,-38.41 128.11,-29.4"/>
<polygon fill="midnightblue" stroke="midnightblue" points="131.48,-28.45 125.43,-19.75 124.74,-30.32 131.48,-28.45"/>
</g>
</g>
</svg>
