<?xml version="1.0" encoding="UTF-8" standalone="no"?>
<!DOCTYPE svg PUBLIC "-//W3C//DTD SVG 1.1//EN"
 "http://www.w3.org/Graphics/SVG/1.1/DTD/svg11.dtd">
<!-- Generated by graphviz version 2.43.0 (0)
 -->
<!-- Title: ElementarySymmetricVariables&lt; T, _deg &gt; Pages: 1 -->
<svg width="232pt" height="242pt"
 viewBox="0.00 0.00 231.50 242.00" xmlns="http://www.w3.org/2000/svg" xmlns:xlink="http://www.w3.org/1999/xlink">
<g id="graph0" class="graph" transform="scale(1 1) rotate(0) translate(4 238)">
<title>ElementarySymmetricVariables&lt; T, _deg &gt;</title>
<polygon fill="white" stroke="transparent" points="-4,4 -4,-238 227.5,-238 227.5,4 -4,4"/>
<!-- Node1 -->
<g id="node1" class="node">
<title>Node1</title>
<g id="a_node1"><a xlink:title="Variables &#160;of degrees .">
<polygon fill="#bfbfbf" stroke="black" points="0,-0.5 0,-30.5 171,-30.5 171,-0.5 0,-0.5"/>
<text text-anchor="start" x="8" y="-18.5" font-family="Helvetica,sans-Serif" font-size="10.00">ElementarySymmetricVariables</text>
<text text-anchor="middle" x="85.5" y="-7.5" font-family="Helvetica,sans-Serif" font-size="10.00">&lt; T, _deg &gt;</text>
</a>
</g>
</g>
<!-- Node2 -->
<g id="node2" class="node">
<title>Node2</title>
<g id="a_node2"><a xlink:href="structsymmp_1_1StandardVariables.html" target="_top" xlink:title=" ">
<polygon fill="white" stroke="black" points="29,-68.5 29,-98.5 142,-98.5 142,-68.5 29,-68.5"/>
<text text-anchor="start" x="37" y="-86.5" font-family="Helvetica,sans-Serif" font-size="10.00">StandardVariables&lt;</text>
<text text-anchor="middle" x="85.5" y="-75.5" font-family="Helvetica,sans-Serif" font-size="10.00"> int64_t, int64_t &gt;</text>
</a>
</g>
</g>
<!-- Node2&#45;&gt;Node1 -->
<g id="edge1" class="edge">
<title>Node2&#45;&gt;Node1</title>
<path fill="none" stroke="midnightblue" d="M85.5,-58.03C85.5,-48.86 85.5,-38.74 85.5,-30.79"/>
<polygon fill="midnightblue" stroke="midnightblue" points="82,-58.18 85.5,-68.18 89,-58.18 82,-58.18"/>
</g>
<!-- Node3 -->
<g id="node3" class="node">
<title>Node3</title>
<g id="a_node3"><a xlink:title=" ">
<polygon fill="white" stroke="#bfbfbf" points="43.5,-214.5 43.5,-233.5 119.5,-233.5 119.5,-214.5 43.5,-214.5"/>
<text text-anchor="middle" x="81.5" y="-221.5" font-family="Helvetica,sans-Serif" font-size="10.00">vector&lt; T &gt;</text>
</a>
</g>
</g>
<!-- Node3&#45;&gt;Node2 -->
<g id="edge2" class="edge">
<title>Node3&#45;&gt;Node2</title>
<path fill="none" stroke="midnightblue" d="M82.04,-204.25C82.85,-176.19 84.36,-123.88 85.09,-98.73"/>
<polygon fill="midnightblue" stroke="midnightblue" points="78.54,-204.24 81.75,-214.34 85.54,-204.44 78.54,-204.24"/>
</g>
<!-- Node4 -->
<g id="node4" class="node">
<title>Node4</title>
<g id="a_node4"><a xlink:href="structsymmp_1_1StandardVariables.html" target="_top" xlink:title="The standard variables &#160;in a polynomial, with &#160;and no relations.">
<polygon fill="white" stroke="black" points="98,-146.5 98,-176.5 211,-176.5 211,-146.5 98,-146.5"/>
<text text-anchor="start" x="106" y="-164.5" font-family="Helvetica,sans-Serif" font-size="10.00">StandardVariables&lt;</text>
<text text-anchor="middle" x="154.5" y="-153.5" font-family="Helvetica,sans-Serif" font-size="10.00"> T, _deg &gt;</text>
</a>
</g>
</g>
<!-- Node3&#45;&gt;Node4 -->
<g id="edge4" class="edge">
<title>Node3&#45;&gt;Node4</title>
<path fill="none" stroke="midnightblue" d="M99.72,-207.9C111.32,-198.29 126.24,-185.92 137.58,-176.53"/>
<polygon fill="midnightblue" stroke="midnightblue" points="97.43,-205.26 91.96,-214.33 101.89,-210.65 97.43,-205.26"/>
</g>
<!-- Node4&#45;&gt;Node2 -->
<g id="edge3" class="edge">
<title>Node4&#45;&gt;Node2</title>
<path fill="none" stroke="orange" stroke-dasharray="5,2" d="M134.68,-138.67C123.02,-125.83 108.62,-109.97 98.42,-98.73"/>
<polygon fill="orange" stroke="orange" points="132.21,-141.15 141.52,-146.2 137.39,-136.45 132.21,-141.15"/>
<text text-anchor="middle" x="173.5" y="-120" font-family="Helvetica,sans-Serif" font-size="10.00"> &lt; int64_t, int64_t &gt;</text>
</g>
</g>
</svg>
