<?xml version="1.0" encoding="UTF-8" standalone="no"?>
<!DOCTYPE svg PUBLIC "-//W3C//DTD SVG 1.1//EN"
 "http://www.w3.org/Graphics/SVG/1.1/DTD/svg11.dtd">
<!-- Generated by graphviz version 2.43.0 (0)
 -->
<!-- Title: StandardVariables&lt; T, _deg &gt; Pages: 1 -->
<svg width="194pt" height="242pt"
 viewBox="0.00 0.00 193.50 242.00" xmlns="http://www.w3.org/2000/svg" xmlns:xlink="http://www.w3.org/1999/xlink">
<g id="graph0" class="graph" transform="scale(1 1) rotate(0) translate(4 238)">
<title>StandardVariables&lt; T, _deg &gt;</title>
<polygon fill="white" stroke="transparent" points="-4,4 -4,-238 189.5,-238 189.5,4 -4,4"/>
<!-- Node1 -->
<g id="node1" class="node">
<title>Node1</title>
<g id="a_node1"><a xlink:title="The standard variables &#160;in a polynomial, with &#160;and no relations.">
<polygon fill="#bfbfbf" stroke="black" points="29,-146.5 29,-176.5 142,-176.5 142,-146.5 29,-146.5"/>
<text text-anchor="start" x="37" y="-164.5" font-family="Helvetica,sans-Serif" font-size="10.00">StandardVariables&lt;</text>
<text text-anchor="middle" x="85.5" y="-153.5" font-family="Helvetica,sans-Serif" font-size="10.00"> T, _deg &gt;</text>
</a>
</g>
</g>
<!-- Node3 -->
<g id="node3" class="node">
<title>Node3</title>
<g id="a_node3"><a xlink:href="structsymmp_1_1StandardVariables.html" target="_top" xlink:title=" ">
<polygon fill="white" stroke="black" points="29,-68.5 29,-98.5 142,-98.5 142,-68.5 29,-68.5"/>
<text text-anchor="start" x="37" y="-86.5" font-family="Helvetica,sans-Serif" font-size="10.00">StandardVariables&lt;</text>
<text text-anchor="middle" x="85.5" y="-75.5" font-family="Helvetica,sans-Serif" font-size="10.00"> int64_t, int64_t &gt;</text>
</a>
</g>
</g>
<!-- Node1&#45;&gt;Node3 -->
<g id="edge2" class="edge">
<title>Node1&#45;&gt;Node3</title>
<path fill="none" stroke="orange" stroke-dasharray="5,2" d="M85.5,-136.09C85.5,-123.76 85.5,-109.22 85.5,-98.73"/>
<polygon fill="orange" stroke="orange" points="82,-136.2 85.5,-146.2 89,-136.21 82,-136.2"/>
<text text-anchor="middle" x="135.5" y="-120" font-family="Helvetica,sans-Serif" font-size="10.00"> &lt; int64_t, int64_t &gt;</text>
</g>
<!-- Node2 -->
<g id="node2" class="node">
<title>Node2</title>
<g id="a_node2"><a xlink:title=" ">
<polygon fill="white" stroke="#bfbfbf" points="47.5,-214.5 47.5,-233.5 123.5,-233.5 123.5,-214.5 47.5,-214.5"/>
<text text-anchor="middle" x="85.5" y="-221.5" font-family="Helvetica,sans-Serif" font-size="10.00">vector&lt; T &gt;</text>
</a>
</g>
</g>
<!-- Node2&#45;&gt;Node1 -->
<g id="edge1" class="edge">
<title>Node2&#45;&gt;Node1</title>
<path fill="none" stroke="midnightblue" d="M85.5,-204.22C85.5,-195.36 85.5,-184.96 85.5,-176.76"/>
<polygon fill="midnightblue" stroke="midnightblue" points="82,-204.33 85.5,-214.33 89,-204.33 82,-204.33"/>
</g>
<!-- Node4 -->
<g id="node4" class="node">
<title>Node4</title>
<g id="a_node4"><a xlink:href="structsymmp_1_1ElementarySymmetricVariables.html" target="_top" xlink:title="Variables &#160;of degrees .">
<polygon fill="white" stroke="black" points="0,-0.5 0,-30.5 171,-30.5 171,-0.5 0,-0.5"/>
<text text-anchor="start" x="8" y="-18.5" font-family="Helvetica,sans-Serif" font-size="10.00">ElementarySymmetricVariables</text>
<text text-anchor="middle" x="85.5" y="-7.5" font-family="Helvetica,sans-Serif" font-size="10.00">&lt; T, _deg &gt;</text>
</a>
</g>
</g>
<!-- Node3&#45;&gt;Node4 -->
<g id="edge3" class="edge">
<title>Node3&#45;&gt;Node4</title>
<path fill="none" stroke="midnightblue" d="M85.5,-58.03C85.5,-48.86 85.5,-38.74 85.5,-30.79"/>
<polygon fill="midnightblue" stroke="midnightblue" points="82,-58.18 85.5,-68.18 89,-58.18 82,-58.18"/>
</g>
</g>
</svg>
