<?xml version="1.0" encoding="UTF-8" standalone="no"?>
<!DOCTYPE svg PUBLIC "-//W3C//DTD SVG 1.1//EN"
 "http://www.w3.org/Graphics/SVG/1.1/DTD/svg11.dtd">
<!-- Generated by graphviz version 2.43.0 (0)
 -->
<!-- Title: HalfIdempotentVariables&lt; T, _deg, N &gt; Pages: 1 -->
<svg width="149pt" height="185pt"
 viewBox="0.00 0.00 149.00 185.00" xmlns="http://www.w3.org/2000/svg" xmlns:xlink="http://www.w3.org/1999/xlink">
<g id="graph0" class="graph" transform="scale(1 1) rotate(0) translate(4 181)">
<title>HalfIdempotentVariables&lt; T, _deg, N &gt;</title>
<polygon fill="white" stroke="transparent" points="-4,4 -4,-181 145,-181 145,4 -4,4"/>
<!-- Node1 -->
<g id="node1" class="node">
<title>Node1</title>
<g id="a_node1"><a xlink:title="Variables &#160;with &#160;and , .">
<polygon fill="#bfbfbf" stroke="black" points="0,-0.5 0,-30.5 138,-30.5 138,-0.5 0,-0.5"/>
<text text-anchor="start" x="8" y="-18.5" font-family="Helvetica,sans-Serif" font-size="10.00">HalfIdempotentVariables</text>
<text text-anchor="middle" x="69" y="-7.5" font-family="Helvetica,sans-Serif" font-size="10.00">&lt; T, _deg, N &gt;</text>
</a>
</g>
</g>
<!-- Node2 -->
<g id="node2" class="node">
<title>Node2</title>
<g id="a_node2"><a xlink:href="structsymmp_1_1ArrayVectorWrapper.html" target="_top" xlink:title=" ">
<polygon fill="white" stroke="black" points="11.5,-68.5 11.5,-98.5 126.5,-98.5 126.5,-68.5 11.5,-68.5"/>
<text text-anchor="start" x="19.5" y="-86.5" font-family="Helvetica,sans-Serif" font-size="10.00">ArrayVectorWrapper</text>
<text text-anchor="middle" x="69" y="-75.5" font-family="Helvetica,sans-Serif" font-size="10.00">&lt; int64_t, 0 &gt;</text>
</a>
</g>
</g>
<!-- Node2&#45;&gt;Node1 -->
<g id="edge1" class="edge">
<title>Node2&#45;&gt;Node1</title>
<path fill="none" stroke="midnightblue" d="M69,-58.03C69,-48.86 69,-38.74 69,-30.79"/>
<polygon fill="midnightblue" stroke="midnightblue" points="65.5,-58.18 69,-68.18 72.5,-58.18 65.5,-58.18"/>
</g>
<!-- Node3 -->
<g id="node3" class="node">
<title>Node3</title>
<g id="a_node3"><a xlink:href="structsymmp_1_1ArrayVectorWrapper.html" target="_top" xlink:title="Wrapping array and vector in the same interface.">
<polygon fill="white" stroke="black" points="11.5,-146.5 11.5,-176.5 126.5,-176.5 126.5,-146.5 11.5,-146.5"/>
<text text-anchor="start" x="19.5" y="-164.5" font-family="Helvetica,sans-Serif" font-size="10.00">ArrayVectorWrapper</text>
<text text-anchor="middle" x="69" y="-153.5" font-family="Helvetica,sans-Serif" font-size="10.00">&lt; T, N &gt;</text>
</a>
</g>
</g>
<!-- Node3&#45;&gt;Node2 -->
<g id="edge2" class="edge">
<title>Node3&#45;&gt;Node2</title>
<path fill="none" stroke="orange" stroke-dasharray="5,2" d="M69,-136.09C69,-123.76 69,-109.22 69,-98.73"/>
<polygon fill="orange" stroke="orange" points="65.5,-136.2 69,-146.2 72.5,-136.21 65.5,-136.2"/>
<text text-anchor="middle" x="105" y="-120" font-family="Helvetica,sans-Serif" font-size="10.00"> &lt; int64_t, 0 &gt;</text>
</g>
</g>
</svg>
