<?xml version="1.0" encoding="UTF-8" standalone="no"?>
<!DOCTYPE svg PUBLIC "-//W3C//DTD SVG 1.1//EN"
 "http://www.w3.org/Graphics/SVG/1.1/DTD/svg11.dtd">
<!-- Generated by graphviz version 2.43.0 (0)
 -->
<!-- Title: TwistedChernVariables&lt; T, _deg &gt; Pages: 1 -->
<svg width="135pt" height="163pt"
 viewBox="0.00 0.00 135.00 163.00" xmlns="http://www.w3.org/2000/svg" xmlns:xlink="http://www.w3.org/1999/xlink">
<g id="graph0" class="graph" transform="scale(1 1) rotate(0) translate(4 159)">
<title>TwistedChernVariables&lt; T, _deg &gt;</title>
<polygon fill="white" stroke="transparent" points="-4,4 -4,-159 131,-159 131,4 -4,4"/>
<!-- Node1 -->
<g id="node1" class="node">
<title>Node1</title>
<g id="a_node1"><a xlink:title="The twisted Chern generators as variables .">
<polygon fill="#bfbfbf" stroke="black" points="0,-0.5 0,-30.5 127,-30.5 127,-0.5 0,-0.5"/>
<text text-anchor="start" x="8" y="-18.5" font-family="Helvetica,sans-Serif" font-size="10.00">TwistedChernVariables</text>
<text text-anchor="middle" x="63.5" y="-7.5" font-family="Helvetica,sans-Serif" font-size="10.00">&lt; T, _deg &gt;</text>
</a>
</g>
</g>
<!-- Node2 -->
<g id="node2" class="node">
<title>Node2</title>
<g id="a_node2"><a xlink:title=" ">
<polygon fill="white" stroke="#bfbfbf" points="25.5,-68.5 25.5,-87.5 101.5,-87.5 101.5,-68.5 25.5,-68.5"/>
<text text-anchor="middle" x="63.5" y="-75.5" font-family="Helvetica,sans-Serif" font-size="10.00">vector&lt; T &gt;</text>
</a>
</g>
</g>
<!-- Node2&#45;&gt;Node1 -->
<g id="edge1" class="edge">
<title>Node2&#45;&gt;Node1</title>
<path fill="none" stroke="midnightblue" d="M63.5,-58.22C63.5,-49.36 63.5,-38.96 63.5,-30.76"/>
<polygon fill="midnightblue" stroke="midnightblue" points="60,-58.33 63.5,-68.33 67,-58.33 60,-58.33"/>
</g>
<!-- Node3 -->
<g id="node3" class="node">
<title>Node3</title>
<g id="a_node3"><a xlink:title=" ">
<polygon fill="white" stroke="#bfbfbf" points="49,-135.5 49,-154.5 78,-154.5 78,-135.5 49,-135.5"/>
<text text-anchor="middle" x="63.5" y="-142.5" font-family="Helvetica,sans-Serif" font-size="10.00">T</text>
</a>
</g>
</g>
<!-- Node3&#45;&gt;Node2 -->
<g id="edge2" class="edge">
<title>Node3&#45;&gt;Node2</title>
<path fill="none" stroke="#9a32cd" stroke-dasharray="5,2" d="M63.5,-125.04C63.5,-112.67 63.5,-97.12 63.5,-87.63"/>
<polygon fill="#9a32cd" stroke="#9a32cd" points="60,-125.23 63.5,-135.23 67,-125.23 60,-125.23"/>
<text text-anchor="middle" x="88" y="-109" font-family="Helvetica,sans-Serif" font-size="10.00"> elements</text>
</g>
</g>
</svg>
