<?xml version="1.0" encoding="UTF-8" standalone="no"?>
<!DOCTYPE svg PUBLIC "-//W3C//DTD SVG 1.1//EN"
 "http://www.w3.org/Graphics/SVG/1.1/DTD/svg11.dtd">
<!-- Generated by graphviz version 2.43.0 (0)
 -->
<!-- Title: polynomial_data_type&lt; _scl, _exp, _container, _ordered, _Args &gt; Pages: 1 -->
<svg width="168pt" height="150pt"
 viewBox="0.00 0.00 168.00 150.00" xmlns="http://www.w3.org/2000/svg" xmlns:xlink="http://www.w3.org/1999/xlink">
<g id="graph0" class="graph" transform="scale(1 1) rotate(0) translate(4 146)">
<title>polynomial_data_type&lt; _scl, _exp, _container, _ordered, _Args &gt;</title>
<polygon fill="white" stroke="transparent" points="-4,4 -4,-146 164,-146 164,4 -4,4"/>
<!-- Node1 -->
<g id="node1" class="node">
<title>Node1</title>
<g id="a_node1"><a xlink:title=" ">
<polygon fill="#bfbfbf" stroke="black" points="0,-100.5 0,-141.5 136,-141.5 136,-100.5 0,-100.5"/>
<text text-anchor="start" x="8" y="-129.5" font-family="Helvetica,sans-Serif" font-size="10.00">polynomial_data_type</text>
<text text-anchor="start" x="8" y="-118.5" font-family="Helvetica,sans-Serif" font-size="10.00">&lt; _scl, _exp, _container,</text>
<text text-anchor="middle" x="68" y="-107.5" font-family="Helvetica,sans-Serif" font-size="10.00"> _ordered, _Args &gt;</text>
</a>
</g>
</g>
<!-- Node2 -->
<g id="node2" class="node">
<title>Node2</title>
<g id="a_node2"><a xlink:href="structsymmp_1_1implementation__details_1_1polynomial__data__type.html" target="_top" xlink:title=" ">
<polygon fill="white" stroke="black" points="5.5,-0.5 5.5,-41.5 130.5,-41.5 130.5,-0.5 5.5,-0.5"/>
<text text-anchor="start" x="13.5" y="-29.5" font-family="Helvetica,sans-Serif" font-size="10.00">polynomial_data_type</text>
<text text-anchor="start" x="13.5" y="-18.5" font-family="Helvetica,sans-Serif" font-size="10.00">&lt; _scl, _exp, _cnt, </text>
<text text-anchor="middle" x="68" y="-7.5" font-family="Helvetica,sans-Serif" font-size="10.00">_ord, _arg... &gt;</text>
</a>
</g>
</g>
<!-- Node1&#45;&gt;Node2 -->
<g id="edge1" class="edge">
<title>Node1&#45;&gt;Node2</title>
<path fill="none" stroke="orange" stroke-dasharray="5,2" d="M68,-89.92C68,-74.29 68,-55.61 68,-41.8"/>
<polygon fill="orange" stroke="orange" points="64.5,-90.17 68,-100.17 71.5,-90.17 64.5,-90.17"/>
<text text-anchor="start" x="68" y="-74" font-family="Helvetica,sans-Serif" font-size="10.00"> &lt; _scl, _exp, _cnt,</text>
<text text-anchor="middle" x="114" y="-63" font-family="Helvetica,sans-Serif" font-size="10.00"> _ord, _arg... &gt;</text>
</g>
</g>
</svg>
