<?xml version="1.0" encoding="UTF-8" standalone="no"?>
<!DOCTYPE svg PUBLIC "-//W3C//DTD SVG 1.1//EN"
 "http://www.w3.org/Graphics/SVG/1.1/DTD/svg11.dtd">
<!-- Generated by graphviz version 2.43.0 (0)
 -->
<!-- Title: Symmetric_Basis.ipp Pages: 1 -->
<svg width="211pt" height="196pt"
 viewBox="0.00 0.00 211.00 196.00" xmlns="http://www.w3.org/2000/svg" xmlns:xlink="http://www.w3.org/1999/xlink">
<g id="graph0" class="graph" transform="scale(1 1) rotate(0) translate(4 192)">
<title>Symmetric_Basis.ipp</title>
<polygon fill="white" stroke="transparent" points="-4,4 -4,-192 207,-192 207,4 -4,4"/>
<!-- Node1 -->
<g id="node1" class="node">
<title>Node1</title>
<g id="a_node1"><a xlink:title="Implementation of Symmetric_Basis.hpp.">
<polygon fill="#bfbfbf" stroke="black" points="82.5,-168.5 82.5,-187.5 201.5,-187.5 201.5,-168.5 82.5,-168.5"/>
<text text-anchor="middle" x="142" y="-175.5" font-family="Helvetica,sans-Serif" font-size="10.00">Symmetric_Basis.ipp</text>
</a>
</g>
</g>
<!-- Node2 -->
<g id="node2" class="node">
<title>Node2</title>
<g id="a_node2"><a xlink:href="Symmetric__Basis_8hpp.html" target="_top" xlink:title="Contains the methods and classes for generatic symmetric polynomials.">
<polygon fill="white" stroke="black" points="81,-112.5 81,-131.5 203,-131.5 203,-112.5 81,-112.5"/>
<text text-anchor="middle" x="142" y="-119.5" font-family="Helvetica,sans-Serif" font-size="10.00">Symmetric_Basis.hpp</text>
</a>
</g>
</g>
<!-- Node1&#45;&gt;Node2 -->
<g id="edge1" class="edge">
<title>Node1&#45;&gt;Node2</title>
<path fill="none" stroke="midnightblue" d="M135.53,-158.1C134.9,-149.14 135.34,-138.86 136.87,-131.75"/>
<polygon fill="midnightblue" stroke="midnightblue" points="132.07,-158.62 136.83,-168.08 139.01,-157.71 132.07,-158.62"/>
</g>
<!-- Node2&#45;&gt;Node1 -->
<g id="edge6" class="edge">
<title>Node2&#45;&gt;Node1</title>
<path fill="none" stroke="midnightblue" d="M148.46,-141.69C149.11,-150.64 148.68,-160.93 147.17,-168.08"/>
<polygon fill="midnightblue" stroke="midnightblue" points="151.92,-141.2 147.13,-131.75 144.98,-142.13 151.92,-141.2"/>
</g>
<!-- Node3 -->
<g id="node3" class="node">
<title>Node3</title>
<g id="a_node3"><a xlink:href="Half__Idempotent_8hpp.html" target="_top" xlink:title="Contains the methods and classes for symmetric polynomials with half idempotent variables.">
<polygon fill="white" stroke="black" points="82.5,-56.5 82.5,-75.5 201.5,-75.5 201.5,-56.5 82.5,-56.5"/>
<text text-anchor="middle" x="142" y="-63.5" font-family="Helvetica,sans-Serif" font-size="10.00">Half_Idempotent.hpp</text>
</a>
</g>
</g>
<!-- Node2&#45;&gt;Node3 -->
<g id="edge2" class="edge">
<title>Node2&#45;&gt;Node3</title>
<path fill="none" stroke="midnightblue" d="M142,-101.8C142,-92.91 142,-82.78 142,-75.75"/>
<polygon fill="midnightblue" stroke="midnightblue" points="138.5,-102.08 142,-112.08 145.5,-102.08 138.5,-102.08"/>
</g>
<!-- Node4 -->
<g id="node4" class="node">
<title>Node4</title>
<g id="a_node4"><a xlink:href="Demo_8cpp.html" target="_top" xlink:title="A demonstration file that can be compiled.">
<polygon fill="white" stroke="black" points="0,-0.5 0,-19.5 66,-19.5 66,-0.5 0,-0.5"/>
<text text-anchor="middle" x="33" y="-7.5" font-family="Helvetica,sans-Serif" font-size="10.00">Demo.cpp</text>
</a>
</g>
</g>
<!-- Node3&#45;&gt;Node4 -->
<g id="edge3" class="edge">
<title>Node3&#45;&gt;Node4</title>
<path fill="none" stroke="midnightblue" d="M115.48,-51.86C95.27,-41.85 68.01,-28.35 50.47,-19.65"/>
<polygon fill="midnightblue" stroke="midnightblue" points="113.97,-55.02 124.49,-56.32 117.08,-48.75 113.97,-55.02"/>
</g>
<!-- Node5 -->
<g id="node5" class="node">
<title>Node5</title>
<g id="a_node5"><a xlink:href="Half__Idempotent_8ipp.html" target="_top" xlink:title="Implementation of Half_Idempotent.hpp.">
<polygon fill="white" stroke="black" points="84,-0.5 84,-19.5 200,-19.5 200,-0.5 84,-0.5"/>
<text text-anchor="middle" x="142" y="-7.5" font-family="Helvetica,sans-Serif" font-size="10.00">Half_Idempotent.ipp</text>
</a>
</g>
</g>
<!-- Node3&#45;&gt;Node5 -->
<g id="edge4" class="edge">
<title>Node3&#45;&gt;Node5</title>
<path fill="none" stroke="midnightblue" d="M135.53,-46.1C134.9,-37.14 135.34,-26.86 136.87,-19.75"/>
<polygon fill="midnightblue" stroke="midnightblue" points="132.07,-46.62 136.83,-56.08 139.01,-45.71 132.07,-46.62"/>
</g>
<!-- Node5&#45;&gt;Node3 -->
<g id="edge5" class="edge">
<title>Node5&#45;&gt;Node3</title>
<path fill="none" stroke="midnightblue" d="M148.46,-29.69C149.11,-38.64 148.68,-48.93 147.17,-56.08"/>
<polygon fill="midnightblue" stroke="midnightblue" points="151.92,-29.2 147.13,-19.75 144.98,-30.13 151.92,-29.2"/>
</g>
</g>
</svg>
